<svg xmlns="http://www.w3.org/2000/svg" viewBox="0 0 24 24"><defs><style>.cls-1{fill:none;}.cls-2,.cls-3{fill:#744cc6;}.cls-3{fill-opacity:0.5;}</style></defs><g id="Слой_2" data-name="Слой 2"><g id="Duotone"><g id="Accept_Duotone" data-name="Accept/Duotone"><rect class="cls-1" width="24" height="24"/><path class="cls-2" d="M12,3.23A8.77,8.77,0,1,0,20.77,12,8.77,8.77,0,0,0,12,3.23Zm3.48,7.26-3.39,3.39a1.38,1.38,0,0,1-2,0l-1.6-1.59a.65.65,0,0,1-.1-.15.47.47,0,0,1,.1-.51.44.44,0,0,1,.33-.13.42.42,0,0,1,.32.13l1.6,1.61a.48.48,0,0,0,.66,0l3.38-3.39a.65.65,0,0,1,.15-.1.47.47,0,0,1,.51.1.46.46,0,0,1,0,.64Z"/><path class="cls-3" d="M15.48,10.49l-3.39,3.39a1.38,1.38,0,0,1-2,0l-1.6-1.59a.65.65,0,0,1-.1-.15.47.47,0,0,1,.1-.51.44.44,0,0,1,.33-.13.42.42,0,0,1,.32.13l1.6,1.61a.48.48,0,0,0,.66,0l3.38-3.39a.65.65,0,0,1,.15-.1.47.47,0,0,1,.51.1.46.46,0,0,1,0,.64Z"/></g></g></g></svg>