<svg xmlns="http://www.w3.org/2000/svg" viewBox="0 0 24 24"><defs><style>.cls-1{fill:none;}.cls-2{fill:#744cc6;}</style></defs><g id="Слой_2" data-name="Слой 2"><g id="Duotone"><g id="Add_Line_Duotone" data-name="Add/Line/Duotone"><rect class="cls-1" width="24" height="24"/><path class="cls-2" d="M20.77,12a.47.47,0,0,1-.14.33.46.46,0,0,1-.32.13H12.46v7.85a.46.46,0,0,1-.13.32.46.46,0,0,1-.66,0,.46.46,0,0,1-.13-.32V12.46H3.69a.46.46,0,0,1-.32-.13.46.46,0,0,1,0-.66.46.46,0,0,1,.32-.13h7.85V3.69a.46.46,0,0,1,.13-.32.46.46,0,0,1,.66,0,.46.46,0,0,1,.13.32v7.85h7.85a.46.46,0,0,1,.32.13A.47.47,0,0,1,20.77,12Z"/></g></g></g></svg>