<svg xmlns="http://www.w3.org/2000/svg" viewBox="0 0 24 24"><defs><style>.cls-1{fill:none;}.cls-2,.cls-3{fill:#744cc6;}.cls-3{fill-opacity:0.5;}</style></defs><g id="Слой_2" data-name="Слой 2"><g id="Duotone"><g id="AlarmClock_Duotone" data-name="AlarmClock/Duotone"><rect class="cls-1" width="24" height="24"/><path class="cls-2" d="M19.62,10.58a7.6,7.6,0,0,0-.3-.92A7.75,7.75,0,0,0,17.58,7a7.87,7.87,0,0,0-2.67-1.78,7.6,7.6,0,0,0-.92-.3,7.9,7.9,0,0,0-4,0A6,6,0,0,0,9,5.2,7.88,7.88,0,0,0,4.68,9.68a6.13,6.13,0,0,0-.29.92,8.1,8.1,0,0,0-.23,1.9,7.85,7.85,0,1,0,15.69,0A8.27,8.27,0,0,0,19.62,10.58Zm-2,1.85H12.85a1.4,1.4,0,0,1-1-.41,1.42,1.42,0,0,1-.4-1V8.78a.46.46,0,1,1,.92,0V11a.45.45,0,0,0,.14.33.43.43,0,0,0,.32.14h4.79a.44.44,0,0,1,.33.13.45.45,0,0,1,.14.33.43.43,0,0,1-.14.32A.45.45,0,0,1,17.64,12.43Z"/><path class="cls-3" d="M20.88,6.92A3.21,3.21,0,0,1,20.07,9a8.9,8.9,0,0,0-4.52-4.62A3.22,3.22,0,0,1,19,4a3.2,3.2,0,0,1,1.36,1.19,3.25,3.25,0,0,1,.52,1.74Z"/><path class="cls-3" d="M8.45,4.47A8.75,8.75,0,0,0,3.94,9a3.15,3.15,0,0,1-.82-2.12A3.23,3.23,0,0,1,6.35,3.69,3.18,3.18,0,0,1,8.45,4.47Z"/></g></g></g></svg>