<svg xmlns="http://www.w3.org/2000/svg" viewBox="0 0 24 24"><defs><style>.cls-1{fill:none;}.cls-2,.cls-3{fill:#744cc6;}.cls-3{fill-opacity:0.5;}</style></defs><g id="Слой_2" data-name="Слой 2"><g id="Duotone"><g id="Apps_Duotone" data-name="Apps/Duotone"><rect class="cls-1" width="24" height="24"/><path class="cls-2" d="M9.72,4H5.1A1.38,1.38,0,0,0,3.72,5.4V10A1.38,1.38,0,0,0,5.1,11.4H9.72A1.38,1.38,0,0,0,11.1,10V5.4A1.38,1.38,0,0,0,9.72,4Z"/><path class="cls-3" d="M20.28,5.4V10a1.37,1.37,0,0,1-.4,1,1.39,1.39,0,0,1-1,.41H14.28a1.42,1.42,0,0,1-1-.41,1.37,1.37,0,0,1-.4-1V5.4a1.38,1.38,0,0,1,.4-1,1.41,1.41,0,0,1,1-.4H18.9A1.37,1.37,0,0,1,20.28,5.4Z"/><path class="cls-3" d="M11.1,14V18.6a1.39,1.39,0,0,1-.41,1,1.37,1.37,0,0,1-1,.4H5.1A1.37,1.37,0,0,1,3.72,18.6V14a1.37,1.37,0,0,1,.4-1,1.39,1.39,0,0,1,1-.41H9.72A1.4,1.4,0,0,1,11.1,14Z"/><path class="cls-2" d="M20.28,14V18.6A1.37,1.37,0,0,1,18.9,20H14.28a1.41,1.41,0,0,1-1-.4,1.38,1.38,0,0,1-.4-1V14a1.4,1.4,0,0,1,1.38-1.38H18.9a1.39,1.39,0,0,1,1,.41A1.37,1.37,0,0,1,20.28,14Z"/></g></g></g></svg>