<svg xmlns="http://www.w3.org/2000/svg" viewBox="0 0 24 24"><defs><style>.cls-1{fill:none;}.cls-2{fill:#744cc6;}</style></defs><g id="Слой_2" data-name="Слой 2"><g id="Duotone"><g id="Arrow_Up_Duotone" data-name="Arrow/Up/Duotone"><rect class="cls-1" width="24" height="24"/><path class="cls-2" d="M15.09,7.17a.51.51,0,0,1-.33.13.47.47,0,0,1-.17,0,.4.4,0,0,1-.15-.1l-2-2V19.92a.48.48,0,0,1-.47.47.48.48,0,0,1-.46-.47V5.16l-2,2a.48.48,0,0,1-.66,0A.49.49,0,0,1,8.8,7a.55.55,0,0,1,0-.36.65.65,0,0,1,.1-.15l2.77-2.76A.5.5,0,0,1,12,3.61a.51.51,0,0,1,.34.13l2.77,2.77a.51.51,0,0,1,.09.16.32.32,0,0,1,0,.17.34.34,0,0,1,0,.18A.4.4,0,0,1,15.09,7.17Z"/></g></g></g></svg>