<svg xmlns="http://www.w3.org/2000/svg" viewBox="0 0 24 24"><defs><style>.cls-1{fill:none;}.cls-2,.cls-3{fill:#744cc6;}.cls-3{fill-opacity:0.5;}</style></defs><g id="Слой_2" data-name="Слой 2"><g id="Duotone"><g id="Arrows_Vertical_Duotone" data-name="Arrows/Vertical/Duotone"><rect class="cls-1" width="24" height="24"/><path class="cls-2" d="M11,7.17a.47.47,0,0,1-.33.14.33.33,0,0,1-.17,0,.31.31,0,0,1-.15-.1l-1.94-2V19.93a.44.44,0,0,1-.46.46.48.48,0,0,1-.46-.46V5.16l-2,2a.46.46,0,0,1-.66,0A.4.4,0,0,1,4.75,7a.47.47,0,0,1,0-.17.53.53,0,0,1,0-.18.4.4,0,0,1,.1-.15L7.62,3.73a.51.51,0,0,1,.66,0l2.77,2.77a.31.31,0,0,1,.1.15.57.57,0,0,1,0,.18.33.33,0,0,1,0,.17A.56.56,0,0,1,11,7.17Z"/><path class="cls-3" d="M13,16.82a.48.48,0,0,1,.34-.13.47.47,0,0,1,.17,0,.49.49,0,0,1,.14.11l2,2V4.06a.47.47,0,0,1,.14-.33.49.49,0,0,1,.33-.13.45.45,0,0,1,.32.14.47.47,0,0,1,.14.32V18.83l2-2a.47.47,0,0,1,.33-.14.45.45,0,0,1,.32.14.4.4,0,0,1,.1.15.47.47,0,0,1,0,.17.53.53,0,0,1,0,.18.4.4,0,0,1-.1.15l-2.77,2.77a.45.45,0,0,1-.14.1l-.17,0a.52.52,0,0,1-.18,0,.54.54,0,0,1-.16-.1L13,17.5a.49.49,0,0,1-.1-.15.47.47,0,0,1,0-.38A.49.49,0,0,1,13,16.82Z"/></g></g></g></svg>