<svg xmlns="http://www.w3.org/2000/svg" viewBox="0 0 24 24"><defs><style>.cls-1{fill:none;}.cls-2{fill:#744cc6;}</style></defs><g id="Слой_2" data-name="Слой 2"><g id="Duotone"><g id="Arrow_Round_Duotone" data-name="Arrow/Round//Duotone"><rect class="cls-1" width="24" height="24"/><path class="cls-2" d="M20.77,13.34a8.77,8.77,0,0,1-17.54,0A8.28,8.28,0,0,1,5.07,7.9l.15-.15a4.69,4.69,0,0,1,.47-.53.45.45,0,0,1,.3,0,.49.49,0,0,1,.27.15.44.44,0,0,1,.11.29.48.48,0,0,1-.09.29L6.17,8l-.29.35a7.74,7.74,0,0,0-1.77,4.95,7.86,7.86,0,1,0,14.35-4.4,7.87,7.87,0,0,0-8.6-3.16l2.49,1.3a.47.47,0,0,1,.2.22.44.44,0,0,1,0,.3.47.47,0,0,1-.16.25.48.48,0,0,1-.28.1.37.37,0,0,1-.21-.06L8.65,6.2a.44.44,0,0,1-.15-.12c0-.06-.11-.12-.12-.17a.74.74,0,0,1,0-.25.43.43,0,0,1,.07-.25l1.71-3.28a.46.46,0,0,1,.27-.22.45.45,0,0,1,.34,0,.58.58,0,0,1,.15.11.8.8,0,0,1,.08.16.37.37,0,0,1,0,.18.34.34,0,0,1-.05.17L9.74,4.88A8.66,8.66,0,0,1,12,4.58a8.79,8.79,0,0,1,8.77,8.76Z"/></g></g></g></svg>