<svg xmlns="http://www.w3.org/2000/svg" viewBox="0 0 24 24"><defs><style>.cls-1{fill:none;}.cls-2,.cls-3{fill:#744cc6;}.cls-3{fill-opacity:0.5;}</style></defs><g id="Слой_2" data-name="Слой 2"><g id="Duotone"><g id="Arrows_Horizontal_Duotone" data-name="Arrows/Horizontal/Duotone"><rect class="cls-1" width="24" height="24"/><path class="cls-2" d="M16.83,11a.46.46,0,0,1-.13-.33.33.33,0,0,1,0-.17.31.31,0,0,1,.1-.15l2-2H4.06a.57.57,0,0,1-.18,0,.42.42,0,0,1-.15-.11.4.4,0,0,1-.1-.15.58.58,0,0,1,0-.19.45.45,0,0,1,.14-.32.47.47,0,0,1,.32-.14H18.83l-2-1.95a.46.46,0,0,1,0-.66.4.4,0,0,1,.15-.1.47.47,0,0,1,.17,0,.53.53,0,0,1,.18,0,.4.4,0,0,1,.15.1l2.77,2.77a.48.48,0,0,1,0,.66L17.5,11a.33.33,0,0,1-.15.11.58.58,0,0,1-.19,0l-.18,0A.58.58,0,0,1,16.83,11Z"/><path class="cls-3" d="M7.2,13a.51.51,0,0,1,.13.33.33.33,0,0,1,0,.17.4.4,0,0,1-.1.15l-2,2H19.94a.46.46,0,0,1,.33.13.49.49,0,0,1,.13.33.45.45,0,0,1-.14.32.43.43,0,0,1-.32.14H5.17l2,2a.48.48,0,0,1,0,.66.4.4,0,0,1-.15.1.58.58,0,0,1-.18,0,.47.47,0,0,1-.17,0,.54.54,0,0,1-.16-.1L3.78,16.38a.44.44,0,0,1-.13-.32.47.47,0,0,1,.13-.34L6.54,13a.39.39,0,0,1,.16-.1.34.34,0,0,1,.18,0,.47.47,0,0,1,.17,0A.56.56,0,0,1,7.2,13Z"/></g></g></g></svg>