<svg xmlns="http://www.w3.org/2000/svg" viewBox="0 0 24 24"><defs><style>.cls-1{fill:none;}.cls-2{fill:#744cc6;}</style></defs><g id="Слой_2" data-name="Слой 2"><g id="Duotone"><g id="Arrow_Diagonal_Duotone" data-name="Arrow/Diagonal/Duotone"><rect class="cls-1" width="24" height="24"/><path class="cls-2" d="M10.78,6.4a.41.41,0,0,1-.14.31.49.49,0,0,1-.14.11l-.18,0H7.55L17.94,17.28a.72.72,0,0,1,.11.15.56.56,0,0,1,0,.36.53.53,0,0,1-.11.15.46.46,0,0,1-.32.13.49.49,0,0,1-.33-.13L6.85,7.5v2.77a.47.47,0,0,1-.8.32.46.46,0,0,1-.13-.32V6.4a.41.41,0,0,1,.14-.31.48.48,0,0,1,.32-.15h3.94a.47.47,0,0,1,.33.14A.51.51,0,0,1,10.78,6.4Z"/></g></g></g></svg>