<svg xmlns="http://www.w3.org/2000/svg" viewBox="0 0 24 24"><defs><style>.cls-1{fill:none;}.cls-2{fill:#744cc6;}</style></defs><g id="Слой_2" data-name="Слой 2"><g id="Duotone"><g id="Arrow_Right_Duotone" data-name="Arrow/Right/Duotone"><rect class="cls-1" width="24" height="24"/><path class="cls-2" d="M16.82,15.08a.42.42,0,0,1-.13-.32.39.39,0,0,1,0-.18.33.33,0,0,1,.1-.14l2-2H4.06A.44.44,0,0,1,3.6,12a.48.48,0,0,1,.46-.46H18.83l-2-2a.43.43,0,0,1-.14-.32.45.45,0,0,1,.14-.33A.31.31,0,0,1,17,8.8a.33.33,0,0,1,.17,0,.39.39,0,0,1,.18,0,.31.31,0,0,1,.15.1l2.77,2.77a.46.46,0,0,1,.13.32.51.51,0,0,1-.13.33L17.5,15.09a.39.39,0,0,1-.15.11.43.43,0,0,1-.19,0,.58.58,0,0,1-.19,0A.44.44,0,0,1,16.82,15.08Z"/></g></g></g></svg>