<svg xmlns="http://www.w3.org/2000/svg" viewBox="0 0 24 24"><defs><style>.cls-1{fill:none;}.cls-2,.cls-3{fill:#744cc6;}.cls-3{fill-opacity:0.5;}</style></defs><g id="Слой_2" data-name="Слой 2"><g id="Duotone"><g id="Attach_Duotone" data-name="Attach/Duotone"><rect class="cls-1" width="24" height="24"/><path class="cls-2" d="M18,15l-3.32-3.3A3.19,3.19,0,0,0,15,9.8a3.13,3.13,0,0,0-.89-1.75L10.26,4.24a3.15,3.15,0,0,0-2.19-.81A3.18,3.18,0,0,0,5,6.51,3.15,3.15,0,0,0,5.8,8.7L9.13,12a3.15,3.15,0,0,0,.57,3.69l3.8,3.8a3.21,3.21,0,0,0,1,.76,3.51,3.51,0,0,0,1.24.29A3.18,3.18,0,0,0,19,17.33a3.31,3.31,0,0,0-.29-1.24,3.21,3.21,0,0,0-.76-1Zm-4.52-3.22a2.22,2.22,0,0,1-3.09.07,2.22,2.22,0,0,1,1.53-.65A2.29,2.29,0,0,1,13.44,11.82ZM8,6a1.3,1.3,0,0,1-.1-.15.55.55,0,0,1,0-.36A.56.56,0,0,1,8,5.37a.51.51,0,0,1,.33-.13.48.48,0,0,1,.32.13l2.87,2.87a.4.4,0,0,1,.1.15.43.43,0,0,1,0,.36.65.65,0,0,1-.1.15.49.49,0,0,1-.33.13.46.46,0,0,1-.32-.13Zm9.34,12.83a2.37,2.37,0,0,1-.73.48,2.22,2.22,0,0,1-.85.17,2.26,2.26,0,0,1-.85-.17,2.22,2.22,0,0,1-.72-.48L10.35,15a2.18,2.18,0,0,1-.61-1.11,2.21,2.21,0,0,1,.1-1.27,3.12,3.12,0,0,0,2.15.72,3.15,3.15,0,0,0,2.08-.91l3.21,3.22A2.28,2.28,0,0,1,18,17.27,2.31,2.31,0,0,1,17.31,18.86Z"/><path class="cls-3" d="M11.49,8.9a.49.49,0,0,1-.33.13.46.46,0,0,1-.32-.13L8,6a1.3,1.3,0,0,1-.1-.15.55.55,0,0,1,0-.36A.56.56,0,0,1,8,5.37a.51.51,0,0,1,.33-.13.48.48,0,0,1,.32.13l2.87,2.87a.4.4,0,0,1,.1.15.43.43,0,0,1,0,.36A.65.65,0,0,1,11.49,8.9Z"/></g></g></g></svg>