<svg xmlns="http://www.w3.org/2000/svg" viewBox="0 0 24 24"><defs><style>.cls-1{fill:none;}.cls-2,.cls-3{fill:#744cc6;}.cls-3{fill-opacity:0.5;}</style></defs><g id="Слой_2" data-name="Слой 2"><g id="Duotone"><g id="Attention_Duotone" data-name="Attention/Duotone"><rect class="cls-1" width="24" height="24"/><path class="cls-2" d="M21.06,18.74,13.22,4a1.38,1.38,0,0,0-2.45,0L2.93,18.74a1.24,1.24,0,0,0-.16.68,1.28,1.28,0,0,0,.2.68,1.37,1.37,0,0,0,1.18.67h15.7a1.36,1.36,0,0,0,.68-.18,1.38,1.38,0,0,0,.5-.49,1.28,1.28,0,0,0,.2-.68,1.34,1.34,0,0,0-.16-.68Zm-9.52-7.66a.46.46,0,1,1,.92,0v3.69a.46.46,0,0,1-.13.32.46.46,0,0,1-.66,0,.46.46,0,0,1-.13-.32ZM12,18a.93.93,0,0,1-.51-.16.91.91,0,0,1-.34-.41.89.89,0,0,1,.2-1,.94.94,0,0,1,.47-.25.88.88,0,0,1,.53,0,.9.9,0,0,1,.57.86.91.91,0,0,1-.27.65A.93.93,0,0,1,12,18Z"/><path class="cls-3" d="M12,18a.93.93,0,1,0-.92-.92A.92.92,0,0,0,12,18Z"/><path class="cls-3" d="M12.46,11.08v3.69a.46.46,0,0,1-.13.32.46.46,0,0,1-.66,0,.46.46,0,0,1-.13-.32V11.08a.46.46,0,0,1,.46-.47.39.39,0,0,1,.18,0,.65.65,0,0,1,.15.1.56.56,0,0,1,.1.15A.48.48,0,0,1,12.46,11.08Z"/></g></g></g></svg>