<svg xmlns="http://www.w3.org/2000/svg" viewBox="0 0 24 24"><defs><style>.cls-1{fill:none;}.cls-2,.cls-3{fill:#744cc6;}.cls-3{fill-opacity:0.5;}</style></defs><g id="Слой_2" data-name="Слой 2"><g id="Duotone"><g id="Back_Duotone" data-name="Back/Duotone"><rect class="cls-1" width="24" height="24"/><path class="cls-2" d="M18.46,3.23H5.54A2.32,2.32,0,0,0,3.23,5.54V18.46a2.32,2.32,0,0,0,2.31,2.31H18.46a2.32,2.32,0,0,0,2.31-2.31V5.54a2.32,2.32,0,0,0-2.31-2.31ZM13.64,14.94a.46.46,0,0,1,.09.15.55.55,0,0,1,0,.18.49.49,0,0,1-.06.17.3.3,0,0,1-.11.14.44.44,0,0,1-.29.11.65.65,0,0,1-.2,0l-.16-.13-2.52-3.06a.74.74,0,0,1,0-.92l2.52-3.06a.47.47,0,0,1,.65-.06.3.3,0,0,1,.11.14.49.49,0,0,1,.06.17.55.55,0,0,1,0,.18.51.51,0,0,1-.09.16L11.22,12Z"/><path class="cls-3" d="M13.64,14.94a.46.46,0,0,1,.09.15.55.55,0,0,1,0,.18.49.49,0,0,1-.06.17.3.3,0,0,1-.11.14.44.44,0,0,1-.29.11.65.65,0,0,1-.2,0l-.16-.13-2.52-3.06a.74.74,0,0,1,0-.92l2.52-3.06a.47.47,0,0,1,.65-.06.3.3,0,0,1,.11.14.49.49,0,0,1,.06.17.55.55,0,0,1,0,.18.51.51,0,0,1-.09.16L11.22,12Z"/></g></g></g></svg>