<svg xmlns="http://www.w3.org/2000/svg" viewBox="0 0 24 24"><defs><style>.cls-1{fill:none;}.cls-2,.cls-3{fill:#744cc6;}.cls-3{fill-opacity:0.5;}</style></defs><g id="Слой_2" data-name="Слой 2"><g id="Duotone"><g id="Back_Fast_Duotone" data-name="Back/Fast/Duotone"><rect class="cls-1" width="24" height="24"/><path class="cls-2" d="M12,20.77A8.77,8.77,0,0,0,13.71,3.4,8.77,8.77,0,1,0,12,20.77Zm.45-9.23L15,8.47a.48.48,0,0,1,.16-.12.41.41,0,0,1,.19,0,.44.44,0,0,1,.46.41.48.48,0,0,1-.1.35L13.27,12l2.42,2.93a.49.49,0,0,1,.11.35.53.53,0,0,1-.17.31.43.43,0,0,1-.34.1.47.47,0,0,1-.32-.16l-2.52-3.07a.74.74,0,0,1,0-.92Zm-4.08,0L10.9,8.47a.48.48,0,0,1,.16-.12.41.41,0,0,1,.19,0,.47.47,0,0,1,.3.1.48.48,0,0,1,.17.31.5.5,0,0,1-.09.35L9.21,12l2.42,2.93a.56.56,0,0,1,.09.17.55.55,0,0,1,0,.18.61.61,0,0,1-.05.18.53.53,0,0,1-.12.14.5.5,0,0,1-.35.1L11,15.64a.49.49,0,0,1-.14-.11L8.37,12.46a.74.74,0,0,1,0-.92Z"/><path class="cls-3" d="M8.37,11.54,10.9,8.47a.48.48,0,0,1,.16-.12.41.41,0,0,1,.19,0,.47.47,0,0,1,.3.1.48.48,0,0,1,.17.31.5.5,0,0,1-.09.35L9.21,12l2.42,2.93a.56.56,0,0,1,.09.17.55.55,0,0,1,0,.18.61.61,0,0,1-.05.18.53.53,0,0,1-.12.14.5.5,0,0,1-.35.1L11,15.64a.49.49,0,0,1-.14-.11L8.37,12.46a.74.74,0,0,1,0-.92Z"/><path class="cls-3" d="M12.45,11.54,15,8.47a.48.48,0,0,1,.16-.12.41.41,0,0,1,.19,0,.44.44,0,0,1,.46.41.48.48,0,0,1-.1.35L13.27,12l2.42,2.93a.49.49,0,0,1,.11.35.53.53,0,0,1-.17.31.43.43,0,0,1-.34.1.47.47,0,0,1-.32-.16l-2.52-3.07a.74.74,0,0,1,0-.92Z"/></g></g></g></svg>