<svg xmlns="http://www.w3.org/2000/svg" viewBox="0 0 24 24"><defs><style>.cls-1{fill:none;}.cls-2,.cls-3{fill:#744cc6;}.cls-3{fill-opacity:0.5;}</style></defs><g id="Слой_2" data-name="Слой 2"><g id="Duotone"><g id="Basket_Closed_Duotone" data-name="Basket/Closed/Duotone"><rect class="cls-1" width="24" height="24"/><path class="cls-2" d="M22.32,19.68,20,14.25a2.67,2.67,0,0,0-2.1-4.83L15.51,4a.59.59,0,0,0-.1-.17.33.33,0,0,0-.15-.11.45.45,0,0,0-.19,0,.58.58,0,0,0-.19,0,.61.61,0,0,0-.16.12.46.46,0,0,0-.11.35.33.33,0,0,0,.06.19l.27.64H1.63V18a2.42,2.42,0,0,0,.17.88,2.45,2.45,0,0,0,.5.76,2.52,2.52,0,0,0,.75.5,2.28,2.28,0,0,0,.89.18h9.6A2.32,2.32,0,0,0,15.85,18v-11L17,9.75l2.13,4.91,2.34,5.39a.55.55,0,0,0,.17.2.46.46,0,0,0,.25.08.43.43,0,0,0,.22,0,.42.42,0,0,0,.13-.07.54.54,0,0,0,.1-.16.68.68,0,0,0,0-.19A.59.59,0,0,0,22.32,19.68Zm-15.93-3a.45.45,0,0,1-.14.33.44.44,0,0,1-.33.13A.42.42,0,0,1,5.6,17a.45.45,0,0,1-.14-.33V8.34A.45.45,0,0,1,5.6,8a.43.43,0,0,1,.32-.14.48.48,0,0,1,.47.47Zm2.81,0a.49.49,0,0,1-.13.33.48.48,0,0,1-.66,0,.49.49,0,0,1-.13-.33V8.34A.49.49,0,0,1,8.41,8a.46.46,0,0,1,.66,0,.49.49,0,0,1,.13.33Zm2.83,0a.45.45,0,0,1-.14.33.44.44,0,0,1-.32.13.43.43,0,0,1-.33-.13.45.45,0,0,1-.14-.33V8.34A.45.45,0,0,1,11.24,8a.44.44,0,0,1,.33-.14.45.45,0,0,1,.32.14.45.45,0,0,1,.14.33Z"/><path class="cls-3" d="M12,8.34v8.3a.45.45,0,0,1-.14.33.44.44,0,0,1-.32.13.43.43,0,0,1-.33-.13.45.45,0,0,1-.14-.33V8.34A.45.45,0,0,1,11.24,8a.44.44,0,0,1,.33-.14.45.45,0,0,1,.32.14A.45.45,0,0,1,12,8.34Z"/><path class="cls-3" d="M9.2,8.34v8.3a.49.49,0,0,1-.13.33.48.48,0,0,1-.66,0,.49.49,0,0,1-.13-.33V8.34A.49.49,0,0,1,8.41,8a.46.46,0,0,1,.66,0A.49.49,0,0,1,9.2,8.34Z"/><path class="cls-3" d="M6.39,8.34v8.3a.45.45,0,0,1-.14.33.44.44,0,0,1-.33.13A.42.42,0,0,1,5.6,17a.45.45,0,0,1-.14-.33V8.34A.45.45,0,0,1,5.6,8a.43.43,0,0,1,.32-.14.48.48,0,0,1,.47.47Z"/></g></g></g></svg>