<svg xmlns="http://www.w3.org/2000/svg" viewBox="0 0 24 24"><defs><style>.cls-1{fill:none;}.cls-2,.cls-3{fill:#744cc6;}.cls-3{fill-opacity:0.5;}</style></defs><g id="Слой_2" data-name="Слой 2"><g id="Duotone"><g id="Basket_Open_Duotone" data-name="Basket/Open/Duotone"><rect class="cls-1" width="24" height="24"/><path class="cls-2" d="M19.86,5.45H14.64a2.62,2.62,0,0,0-.9-1.59A2.67,2.67,0,0,0,9.38,5.45H4.17a.47.47,0,0,0-.33.14.46.46,0,0,0-.13.32.51.51,0,0,0,.13.33.58.58,0,0,0,.33.14h.74V18.47a2.32,2.32,0,0,0,.67,1.62,2.3,2.3,0,0,0,1.61.68h9.6a2.29,2.29,0,0,0,2.3-2.3V6.38h.74a.45.45,0,0,0,.33-.14.51.51,0,0,0,.13-.33.43.43,0,0,0-.12-.31A.46.46,0,0,0,19.86,5.45ZM9.71,17.07a.47.47,0,0,1-.14.33.44.44,0,0,1-.33.13.44.44,0,0,1-.32-.13.47.47,0,0,1-.14-.33V8.76a.48.48,0,0,1,.46-.46.45.45,0,0,1,.33.14.45.45,0,0,1,.14.32Zm2.77,0a.47.47,0,0,1-.14.33.44.44,0,0,1-.33.13.42.42,0,0,1-.32-.13.47.47,0,0,1-.14-.33V8.76a.45.45,0,0,1,.14-.32A.43.43,0,0,1,12,8.3a.45.45,0,0,1,.33.14.45.45,0,0,1,.14.32Zm2.76,0a.46.46,0,0,1-.13.33.44.44,0,0,1-.33.13.42.42,0,0,1-.32-.13.47.47,0,0,1-.14-.33V8.76a.45.45,0,0,1,.14-.32.43.43,0,0,1,.32-.14.45.45,0,0,1,.33.14.44.44,0,0,1,.13.32Z"/><path class="cls-3" d="M15.24,8.76v8.31a.46.46,0,0,1-.13.33.44.44,0,0,1-.33.13.42.42,0,0,1-.32-.13.47.47,0,0,1-.14-.33V8.76a.45.45,0,0,1,.14-.32.43.43,0,0,1,.32-.14.45.45,0,0,1,.33.14A.44.44,0,0,1,15.24,8.76Z"/><path class="cls-3" d="M12.48,8.76v8.31a.47.47,0,0,1-.14.33.44.44,0,0,1-.33.13.42.42,0,0,1-.32-.13.47.47,0,0,1-.14-.33V8.76a.45.45,0,0,1,.14-.32A.43.43,0,0,1,12,8.3a.45.45,0,0,1,.33.14A.45.45,0,0,1,12.48,8.76Z"/><path class="cls-3" d="M9.71,8.76v8.31a.47.47,0,0,1-.14.33.44.44,0,0,1-.33.13.44.44,0,0,1-.32-.13.47.47,0,0,1-.14-.33V8.76a.48.48,0,0,1,.46-.46.45.45,0,0,1,.33.14A.45.45,0,0,1,9.71,8.76Z"/></g></g></g></svg>