<svg xmlns="http://www.w3.org/2000/svg" viewBox="0 0 24 24"><defs><style>.cls-1{fill:none;}.cls-2,.cls-3{fill:#744cc6;}.cls-2{fill-opacity:0.5;}</style></defs><g id="Слой_2" data-name="Слой 2"><g id="Duotone"><g id="Battery_Discharged_Duotone" data-name="Battery/Discharged/Duotone"><rect class="cls-1" width="24" height="24"/><path class="cls-2" d="M21.09,9.23h-2V8.31a2.28,2.28,0,0,0-.68-1.63A2.3,2.3,0,0,0,16.75,6H3.83A2.32,2.32,0,0,0,1.52,8.31v7.38a2.32,2.32,0,0,0,.68,1.63A2.28,2.28,0,0,0,3.83,18H16.75a2.3,2.3,0,0,0,2.31-2.31v-.92h2a1.4,1.4,0,0,0,1.39-1.39V10.61a1.4,1.4,0,0,0-1.39-1.38ZM7.44,13a.4.4,0,0,1,.1.15.48.48,0,0,1,0,.18.47.47,0,0,1,0,.17.4.4,0,0,1-.1.15.42.42,0,0,1-.15.11.47.47,0,0,1-.17,0l-.18,0a.53.53,0,0,1-.15-.11l-1-1-1,1a.42.42,0,0,1-.15.11.51.51,0,0,1-.17,0,.48.48,0,0,1-.18,0,.42.42,0,0,1-.15-.11.4.4,0,0,1-.1-.15.47.47,0,0,1,0-.17.48.48,0,0,1,0-.18.4.4,0,0,1,.1-.15l1-1-1-1a.4.4,0,0,1-.1-.15.5.5,0,0,1,0-.34.4.4,0,0,1,.1-.15.45.45,0,0,1,.33-.14.35.35,0,0,1,.17,0,.4.4,0,0,1,.15.1l1,1,1-1a.45.45,0,0,1,.32-.14.47.47,0,0,1,.33.14.46.46,0,0,1,0,.64l-1,1Z"/><path class="cls-3" d="M7.44,13a.4.4,0,0,1,.1.15.48.48,0,0,1,0,.18.47.47,0,0,1,0,.17.4.4,0,0,1-.1.15.42.42,0,0,1-.15.11.47.47,0,0,1-.17,0l-.18,0a.53.53,0,0,1-.15-.11l-1-1-1,1a.42.42,0,0,1-.15.11.52.52,0,0,1-.18,0,.47.47,0,0,1-.17,0,.42.42,0,0,1-.15-.11.4.4,0,0,1-.1-.15.47.47,0,0,1,0-.17.48.48,0,0,1,0-.18.4.4,0,0,1,.1-.15l1-1-1-1a.4.4,0,0,1-.1-.15.5.5,0,0,1,0-.34.4.4,0,0,1,.1-.15.45.45,0,0,1,.32-.14.39.39,0,0,1,.18,0,.31.31,0,0,1,.15.1l1,1,1-1a.45.45,0,0,1,.32-.14.47.47,0,0,1,.33.14.46.46,0,0,1,0,.64l-1,1Z"/></g></g></g></svg>