<svg xmlns="http://www.w3.org/2000/svg" viewBox="0 0 24 24"><defs><style>.cls-1{fill:none;}.cls-2,.cls-3{fill:#744cc6;}.cls-3{fill-opacity:0.5;}</style></defs><g id="Слой_2" data-name="Слой 2"><g id="Duotone"><g id="Battery_Duotone" data-name="Battery/Duotone"><rect class="cls-1" width="24" height="24"/><path class="cls-2" d="M21.09,9.23h-2V8.31A2.3,2.3,0,0,0,16.75,6H3.83a2.28,2.28,0,0,0-1.63.68,2.32,2.32,0,0,0-.68,1.63v7.38a2.32,2.32,0,0,0,.68,1.63A2.28,2.28,0,0,0,3.83,18H16.75a2.3,2.3,0,0,0,2.31-2.31v-.92h2a1.4,1.4,0,0,0,1.39-1.39V10.61a1.4,1.4,0,0,0-1.39-1.38ZM5.77,14.09a.48.48,0,0,1-.46.46A.47.47,0,0,1,5,14.41a.42.42,0,0,1-.13-.32V9.91A.42.42,0,0,1,5,9.59a.47.47,0,0,1,.33-.14.48.48,0,0,1,.46.46Zm3.32,0a.46.46,0,0,1-.13.32.46.46,0,0,1-.66,0,.46.46,0,0,1-.13-.32V9.91a.46.46,0,0,1,.13-.32.46.46,0,0,1,.66,0,.46.46,0,0,1,.13.32Zm3.32,0a.43.43,0,0,1-.14.32.45.45,0,0,1-.33.14.48.48,0,0,1-.46-.46V9.91a.48.48,0,0,1,.46-.46.45.45,0,0,1,.33.14.43.43,0,0,1,.14.32Zm3.32,0a.48.48,0,0,1-.46.46.47.47,0,0,1-.33-.14.42.42,0,0,1-.13-.32V9.91a.42.42,0,0,1,.13-.32.47.47,0,0,1,.33-.14.48.48,0,0,1,.46.46Z"/><path class="cls-3" d="M15.73,9.91v4.18a.48.48,0,0,1-.46.46.47.47,0,0,1-.33-.14.42.42,0,0,1-.13-.32V9.91a.42.42,0,0,1,.13-.32.47.47,0,0,1,.33-.14.48.48,0,0,1,.46.46Z"/><path class="cls-3" d="M12.42,9.91v4.18a.44.44,0,0,1-.15.32.48.48,0,0,1-.68,0,.43.43,0,0,1-.14-.32V9.91a.43.43,0,0,1,.14-.32.48.48,0,0,1,.68,0A.44.44,0,0,1,12.42,9.91Z"/><path class="cls-3" d="M9.09,9.91v4.18a.46.46,0,0,1-.13.32.46.46,0,0,1-.66,0,.46.46,0,0,1-.13-.32V9.91a.46.46,0,0,1,.13-.32.46.46,0,0,1,.66,0A.46.46,0,0,1,9.09,9.91Z"/><path class="cls-3" d="M5.77,9.91v4.18a.48.48,0,0,1-.46.46A.47.47,0,0,1,5,14.41a.42.42,0,0,1-.13-.32V9.91A.42.42,0,0,1,5,9.59a.47.47,0,0,1,.33-.14.48.48,0,0,1,.46.46Z"/></g></g></g></svg>