<svg xmlns="http://www.w3.org/2000/svg" viewBox="0 0 24 24"><defs><style>.cls-1{fill:none;}.cls-2,.cls-3{fill:#744cc6;}.cls-3{fill-opacity:0.5;}</style></defs><g id="Слой_2" data-name="Слой 2"><g id="Duotone"><g id="Battery_Charging_Duotone" data-name="Battery/Charging/Duotone"><rect class="cls-1" width="24" height="24"/><path class="cls-2" d="M21.1,9.23h-2V8.31A2.32,2.32,0,0,0,16.75,6H3.83a2.32,2.32,0,0,0-1.63.68,2.28,2.28,0,0,0-.68,1.63v7.38a2.28,2.28,0,0,0,.68,1.63A2.32,2.32,0,0,0,3.83,18H16.75a2.28,2.28,0,0,0,1.63-.68,2.32,2.32,0,0,0,.68-1.63v-.92h2a1.4,1.4,0,0,0,1-.41,1.38,1.38,0,0,0,.4-1V10.61a1.37,1.37,0,0,0-.4-1A1.4,1.4,0,0,0,21.1,9.23ZM7.34,12.11a.39.39,0,0,1-.17.21.52.52,0,0,1-.25.07H5.39l1.26,1.26a.48.48,0,0,1,0,.66.52.52,0,0,1-.32.14A.44.44,0,0,1,6,14.31L4,12.25A.36.36,0,0,1,3.82,12a.42.42,0,0,1,0-.27A.47.47,0,0,1,4,11.54a.5.5,0,0,1,.26-.08H5.85L4.71,10.28a.56.56,0,0,1-.1-.15.48.48,0,0,1,0-.18.47.47,0,0,1,0-.17.56.56,0,0,1,.1-.15.36.36,0,0,1,.15-.1.37.37,0,0,1,.18,0,.35.35,0,0,1,.17,0,.31.31,0,0,1,.15.1l1.85,2a.55.55,0,0,1,.15.24A.45.45,0,0,1,7.34,12.11Z"/><path class="cls-3" d="M7.34,12.11a.42.42,0,0,1-.16.21.59.59,0,0,1-.26.07H5.39l1.26,1.26a.48.48,0,0,1,0,.66.52.52,0,0,1-.32.14A.44.44,0,0,1,6,14.31L4,12.25A.36.36,0,0,1,3.82,12a.42.42,0,0,1,0-.27A.47.47,0,0,1,4,11.54a.5.5,0,0,1,.26-.08H5.85L4.71,10.28a.56.56,0,0,1-.1-.15.48.48,0,0,1,0-.18.47.47,0,0,1,0-.17.56.56,0,0,1,.1-.15.36.36,0,0,1,.15-.1.37.37,0,0,1,.18,0,.35.35,0,0,1,.17,0,.31.31,0,0,1,.15.1l1.85,2a.55.55,0,0,1,.15.24A.45.45,0,0,1,7.34,12.11Z"/></g></g></g></svg>