<svg xmlns="http://www.w3.org/2000/svg" viewBox="0 0 24 24"><defs><style>.cls-1{fill:none;}.cls-2,.cls-3{fill:#744cc6;}.cls-3{fill-opacity:0.5;}</style></defs><g id="Слой_2" data-name="Слой 2"><g id="Duotone"><g id="Bell_Duotone" data-name="Bell/Duotone"><rect class="cls-1" width="24" height="24"/><path class="cls-2" d="M19.85,17.63h-.8v-7.3a7.11,7.11,0,1,0-14.21,0v7.3H4.15a.46.46,0,0,0-.32.13.46.46,0,0,0,0,.66.46.46,0,0,0,.32.13H9.31a2.73,2.73,0,0,0,.91,1.6,2.68,2.68,0,0,0,3.45,0,2.73,2.73,0,0,0,.91-1.6h5.27a.46.46,0,0,0,.32-.13.46.46,0,0,0,0-.66A.46.46,0,0,0,19.85,17.63Zm-2.64-1.39a.55.55,0,0,1-.14.32.45.45,0,0,1-.32.14.44.44,0,0,1-.33-.14.43.43,0,0,1-.14-.32V12.05a.45.45,0,0,1,.14-.32.44.44,0,0,1,.33-.14.49.49,0,0,1,.32.14.55.55,0,0,1,.14.32Z"/><path class="cls-3" d="M17.21,12.05v4.19a.55.55,0,0,1-.14.32.45.45,0,0,1-.32.14.44.44,0,0,1-.33-.14.43.43,0,0,1-.14-.32V12.05a.45.45,0,0,1,.14-.32.44.44,0,0,1,.33-.14.49.49,0,0,1,.32.14A.55.55,0,0,1,17.21,12.05Z"/></g></g></g></svg>