<svg xmlns="http://www.w3.org/2000/svg" viewBox="0 0 24 24"><defs><style>.cls-1{fill:none;}.cls-2,.cls-3{fill:#744cc6;}.cls-3{fill-opacity:0.5;}</style></defs><g id="Слой_2" data-name="Слой 2"><g id="Duotone"><g id="Bell_Off_Duotone" data-name="Bell/Off/Duotone"><rect class="cls-1" width="24" height="24"/><path class="cls-2" d="M20.31,17.62a.45.45,0,0,1-.14.33.45.45,0,0,1-.32.14H14.57a2.64,2.64,0,0,1-.9,1.59,2.69,2.69,0,0,1-1.73.63,2.64,2.64,0,0,1-1.72-.63,2.71,2.71,0,0,1-.91-1.59H4.15A.43.43,0,0,1,3.83,18a.45.45,0,0,1-.14-.33.45.45,0,0,1,.14-.32.55.55,0,0,1,.32-.14H5.77a.06.06,0,0,1,0-.06V9.87a6.07,6.07,0,0,1,.84-3.08L17,17.16h2.87a.48.48,0,0,1,.46.46Z"/><path class="cls-3" d="M18.13,9.87V17L7.13,6A6.24,6.24,0,0,1,9.27,4.3a5.9,5.9,0,0,1,2.67-.61,6.18,6.18,0,0,1,6.19,6.18Z"/></g></g></g></svg>