<svg xmlns="http://www.w3.org/2000/svg" viewBox="0 0 24 24"><defs><style>.cls-1{fill:none;}.cls-2,.cls-3{fill:#744cc6;}.cls-2{fill-opacity:0.5;}</style></defs><g id="Слой_2" data-name="Слой 2"><g id="Duotone"><g id="Binoculars_Duotone" data-name="Binoculars/Duotone"><rect class="cls-1" width="24" height="24"/><path class="cls-2" d="M6.46,19.85a2.31,2.31,0,1,0-2.31-2.31A2.31,2.31,0,0,0,6.46,19.85Z"/><path class="cls-2" d="M17.54,19.85a2.31,2.31,0,1,0-2.31-2.31A2.32,2.32,0,0,0,17.54,19.85Z"/><path class="cls-3" d="M19.21,4.15h-4V15.29a2.36,2.36,0,0,1,.42-.36,1.86,1.86,0,0,1,.35-.22.76.76,0,0,1,.18-.09l.16-.07.24-.09a2.91,2.91,0,0,1,.92-.15,3.15,3.15,0,0,1,1.25.26,3.07,3.07,0,0,1,1.06.72V4.81a.63.63,0,0,0-.18-.45A.68.68,0,0,0,19.21,4.15Zm-.56,6.94a.42.42,0,0,1-.13.32.45.45,0,0,1-.33.14.48.48,0,0,1-.46-.46V7.39a.48.48,0,0,1,.46-.46.45.45,0,0,1,.33.14.42.42,0,0,1,.13.32Z"/><path class="cls-3" d="M14.31,4.15H9.69v7.94h4.62Z"/><path class="cls-3" d="M8.78,4.15V15.29a3.07,3.07,0,0,0-1.06-.72,3.15,3.15,0,0,0-1.25-.26,2.91,2.91,0,0,0-.92.15l-.24.09a3,3,0,0,0-1.11.74V4.81a.53.53,0,0,1,0-.25.6.6,0,0,1,.14-.21A.62.62,0,0,1,4.6,4.2a.7.7,0,0,1,.25,0Z"/></g></g></g></svg>