<svg xmlns="http://www.w3.org/2000/svg" viewBox="0 0 24 24"><defs><style>.cls-1{fill:none;}.cls-2,.cls-3{fill:#744cc6;}.cls-2{fill-opacity:0.5;}</style></defs><g id="Слой_2" data-name="Слой 2"><g id="Duotone"><g id="Blood_Duotone" data-name="Blood/Duotone"><rect class="cls-1" width="24" height="24"/><path class="cls-2" d="M15.32,14.75a.59.59,0,0,1-.23.05.5.5,0,0,1-.26-.08.52.52,0,0,1-.17-.19l-1.6-3.19a.48.48,0,0,1-.05-.18A.57.57,0,0,1,13,11a.56.56,0,0,1,.1-.15.57.57,0,0,1,.16-.11.55.55,0,0,1,.38,0A.51.51,0,0,1,14,11l1.59,3.18a.47.47,0,0,1,0,.35A.44.44,0,0,1,15.32,14.75Z"/><path class="cls-3" d="M18,14a8.53,8.53,0,0,0-.65-1.9l-.37-.74L13.23,4a1.29,1.29,0,0,0-.5-.56A1.34,1.34,0,0,0,12,3.22,1.39,1.39,0,0,0,10.76,4L7.07,11.37q-.13.26-.33.69a11.21,11.21,0,0,0-.69,2,5.78,5.78,0,0,0,.76,3.79,6,6,0,0,0,1.57,1.76,6.1,6.1,0,0,0,2.12,1,6.54,6.54,0,0,0,1.53.19A6,6,0,0,0,18,14Zm-2.63.71a.39.39,0,0,1-.21.06.48.48,0,0,1-.24-.07.52.52,0,0,1-.17-.19L13.15,11.4a.33.33,0,0,1,0-.17.36.36,0,0,1,0-.18.51.51,0,0,1,.09-.16l.14-.11a.5.5,0,0,1,.36,0A.49.49,0,0,1,14,11l1.54,3.11a.45.45,0,0,1-.2.62Z"/></g></g></g></svg>