<svg xmlns="http://www.w3.org/2000/svg" viewBox="0 0 24 24"><defs><style>.cls-1{fill:none;}.cls-2,.cls-3{fill:#744cc6;}.cls-3{fill-opacity:0.5;}</style></defs><g id="Слой_2" data-name="Слой 2"><g id="Duotone"><g id="Bluetooth_Duotone" data-name="Bluetooth/Duotone"><rect class="cls-1" width="24" height="24"/><path class="cls-2" d="M16.27,8.87,12,3.43l-.06-.07a.51.51,0,0,0-.33-.13.48.48,0,0,0-.46.46l0,7.51-2.57-2a.51.51,0,0,0-.16-.09.41.41,0,0,0-.19,0A.43.43,0,0,0,8,9.16a.53.53,0,0,0-.14.12.34.34,0,0,0-.08.17.37.37,0,0,0,0,.18.4.4,0,0,0,.07.18.33.33,0,0,0,.13.13L10.59,12,7.92,14a.58.58,0,0,0-.13.14.49.49,0,0,0-.06.17.55.55,0,0,0,0,.18.51.51,0,0,0,.09.16.4.4,0,0,0,.3.17.41.41,0,0,0,.34-.09l2.59-2v7.52a.46.46,0,0,0,.13.32.47.47,0,0,0,.33.14.33.33,0,0,0,.17,0,.4.4,0,0,0,.15-.1l.07-.08,4.36-5.37L12.15,12ZM12,5,15,8.7l-3,2.22Zm2.89,10.32L12,19V13.09Z"/><path class="cls-3" d="M14.92,15.32l-3,3.79L12,13Z"/><path class="cls-3" d="M15,8.69,11.92,11l0-6.16Z"/></g></g></g></svg>