<svg xmlns="http://www.w3.org/2000/svg" viewBox="0 0 24 24"><defs><style>.cls-1{fill:none;}.cls-2,.cls-3{fill:#744cc6;}.cls-3{fill-opacity:0.5;}</style></defs><g id="Слой_2" data-name="Слой 2"><g id="Duotone"><g id="Bookmark_Duotone" data-name="Bookmark/Duotone"><rect class="cls-1" width="24" height="24"/><path class="cls-2" d="M4.6,4.62V18a1.36,1.36,0,0,0,.71,1.2,1.38,1.38,0,0,0,1.4,0L11.89,16l5.42,3.19a1.38,1.38,0,0,0,1.4,0,1.39,1.39,0,0,0,.51-.51A1.34,1.34,0,0,0,19.4,18V4.62ZM17.06,7.39H13.37A.45.45,0,0,1,13,7.25a.43.43,0,0,1-.14-.32A.58.58,0,0,1,13,6.6a.49.49,0,0,1,.33-.13h3.69a.46.46,0,0,1,.33.13.49.49,0,0,1,.13.33.45.45,0,0,1-.14.32A.47.47,0,0,1,17.06,7.39Z"/><path class="cls-3" d="M17.52,6.92a.49.49,0,0,1-.13.33.47.47,0,0,1-.33.14H13.37a.48.48,0,0,1-.47-.47.48.48,0,0,1,.47-.46h3.69a.47.47,0,0,1,.33.14A.48.48,0,0,1,17.52,6.92Z"/></g></g></g></svg>