<svg xmlns="http://www.w3.org/2000/svg" viewBox="0 0 24 24"><defs><style>.cls-1{fill:none;}.cls-2,.cls-3{fill:#744cc6;}.cls-2{fill-opacity:0.5;}</style></defs><g id="Слой_2" data-name="Слой 2"><g id="Duotone"><g id="Book_Duotone" data-name="Book/Duotone"><rect class="cls-1" width="24" height="24"/><path class="cls-2" d="M15.69,4.15V7.68l-1.11-1-1.07,1V4.15Z"/><path class="cls-3" d="M18.46,5.54V18.46a1.38,1.38,0,0,1-.4,1,1.4,1.4,0,0,1-1,.41H8.36V4.15h4.23v4a.73.73,0,0,0,.11.43.84.84,0,0,0,.32.3.64.64,0,0,0,.36,0,.66.66,0,0,0,.31-.16l.92-.86.93.87A.59.59,0,0,0,16,9a.69.69,0,0,0,.24,0,.84.84,0,0,0,.32-.3.77.77,0,0,0,.1-.42v-4h.47a1.42,1.42,0,0,1,1,.41A1.38,1.38,0,0,1,18.46,5.54Z"/><path class="cls-3" d="M7.44,4.15H5.54v15.7h1.9Z"/></g></g></g></svg>