<svg xmlns="http://www.w3.org/2000/svg" viewBox="0 0 24 24"><defs><style>.cls-1{fill:none;}.cls-2,.cls-3{fill:#744cc6;}.cls-3{fill-opacity:0.5;}</style></defs><g id="Слой_2" data-name="Слой 2"><g id="Duotone"><g id="Box_Duotone" data-name="Box/Duotone"><rect class="cls-1" width="24" height="24"/><path class="cls-2" d="M4.62,7.38V18A1.37,1.37,0,0,0,6,19.38H18A1.37,1.37,0,0,0,19.38,18V7.38Zm9.12,2.82H10.26a.48.48,0,0,1-.46-.46.47.47,0,0,1,.14-.33.46.46,0,0,1,.32-.13h3.48a.49.49,0,0,1,.33.13.47.47,0,0,1,.14.33.52.52,0,0,1-.14.32A.45.45,0,0,1,13.74,10.2Z"/><path class="cls-3" d="M19.85,5.08V6a.48.48,0,0,1-.07.23.55.55,0,0,1-.16.18.69.69,0,0,1-.24,0H4.62a.59.59,0,0,1-.23,0,.58.58,0,0,1-.18-.17A.5.5,0,0,1,4.15,6V5.08a.58.58,0,0,1,.14-.33.55.55,0,0,1,.33-.14H19.38a.48.48,0,0,1,.47.47Z"/></g></g></g></svg>