<svg xmlns="http://www.w3.org/2000/svg" viewBox="0 0 24 24"><defs><style>.cls-1{fill:none;}.cls-2,.cls-3{fill:#744cc6;}.cls-3{fill-opacity:0.5;}</style></defs><g id="Слой_2" data-name="Слой 2"><g id="Duotone"><g id="Calculator_Duotone" data-name="Calculator/Duotone"><rect class="cls-1" width="24" height="24"/><path class="cls-2" d="M17.08,3.23H6.92a2.28,2.28,0,0,0-1.63.68,2.31,2.31,0,0,0-.67,1.63V18.46a2.31,2.31,0,0,0,.67,1.63,2.28,2.28,0,0,0,1.63.68H17.08a2.28,2.28,0,0,0,1.63-.68,2.32,2.32,0,0,0,.68-1.63V5.54a2.32,2.32,0,0,0-.68-1.63A2.28,2.28,0,0,0,17.08,3.23ZM7.85,7.42A.42.42,0,0,1,8,7.1.47.47,0,0,1,8.31,7h7.38A.47.47,0,0,1,16,7.1a.46.46,0,0,1,.13.32v2.77a.46.46,0,0,1-.13.33.49.49,0,0,1-.33.13H8.31A.51.51,0,0,1,8,10.52a.46.46,0,0,1-.13-.33ZM9.23,17.58a.45.45,0,0,1-.14.32.52.52,0,0,1-.32.14H7.85a.45.45,0,0,1-.33-.14.42.42,0,0,1-.13-.32v-.93a.42.42,0,0,1,.13-.32.45.45,0,0,1,.33-.14h.92a.47.47,0,0,1,.33.14.46.46,0,0,1,.13.32Zm0-3.7a.45.45,0,0,1-.14.33.52.52,0,0,1-.32.14H7.85a.45.45,0,0,1-.33-.14.44.44,0,0,1-.13-.33V13a.46.46,0,0,1,.13-.33.49.49,0,0,1,.33-.13h.92a.44.44,0,0,1,.46.46Zm3.69,3.7a.48.48,0,0,1-.13.32.58.58,0,0,1-.33.14h-.92a.47.47,0,0,1-.33-.14.46.46,0,0,1-.13-.32v-.93a.46.46,0,0,1,.13-.32.47.47,0,0,1,.33-.14h.92a.47.47,0,0,1,.33.14.42.42,0,0,1,.13.32Zm0-3.7a.49.49,0,0,1-.13.33.58.58,0,0,1-.33.14h-.92a.47.47,0,0,1-.33-.14.49.49,0,0,1-.13-.33V13a.44.44,0,0,1,.46-.46h.92a.51.51,0,0,1,.33.13.46.46,0,0,1,.13.33Zm3.7,3.7a.48.48,0,0,1-.47.46h-.92a.47.47,0,0,1-.33-.14.46.46,0,0,1-.13-.32v-.93a.46.46,0,0,1,.13-.32.47.47,0,0,1,.33-.14h.92a.45.45,0,0,1,.33.14.43.43,0,0,1,.14.32Zm0-3.7a.48.48,0,0,1-.47.47h-.92a.47.47,0,0,1-.33-.14.49.49,0,0,1-.13-.33V13a.44.44,0,0,1,.46-.46h.92a.49.49,0,0,1,.33.13.47.47,0,0,1,.14.33Z"/><path class="cls-3" d="M8.77,16.18H7.85a.46.46,0,0,0-.46.47v.92a.46.46,0,0,0,.46.46h.92a.47.47,0,0,0,.46-.46v-.92A.47.47,0,0,0,8.77,16.18Z"/><path class="cls-3" d="M12.46,16.18h-.92a.46.46,0,0,0-.46.47v.92a.46.46,0,0,0,.46.46h.92a.46.46,0,0,0,.46-.46v-.92A.46.46,0,0,0,12.46,16.18Z"/><path class="cls-3" d="M16.15,16.18h-.92a.47.47,0,0,0-.46.47v.92a.47.47,0,0,0,.46.46h.92a.47.47,0,0,0,.47-.46v-.92A.47.47,0,0,0,16.15,16.18Z"/><path class="cls-3" d="M16.15,12.49h-.92a.47.47,0,0,0-.46.46v.93a.47.47,0,0,0,.46.46h.92a.47.47,0,0,0,.47-.46V13A.47.47,0,0,0,16.15,12.49Z"/><path class="cls-3" d="M12.46,12.49h-.92a.46.46,0,0,0-.46.46v.93a.46.46,0,0,0,.46.46h.92a.46.46,0,0,0,.46-.46V13A.46.46,0,0,0,12.46,12.49Z"/><path class="cls-3" d="M8.77,12.49H7.85a.46.46,0,0,0-.46.46v.93a.46.46,0,0,0,.46.46h.92a.47.47,0,0,0,.46-.46V13A.47.47,0,0,0,8.77,12.49Z"/></g></g></g></svg>