<svg xmlns="http://www.w3.org/2000/svg" viewBox="0 0 24 24"><defs><style>.cls-1{fill:none;}.cls-2,.cls-3{fill:#744cc6;}.cls-3{fill-opacity:0.5;}</style></defs><g id="Слой_2" data-name="Слой 2"><g id="Duotone"><g id="Call_Accept_Duotone" data-name="Call/Accept/Duotone"><rect class="cls-1" width="24" height="24"/><path class="cls-2" d="M20,16.77,17,13.68a1.31,1.31,0,0,0-.55-.34,1.35,1.35,0,0,0-.63-.06,4,4,0,0,0-2.35,1.14l-.28.33-4-4a3,3,0,0,0,.32-.3A4.06,4.06,0,0,0,10.6,8.14a1.72,1.72,0,0,0-.06-.64A1.46,1.46,0,0,0,10.2,7L7.13,3.89a1.34,1.34,0,0,0-.49-.32,1.24,1.24,0,0,0-.57-.08,4,4,0,0,0-2.28,1A3.89,3.89,0,0,0,2.5,7.31a4.61,4.61,0,0,0,.32,1.76,4.53,4.53,0,0,0,1,1.5l9.57,9.57a4.5,4.5,0,0,0,3.14,1.31h.11a3.9,3.9,0,0,0,1.55-.35,4.12,4.12,0,0,0,1.28-.94,4.07,4.07,0,0,0,1-2.28,1.26,1.26,0,0,0-.09-.61A1.13,1.13,0,0,0,20,16.77Zm-1.46,1.34a.52.52,0,0,1-.34.14l-.17,0a.56.56,0,0,1-.15-.1L15.7,15.93a.48.48,0,0,1-.13-.32.49.49,0,0,1,.13-.33.49.49,0,0,1,.15-.1l.18,0,.18,0a.49.49,0,0,1,.15.1l2.18,2.17a.48.48,0,0,1,0,.66ZM5.83,5.37A.31.31,0,0,1,6,5.27a.33.33,0,0,1,.17,0,.39.39,0,0,1,.18,0,.31.31,0,0,1,.15.1L8.66,7.54a.49.49,0,0,1,.13.33.48.48,0,0,1-.13.32.46.46,0,0,1-.66,0L5.83,6a.43.43,0,0,1-.14-.32A.45.45,0,0,1,5.83,5.37Z"/><path class="cls-3" d="M21.5,11.16h-.82a7.59,7.59,0,0,0-.56-3,7.46,7.46,0,0,0-1.68-2.54,7.68,7.68,0,0,0-2.55-1.69,7.49,7.49,0,0,0-3-.54V2.55a8.41,8.41,0,0,1,8.59,8.6Z"/><path class="cls-3" d="M18.3,11.2h-.82a4.5,4.5,0,0,0-.33-1.78,4.45,4.45,0,0,0-1-1.52,4.38,4.38,0,0,0-1.51-1,4.5,4.5,0,0,0-1.78-.33V5.75A5.33,5.33,0,0,1,16.74,7.3a5.37,5.37,0,0,1,1.18,1.79,5.58,5.58,0,0,1,.38,2.1Z"/></g></g></g></svg>