<svg xmlns="http://www.w3.org/2000/svg" viewBox="0 0 24 24"><defs><style>.cls-1{fill:none;}.cls-2,.cls-3{fill:#744cc6;}.cls-3{fill-opacity:0.5;}</style></defs><g id="Слой_2" data-name="Слой 2"><g id="Duotone"><g id="Call_Duotone" data-name="Call/Duotone"><rect class="cls-1" width="24" height="24"/><path class="cls-2" d="M20.54,16.31l-3.07-3.07a1.5,1.5,0,0,0-.54-.34,1.35,1.35,0,0,0-.63-.06A4,4,0,0,0,14,14l-.29.32-4-4L10,10A4,4,0,0,0,11.16,7.7a1.35,1.35,0,0,0-.06-.63,1.49,1.49,0,0,0-.34-.55l-3.06-3a1.33,1.33,0,0,0-.49-.33,1.46,1.46,0,0,0-.58-.08,4,4,0,0,0-2.28,1,3.9,3.9,0,0,0-.93,1.27,3.77,3.77,0,0,0-.36,1.54,4.63,4.63,0,0,0,.32,1.77,4.57,4.57,0,0,0,1,1.49l9.49,9.49A4.45,4.45,0,0,0,17,20.94h.12a3.89,3.89,0,0,0,1.54-.35,3.83,3.83,0,0,0,1.28-.94,4,4,0,0,0,1-2.28,1.28,1.28,0,0,0-.08-.58A1.24,1.24,0,0,0,20.54,16.31ZM9.18,7.77a.44.44,0,0,1-.33.14.43.43,0,0,1-.32-.14L6.35,5.59a.46.46,0,0,1,0-.64.42.42,0,0,1,.15-.11l.18,0a.47.47,0,0,1,.17,0A.42.42,0,0,1,7,5L9.18,7.12a.47.47,0,0,1,.14.33A.45.45,0,0,1,9.18,7.77Zm9.88,9.88a.52.52,0,0,1-.33.14.58.58,0,0,1-.18,0,.65.65,0,0,1-.15-.1l-2.17-2.18a.45.45,0,0,1-.14-.33.45.45,0,0,1,.14-.32.4.4,0,0,1,.15-.1.47.47,0,0,1,.17,0,.57.57,0,0,1,.18,0,.4.4,0,0,1,.15.1L19.06,17a.48.48,0,0,1,0,.66Z"/><path class="cls-3" d="M19.06,17.65a.52.52,0,0,1-.33.14.58.58,0,0,1-.18,0,.65.65,0,0,1-.15-.1l-2.17-2.18a.45.45,0,0,1-.14-.33.45.45,0,0,1,.14-.32.4.4,0,0,1,.15-.1.47.47,0,0,1,.17,0,.57.57,0,0,1,.18,0,.4.4,0,0,1,.15.1L19.06,17a.48.48,0,0,1,0,.66Z"/><path class="cls-3" d="M9.18,7.77a.44.44,0,0,1-.33.14.43.43,0,0,1-.32-.14L6.35,5.59a.46.46,0,0,1,0-.64.42.42,0,0,1,.15-.11l.18,0a.47.47,0,0,1,.17,0A.42.42,0,0,1,7,5L9.18,7.12a.47.47,0,0,1,.14.33A.45.45,0,0,1,9.18,7.77Z"/></g></g></g></svg>