<svg xmlns="http://www.w3.org/2000/svg" viewBox="0 0 24 24"><defs><style>.cls-1{fill:none;}.cls-2,.cls-3{fill:#744cc6;}.cls-3{fill-opacity:0.5;}</style></defs><g id="Слой_2" data-name="Слой 2"><g id="Duotone"><g id="Camera_Duotone" data-name="Camera/Duotone"><rect class="cls-1" width="24" height="24"/><path class="cls-2" d="M18.47,7.37h-.75V6A1.38,1.38,0,0,0,16.34,4.6H7.66A1.38,1.38,0,0,0,6.28,6V7.37H5.54A2.32,2.32,0,0,0,3.23,9.69v7.38A2.43,2.43,0,0,0,3.4,18a2.4,2.4,0,0,0,.5.75,2.38,2.38,0,0,0,.75.51,2.25,2.25,0,0,0,.89.18H18.46a2.25,2.25,0,0,0,.89-.18,2.38,2.38,0,0,0,.75-.51,2.4,2.4,0,0,0,.5-.75,2.43,2.43,0,0,0,.17-.89V9.69a2.3,2.3,0,0,0-2.3-2.32ZM8.74,9.65A4.18,4.18,0,0,1,14.58,9a4.29,4.29,0,0,1,1.05,1.23A4.21,4.21,0,0,1,16,13.34a4.36,4.36,0,0,1-.73,1.44,4.3,4.3,0,0,1-1.23,1.06,4,4,0,0,1-1.5.48,5.06,5.06,0,0,1-.55,0,4.09,4.09,0,0,1-2.55-.92,4.16,4.16,0,0,1-.71-5.77Z"/><circle class="cls-3" cx="12" cy="12" r="4.46"/></g></g></g></svg>