<svg xmlns="http://www.w3.org/2000/svg" viewBox="0 0 24 24"><defs><style>.cls-1{fill:none;}.cls-2,.cls-3{fill:#744cc6;}.cls-3{fill-opacity:0.5;}</style></defs><g id="Слой_2" data-name="Слой 2"><g id="Duotone"><g id="Card_Duotone" data-name="Card/Duotone"><rect class="cls-1" width="24" height="24"/><path class="cls-2" d="M20.56,14a1.24,1.24,0,0,1-.11.54,1.37,1.37,0,0,1-.3.45l-.35.34L8.73,4.2l.34-.34a1.31,1.31,0,0,1,.46-.3,1.24,1.24,0,0,1,.54-.11,1.41,1.41,0,0,1,.92.4L20.13,13a1.25,1.25,0,0,1,.31.44A1.17,1.17,0,0,1,20.56,14Z"/><path class="cls-3" d="M19.16,15.94l-.69.68L7.37,5.52l.69-.68Z"/><path class="cls-2" d="M17.81,17.28l-2.87,2.87a1.38,1.38,0,0,1-1,.4,1.42,1.42,0,0,1-1-.4L3.84,11.06a1.37,1.37,0,0,1-.3-.45,1.32,1.32,0,0,1-.1-.53,1.39,1.39,0,0,1,.1-.53,1.54,1.54,0,0,1,.3-.45L6.72,6.18Z"/></g></g></g></svg>