<svg xmlns="http://www.w3.org/2000/svg" viewBox="0 0 24 24"><defs><style>.cls-1{fill:none;}.cls-2,.cls-3{fill:#744cc6;}.cls-2{fill-opacity:0.5;}</style></defs><g id="Слой_2" data-name="Слой 2"><g id="Duotone"><g id="Cash_Duotone" data-name="Cash/Duotone"><rect class="cls-1" width="24" height="24"/><path class="cls-2" d="M4.93,8.93A4.31,4.31,0,0,1,4,10.36a4.1,4.1,0,0,1-1.45.93v-1a1.36,1.36,0,0,1,.41-.95,1.31,1.31,0,0,1,1-.38Z"/><path class="cls-2" d="M4.93,18.7h-1a1.25,1.25,0,0,1-.51-.1,1.2,1.2,0,0,1-.45-.29,1.42,1.42,0,0,1-.29-.43,1.56,1.56,0,0,1-.11-.52v-1A3.94,3.94,0,0,1,4,17.27,3.94,3.94,0,0,1,4.93,18.7Z"/><path class="cls-2" d="M18,16.38v1a1.35,1.35,0,0,1-.11.52,1.33,1.33,0,0,1-.73.72,1.34,1.34,0,0,1-.52.1h-.92a4.11,4.11,0,0,1,.9-1.39A4.2,4.2,0,0,1,18,16.38Z"/><path class="cls-2" d="M18,10.26v1a4.07,4.07,0,0,1-1.39-.92,4.21,4.21,0,0,1-.92-1.4h.93a1.35,1.35,0,0,1,.52.08,1.4,1.4,0,0,1,.44.29,1.48,1.48,0,0,1,.31.43A1.31,1.31,0,0,1,18,10.26Z"/><path class="cls-3" d="M21.37,13.71a1.25,1.25,0,0,1-.29.44,1.6,1.6,0,0,1-.44.29l-1.77.73V10.26a2.26,2.26,0,0,0-.67-1.6A2.31,2.31,0,0,0,16.59,8H10.51l6.3-2.61a1.6,1.6,0,0,1,.53-.09,1.54,1.54,0,0,1,.52.09,1.4,1.4,0,0,1,.44.29,1.32,1.32,0,0,1,.3.44l2.76,6.56A1.36,1.36,0,0,1,21.37,13.71Z"/><path class="cls-3" d="M14.73,8.93H5.94A5.06,5.06,0,0,1,4.67,11a5,5,0,0,1-2.09,1.24V15.4a5,5,0,0,1,2.09,1.23A5.17,5.17,0,0,1,5.94,18.7h8.79a5,5,0,0,1,1.24-2,5,5,0,0,1,2-1.25V12.18A4.94,4.94,0,0,1,16,11,5,5,0,0,1,14.73,8.93Zm-4.45,7.32A2.33,2.33,0,0,1,8,13.49a2.36,2.36,0,0,1,1.82-1.82,2.32,2.32,0,0,1,2.76,2.27,2.25,2.25,0,0,1-.18.89,2.34,2.34,0,0,1-.52.76,2.16,2.16,0,0,1-.76.49,2.29,2.29,0,0,1-.9.17Z"/><path class="cls-2" d="M10.23,15.32a1.39,1.39,0,1,0-1.38-1.38A1.38,1.38,0,0,0,10.23,15.32Z"/></g></g></g></svg>