<svg xmlns="http://www.w3.org/2000/svg" viewBox="0 0 24 24"><defs><style>.cls-1{fill:none;}.cls-2,.cls-3{fill:#744cc6;}.cls-2{fill-opacity:0.5;}</style></defs><g id="Слой_2" data-name="Слой 2"><g id="Duotone"><g id="Chart_Duotone" data-name="Chart/Duotone"><rect class="cls-1" width="24" height="24"/><path class="cls-2" d="M20.31,20.77H4.73a1.5,1.5,0,0,1-1.5-1.5V3.69a.48.48,0,0,1,.46-.46A.47.47,0,0,1,4,3.37a.48.48,0,0,1,.13.32V19.25a.56.56,0,0,0,.17.4.57.57,0,0,0,.41.17H20.31a.45.45,0,0,1,.32.14.43.43,0,0,1,.14.32.63.63,0,0,1,0,.19.36.36,0,0,1-.1.15.33.33,0,0,1-.15.11A.39.39,0,0,1,20.31,20.77Z"/><path class="cls-3" d="M10,7V18H6V7a1.42,1.42,0,0,1,.4-1,1.4,1.4,0,0,1,1-.41H8.65A1.38,1.38,0,0,1,10,7Z"/><path class="cls-3" d="M15.2,9.09V18H11V9.09a1.4,1.4,0,0,1,.41-1,1.38,1.38,0,0,1,1-.4h1.45A1.37,1.37,0,0,1,15.2,9.09Z"/><path class="cls-3" d="M20.19,11.17V18h-4v-6.8a1.38,1.38,0,0,1,1.39-1.38H18.8a1.38,1.38,0,0,1,1.39,1.38Z"/></g></g></g></svg>