<svg xmlns="http://www.w3.org/2000/svg" viewBox="0 0 24 24"><defs><style>.cls-1{fill:none;}.cls-2,.cls-3{fill:#744cc6;}.cls-3{fill-opacity:0.5;}</style></defs><g id="Слой_2" data-name="Слой 2"><g id="Duotone"><g id="Clock_Duotone" data-name="Clock/Duotone"><rect class="cls-1" width="24" height="24"/><path class="cls-2" d="M12,3.23A8.77,8.77,0,1,0,18.2,5.8,8.72,8.72,0,0,0,12,3.23Zm5.65,9.23H12.86a1.38,1.38,0,0,1-1-.4,1.4,1.4,0,0,1-.41-1V8.82a.45.45,0,0,1,.14-.33.45.45,0,0,1,.32-.14.48.48,0,0,1,.47.47v2.26a.46.46,0,0,0,.13.32.47.47,0,0,0,.33.14h4.79a.46.46,0,1,1,0,.92Z"/><path class="cls-3" d="M18.11,12a.44.44,0,0,1-.46.46H12.86a1.38,1.38,0,0,1-1-.4,1.4,1.4,0,0,1-.41-1V8.82a.45.45,0,0,1,.14-.33.45.45,0,0,1,.32-.14.48.48,0,0,1,.47.47v2.26a.46.46,0,0,0,.13.32.47.47,0,0,0,.33.14h4.79a.44.44,0,0,1,.46.46Z"/></g></g></g></svg>