<svg xmlns="http://www.w3.org/2000/svg" viewBox="0 0 24 24"><defs><style>.cls-1{fill:none;}.cls-2{fill:#744cc6;}</style></defs><g id="Слой_2" data-name="Слой 2"><g id="Duotone"><g id="Close_Line_Duotone" data-name="Close/Line/Duotone"><rect class="cls-1" width="24" height="24"/><path class="cls-2" d="M18.19,17.54a.31.31,0,0,1,.1.15.33.33,0,0,1,0,.17.34.34,0,0,1,0,.18.31.31,0,0,1-.1.15.43.43,0,0,1-.32.14.47.47,0,0,1-.33-.14L12,12.65,6.46,18.19a.31.31,0,0,1-.15.1.33.33,0,0,1-.17,0,.44.44,0,0,1-.33-.14.45.45,0,0,1-.14-.33.43.43,0,0,1,.14-.32L11.34,12,5.81,6.46a.45.45,0,0,1-.14-.33.47.47,0,0,1,.14-.33.46.46,0,0,1,.32-.13.49.49,0,0,1,.33.13L12,11.34,17.54,5.8a.49.49,0,0,1,.33-.13.46.46,0,0,1,.32.13.44.44,0,0,1,.1.15.43.43,0,0,1,0,.36.31.31,0,0,1-.1.15L12.65,12Z"/></g></g></g></svg>