<svg xmlns="http://www.w3.org/2000/svg" viewBox="0 0 24 24"><defs><style>.cls-1{fill:none;}.cls-2,.cls-3{fill:#744cc6;}.cls-3{fill-opacity:0.5;}</style></defs><g id="Слой_2" data-name="Слой 2"><g id="Duotone"><g id="Cloud_Duotone" data-name="Cloud/Duotone"><rect class="cls-1" width="24" height="24"/><path class="cls-2" d="M21.6,9.31A7.7,7.7,0,0,0,11.13,6.54a7.58,7.58,0,0,0-3.3,4,3.3,3.3,0,0,0-.13.37,4.27,4.27,0,0,0-6.34,3.63,4,4,0,0,0,4.06,4H18.16a4.28,4.28,0,0,0,3.45-1.68,4.51,4.51,0,0,0,.59-1.13,6.32,6.32,0,0,0,.4-1.77A7.63,7.63,0,0,0,21.6,9.31ZM18,16.83H13.83a.44.44,0,0,1-.33-.13.45.45,0,0,1-.14-.33.43.43,0,0,1,.14-.32.45.45,0,0,1,.33-.14H18a.47.47,0,0,1,.33.14.46.46,0,0,1,.13.32.47.47,0,0,1-.14.33A.46.46,0,0,1,18,16.83Z"/><path class="cls-3" d="M18.47,16.37a.47.47,0,0,1-.14.33.48.48,0,0,1-.32.13H13.83a.44.44,0,0,1-.33-.13.45.45,0,0,1-.14-.33.43.43,0,0,1,.14-.32.45.45,0,0,1,.33-.14H18a.52.52,0,0,1,.18,0,.34.34,0,0,1,.16.1.33.33,0,0,1,.11.15A.39.39,0,0,1,18.47,16.37Z"/></g></g></g></svg>