<svg xmlns="http://www.w3.org/2000/svg" viewBox="0 0 24 24"><defs><style>.cls-1{fill:none;}.cls-2,.cls-3{fill:#744cc6;}.cls-2{fill-opacity:0.5;}</style></defs><g id="Слой_2" data-name="Слой 2"><g id="Duotone"><g id="Cloudy_Duotone" data-name="Cloudy/Duotone"><rect class="cls-1" width="24" height="24"/><path class="cls-2" d="M7.75,7.92A2.11,2.11,0,0,1,7.39,9.1a2.15,2.15,0,0,1-1,.78A2.1,2.1,0,0,1,5.19,10a2,2,0,0,1-1.08-.58,2.11,2.11,0,0,1-.58-1.09,2.14,2.14,0,0,1,.12-1.23,2.24,2.24,0,0,1,.79-1,2.16,2.16,0,0,1,1.18-.36,2.11,2.11,0,0,1,.82.17,2.18,2.18,0,0,1,.7.46,2.36,2.36,0,0,1,.46.7A2.09,2.09,0,0,1,7.75,7.92Z"/><path class="cls-3" d="M22.15,17.3H21a6.68,6.68,0,0,0-.34-5.91,6.54,6.54,0,0,0-11.87,1.2,4.48,4.48,0,0,0-4.09.23,4.54,4.54,0,0,0-1.76,1.92A4.61,4.61,0,0,0,2.5,17.3H1.85a.52.52,0,0,0-.33.14.48.48,0,0,0-.13.32.43.43,0,0,0,.13.33.45.45,0,0,0,.33.14h20.3a.45.45,0,0,0,.33-.14.44.44,0,0,0,.14-.33.43.43,0,0,0-.14-.32A.45.45,0,0,0,22.15,17.3Zm-7.44-2h3.84a.45.45,0,0,1,.32.14.45.45,0,0,1,0,.65.46.46,0,0,1-.32.13H14.71a.46.46,0,0,1-.32-.13.46.46,0,0,1,0-.66A.46.46,0,0,1,14.71,15.32Z"/></g></g></g></svg>