<svg xmlns="http://www.w3.org/2000/svg" viewBox="0 0 24 24"><defs><style>.cls-1{fill:none;}.cls-2,.cls-3{fill:#744cc6;}.cls-2{opacity:0.5;isolation:isolate;}</style></defs><g id="Слой_2" data-name="Слой 2"><g id="Duotone"><g id="CloudStorage_Duotone" data-name="CloudStorage/Duotone"><rect class="cls-1" width="24" height="24"/><path class="cls-2" d="M14.88,14l-.15.09a.39.39,0,0,1-.18,0,.57.57,0,0,1-.33-.13l-2-2v7.51a.48.48,0,0,1-.46.46.44.44,0,0,1-.33-.14.43.43,0,0,1-.14-.32V12l-2,2a.4.4,0,0,1-.15.1l-.18,0-.18,0a.65.65,0,0,1-.15-.1.48.48,0,0,1,0-.66l2.78-2.77a1,1,0,0,1,.16-.12h.32l.15.1,2.78,2.77a.79.79,0,0,1,.12.15.45.45,0,0,1,0,.19.69.69,0,0,1,0,.2A.91.91,0,0,1,14.88,14Z"/><path class="cls-3" d="M22.58,12.39a6.05,6.05,0,0,1-.4,1.78,4.19,4.19,0,0,1-.59,1.13,4.38,4.38,0,0,1-1.17,1.06,4.33,4.33,0,0,1-2.27.62H12.21v-5l2,2a.46.46,0,0,0,.33.13.47.47,0,0,0,.17,0,.4.4,0,0,0,.15-.1.31.31,0,0,0,.1-.15.33.33,0,0,0,0-.17.34.34,0,0,0,0-.18.31.31,0,0,0-.1-.15l-2.77-2.77-.14-.1h-.14a.31.31,0,0,0-.19,0,.44.44,0,0,0-.15.12L8.68,13.3a.43.43,0,0,0-.14.32.45.45,0,0,0,.14.33.4.4,0,0,0,.15.1.33.33,0,0,0,.17,0,.34.34,0,0,0,.18,0,.4.4,0,0,0,.15-.1l2-2V17H5.41a4,4,0,0,1-2.84-1.17A4.06,4.06,0,0,1,1.38,13,4.24,4.24,0,0,1,7.67,9.4,1.17,1.17,0,0,1,7.8,9a7.6,7.6,0,0,1,3.31-3.95A7.69,7.69,0,0,1,21.58,7.85,7.44,7.44,0,0,1,22.58,12.39Z"/></g></g></g></svg>