<svg xmlns="http://www.w3.org/2000/svg" viewBox="0 0 24 24"><defs><style>.cls-1{fill:none;}.cls-2,.cls-3{fill:#744cc6;}.cls-3{fill-opacity:0.5;}</style></defs><g id="Слой_2" data-name="Слой 2"><g id="Duotone"><g id="Compass_Duotone" data-name="Compass/Duotone"><rect class="cls-1" width="24" height="24"/><path class="cls-2" d="M17.56,17.57a7.83,7.83,0,0,1-9.63,1.14,2.09,2.09,0,0,0,.49-.13L14.75,16a2.15,2.15,0,0,0,.74-.5,2.45,2.45,0,0,0,.49-.74l2.56-6.37a2.54,2.54,0,0,0,.14-.47,7.84,7.84,0,0,1-1.12,9.66Z"/><path class="cls-3" d="M17.42,6.59a1.36,1.36,0,0,0-.93-.4,1.32,1.32,0,0,0-.51.1L9.65,8.88a1.38,1.38,0,0,0-.75.75L6.34,16a1.39,1.39,0,0,0-.07.78,1.31,1.31,0,0,0,.37.68,1.41,1.41,0,0,0,.69.37,1.35,1.35,0,0,0,.77-.08l6.33-2.59a1.36,1.36,0,0,0,.74-.75L17.74,8a1.26,1.26,0,0,0,.06-.77A1.35,1.35,0,0,0,17.42,6.59Zm-3.77,7.06a2.31,2.31,0,0,1-1.18.63,2.28,2.28,0,0,1-1.34-.13A2.32,2.32,0,0,1,9.71,12a2.22,2.22,0,0,1,.39-1.28,2.25,2.25,0,0,1,1-.85,2.28,2.28,0,0,1,1.34-.13,2.31,2.31,0,0,1,1.18,3.89Z"/><path class="cls-2" d="M13,13a1.39,1.39,0,0,1-2,0,1.36,1.36,0,0,1,0-2,1.32,1.32,0,0,1,.44-.3,1.4,1.4,0,0,1,.54-.1,1.39,1.39,0,0,1,.53.1A1.32,1.32,0,0,1,13,11a1.39,1.39,0,0,1,.4,1A1.38,1.38,0,0,1,13,13Z"/><path class="cls-2" d="M16.1,5.33a1.55,1.55,0,0,0-.48.13L9.28,8.05A2.3,2.3,0,0,0,8.05,9.29L5.48,15.66a2.9,2.9,0,0,0-.14.48A7.85,7.85,0,0,1,12,4.14,7.78,7.78,0,0,1,16.1,5.33Z"/></g></g></g></svg>