<svg xmlns="http://www.w3.org/2000/svg" viewBox="0 0 24 24"><defs><style>.cls-1{fill:none;}.cls-2,.cls-3{fill:#744cc6;}.cls-2{fill-opacity:0.5;}</style></defs><g id="Слой_2" data-name="Слой 2"><g id="Duotone"><g id="Computer_Duotone" data-name="Computer/Duotone"><rect class="cls-1" width="24" height="24"/><path class="cls-2" d="M21.23,18.93H2.77a.43.43,0,0,1-.32-.14.45.45,0,0,1-.14-.32.49.49,0,0,1,.13-.33A.47.47,0,0,1,2.77,18H21.23a.47.47,0,0,1,.33.14.49.49,0,0,1,.13.33.46.46,0,0,1-.13.32A.47.47,0,0,1,21.23,18.93Z"/><path class="cls-2" d="M20.74,6.92H3.28a2.36,2.36,0,0,1,.8-1.33,2.32,2.32,0,0,1,1.47-.52H18.47a2.29,2.29,0,0,1,1.46.52A2.32,2.32,0,0,1,20.74,6.92Z"/><path class="cls-3" d="M20.78,7.84v6.89a2.28,2.28,0,0,1-.68,1.63,2.31,2.31,0,0,1-1.63.67H5.55a2.31,2.31,0,0,1-1.63-.67,2.28,2.28,0,0,1-.68-1.63V7.84Z"/></g></g></g></svg>