<svg xmlns="http://www.w3.org/2000/svg" viewBox="0 0 24 24"><defs><style>.cls-1{fill:none;}.cls-2,.cls-3{fill:#744cc6;}.cls-3{fill-opacity:0.5;}</style></defs><g id="Слой_2" data-name="Слой 2"><g id="Duotone"><g id="Diagram_Duotone" data-name="Diagram/Duotone"><rect class="cls-1" width="24" height="24"/><path class="cls-2" d="M19.89,12.47v.46a8.76,8.76,0,1,1-8.75-8.75h.46V12a.58.58,0,0,0,0,.18.65.65,0,0,0,.1.15.38.38,0,0,0,.15.09.39.39,0,0,0,.18,0Z"/><path class="cls-3" d="M21.63,11.05v.47H13.79a1.38,1.38,0,0,1-1.38-1.39V2.3h.46a8.77,8.77,0,0,1,8.76,8.75Z"/></g></g></g></svg>