<svg xmlns="http://www.w3.org/2000/svg" viewBox="0 0 24 24"><defs><style>.cls-1{fill:none;}.cls-2,.cls-3{fill:#744cc6;}.cls-3{fill-opacity:0.5;}</style></defs><g id="Слой_2" data-name="Слой 2"><g id="Duotone"><g id="Diamond_Duotone" data-name="Diamond/Duotone"><rect class="cls-1" width="24" height="24"/><path class="cls-2" d="M4.4,9.46l7.23,9.74a.7.7,0,0,0,.16.14.57.57,0,0,0,.42,0,.7.7,0,0,0,.16-.14L19.6,9.46Zm7.6,6a.47.47,0,0,1-.33-.14.49.49,0,0,1-.13-.33V11.3a.46.46,0,0,1,.13-.32.46.46,0,0,1,.66,0,.46.46,0,0,1,.13.32V15a.49.49,0,0,1-.13.33A.47.47,0,0,1,12,15.46Z"/><path class="cls-3" d="M19.62,8.54H13.15L16.74,4.9Z"/><path class="cls-3" d="M15.73,4.62,12,8.39,8.27,4.62Z"/><path class="cls-3" d="M10.85,8.54H4.38L7.26,4.9Z"/></g></g></g></svg>