<svg xmlns="http://www.w3.org/2000/svg" viewBox="0 0 24 24"><defs><style>.cls-1{fill:none;}.cls-2,.cls-3{fill:#744cc6;}.cls-3{fill-opacity:0.5;}</style></defs><g id="Слой_2" data-name="Слой 2"><g id="Duotone"><g id="Diskette_Duotone" data-name="Diskette/Duotone"><rect class="cls-1" width="24" height="24"/><path class="cls-2" d="M18.48,4.15h-1.4v6a1.4,1.4,0,0,1-1.39,1.39H8.31a1.4,1.4,0,0,1-1.39-1.39v-6H5.54A1.4,1.4,0,0,0,4.15,5.54V18.46a1.4,1.4,0,0,0,1.39,1.39H18.46a1.4,1.4,0,0,0,1.39-1.39V5.54a1.4,1.4,0,0,0-.4-1A1.43,1.43,0,0,0,18.48,4.15Zm-2.33,14H7.85a.49.49,0,0,1-.33-.13.47.47,0,0,1,0-.65.45.45,0,0,1,.33-.14h8.3a.45.45,0,0,1,.33.14.43.43,0,0,1,.14.32.47.47,0,0,1-.14.33A.49.49,0,0,1,16.15,18.19Zm0-2.82H7.85a.45.45,0,0,1-.33-.14.42.42,0,0,1-.13-.32.51.51,0,0,1,.13-.33.49.49,0,0,1,.33-.13h8.3a.44.44,0,0,1,.33.13.47.47,0,0,1,.14.33.43.43,0,0,1-.14.32A.45.45,0,0,1,16.15,15.37Z"/><path class="cls-3" d="M7.85,4.15v6a.49.49,0,0,0,.13.33.44.44,0,0,0,.33.13h7.38a.44.44,0,0,0,.46-.46v-6Zm7.38,5.11a.46.46,0,0,1-.13.32.46.46,0,0,1-.66,0,.46.46,0,0,1-.13-.32V5.57a.45.45,0,0,1,.14-.33.52.52,0,0,1,.32-.14.47.47,0,0,1,.33.14.49.49,0,0,1,.13.33Z"/></g></g></g></svg>