<svg xmlns="http://www.w3.org/2000/svg" viewBox="0 0 24 24"><defs><style>.cls-1{fill:none;}.cls-2,.cls-3{fill:#744cc6;}.cls-3{fill-opacity:0.5;}</style></defs><g id="Слой_2" data-name="Слой 2"><g id="Duotone"><g id="Disk_Duotone" data-name="Disk/Duotone"><rect class="cls-1" width="24" height="24"/><path class="cls-2" d="M12,3.23A8.77,8.77,0,0,0,10.29,20.6,8.77,8.77,0,1,0,12,3.23Zm0,10.15a1.42,1.42,0,0,1-.77-.23,1.34,1.34,0,0,1-.51-.62,1.45,1.45,0,0,1-.08-.8A1.37,1.37,0,0,1,11,11a1.38,1.38,0,0,1,1.51-.3A1.38,1.38,0,0,1,13.38,12,1.37,1.37,0,0,1,12,13.38ZM17,8,15.14,9.85A.4.4,0,0,1,15,10a.35.35,0,0,1-.17,0,.48.48,0,0,1-.34-.14.48.48,0,0,1-.13-.32.49.49,0,0,1,.13-.33l1.85-1.84a.31.31,0,0,1,.15-.1.39.39,0,0,1,.18,0,.33.33,0,0,1,.17,0,.31.31,0,0,1,.15.1.49.49,0,0,1,.11.14.55.55,0,0,1,0,.36A.49.49,0,0,1,17,8Z"/><path class="cls-3" d="M17,8,15.14,9.85A.4.4,0,0,1,15,10a.35.35,0,0,1-.17,0,.48.48,0,0,1-.34-.14.48.48,0,0,1-.13-.32.49.49,0,0,1,.13-.33l1.85-1.84a.31.31,0,0,1,.15-.1.39.39,0,0,1,.18,0,.33.33,0,0,1,.17,0,.31.31,0,0,1,.15.1.49.49,0,0,1,.11.14.55.55,0,0,1,0,.36A.49.49,0,0,1,17,8Z"/></g></g></g></svg>