<svg xmlns="http://www.w3.org/2000/svg" viewBox="0 0 24 24"><defs><style>.cls-1{fill:none;}.cls-2,.cls-3{fill:#744cc6;}.cls-2{fill-opacity:0.5;}</style></defs><g id="Слой_2" data-name="Слой 2"><g id="Duotone"><g id="Document_NotFound_Duotone" data-name="Document/NotFound/Duotone"><rect class="cls-1" width="24" height="24"/><path class="cls-2" d="M17.88,14.59a3,3,0,0,0-.93-.2h-.21a3.25,3.25,0,0,0-2.18.84,3.3,3.3,0,0,0-1,2.09,3.23,3.23,0,0,0,.65,2.25,3.17,3.17,0,0,0,2,1.22,3.23,3.23,0,0,0,1.73-6.19Zm.5,4.11a.41.41,0,0,1,.13.23.63.63,0,0,1,0,.27.41.41,0,0,1-.17.2.44.44,0,0,1-.25.08.46.46,0,0,1-.32-.13l-1-1-.92,1a.53.53,0,0,1-.34.13.48.48,0,0,1-.32-.13.4.4,0,0,1-.1-.15A.48.48,0,0,1,15,19a.47.47,0,0,1,0-.17.4.4,0,0,1,.1-.15l1-1-1-1a.45.45,0,0,1-.14-.33.47.47,0,0,1,.14-.33.48.48,0,0,1,.66,0l.92,1,1-1a.71.71,0,0,1,.14-.1.42.42,0,0,1,.36,0,.71.71,0,0,1,.14.1.44.44,0,0,1,.1.15.43.43,0,0,1,0,.36.31.31,0,0,1-.1.15l-1,1Z"/><path class="cls-3" d="M15.57,3.15H5.41a1.38,1.38,0,0,0-1,.41,1.35,1.35,0,0,0-.41,1V17.45a1.38,1.38,0,0,0,.4,1,1.4,1.4,0,0,0,1,.41H12.8a4.3,4.3,0,0,1-.13-1.92,4.19,4.19,0,0,1,.75-1.76,4.1,4.1,0,0,1,1.46-1.25,4.26,4.26,0,0,1,1.86-.46H17V4.53A1.36,1.36,0,0,0,16.86,4a1.29,1.29,0,0,0-.31-.45,1.37,1.37,0,0,0-.45-.3A1.39,1.39,0,0,0,15.57,3.15Zm-2,9.69H7.07a.48.48,0,0,1-.47-.47.43.43,0,0,1,.14-.32.45.45,0,0,1,.33-.14h6.46a.48.48,0,0,1,.46.46.45.45,0,0,1-.14.33A.43.43,0,0,1,13.53,12.84Zm0-2.87H7.07a.49.49,0,0,1-.33-.13.58.58,0,0,1-.14-.33.43.43,0,0,1,.14-.32.45.45,0,0,1,.33-.14h6.46a.48.48,0,0,1,.46.46.58.58,0,0,1,0,.19.39.39,0,0,1-.1.16.29.29,0,0,1-.13.08A.46.46,0,0,1,13.53,10Zm0-2.87H7.07A.49.49,0,0,1,6.74,7a.47.47,0,0,1-.14-.33.52.52,0,0,1,.14-.32.45.45,0,0,1,.33-.14h6.46a.48.48,0,0,1,.46.46.63.63,0,0,1,0,.19.39.39,0,0,1-.1.16.41.41,0,0,1-.13.08A.69.69,0,0,1,13.53,7.1Z"/></g></g></g></svg>