<svg xmlns="http://www.w3.org/2000/svg" viewBox="0 0 24 24"><defs><style>.cls-1{fill:none;}.cls-2,.cls-3{fill:#744cc6;}.cls-2{fill-opacity:0.5;}</style></defs><g id="Слой_2" data-name="Слой 2"><g id="Duotone"><g id="Document_Found_Duotone" data-name="Document/Found/Duotone"><rect class="cls-1" width="24" height="24"/><path class="cls-2" d="M17.88,14.59a2.86,2.86,0,0,0-.92-.2h-.23a3.25,3.25,0,0,0-2.18.84,3.3,3.3,0,0,0-1,2.09,3.23,3.23,0,0,0,.65,2.25,3.23,3.23,0,0,0,5.68-1.08,3.21,3.21,0,0,0-2-3.89Zm.87,2.52L17,18.84a.79.79,0,0,1-.31.2.84.84,0,0,1-.35.07,1.13,1.13,0,0,1-.36-.06.9.9,0,0,1-.3-.21L14.87,18a.46.46,0,0,1-.13-.32.46.46,0,0,1,.46-.47.45.45,0,0,1,.33.14l.82.82,1.76-1.74a.46.46,0,0,1,.64,0,.65.65,0,0,1,.1.15.43.43,0,0,1,0,.36A.49.49,0,0,1,18.75,17.11Z"/><path class="cls-3" d="M15.58,3.15H5.42a1.36,1.36,0,0,0-1,.41,1.39,1.39,0,0,0-.41,1V17.46a1.37,1.37,0,0,0,1.38,1.38h7.39a4,4,0,0,1-.13-1.92,4.16,4.16,0,0,1,4.1-3.47H17V4.54A1.41,1.41,0,0,0,16.9,4a1.36,1.36,0,0,0-.32-.46,1.41,1.41,0,0,0-.46-.3A1.65,1.65,0,0,0,15.58,3.15Zm-2,9.71H7.07a.46.46,0,0,1-.32-.13.46.46,0,0,1,0-.66.46.46,0,0,1,.32-.13h6.47a.46.46,0,0,1,.32.13.46.46,0,0,1,0,.66A.46.46,0,0,1,13.54,12.86Zm0-2.87H7.07a.46.46,0,0,1-.32-.13.46.46,0,0,1,0-.66.46.46,0,0,1,.32-.13h6.47a.46.46,0,0,1,.32.13.46.46,0,0,1,0,.66A.46.46,0,0,1,13.54,10Zm0-2.86H7.07A.46.46,0,0,1,6.75,7a.46.46,0,0,1,0-.66.46.46,0,0,1,.32-.13h6.47a.46.46,0,0,1,.32.13.46.46,0,0,1,0,.66A.46.46,0,0,1,13.54,7.13Z"/></g></g></g></svg>