<svg xmlns="http://www.w3.org/2000/svg" viewBox="0 0 24 24"><defs><style>.cls-1{fill:none;}.cls-2,.cls-3{fill:#744cc6;}.cls-3{fill-opacity:0.5;}</style></defs><g id="Слой_2" data-name="Слой 2"><g id="Duotone"><g id="Document_Duotone" data-name="Document/Duotone"><rect class="cls-1" width="24" height="24"/><path class="cls-2" d="M17.08,3.23H6.92a2.34,2.34,0,0,0-1.63.68,2.31,2.31,0,0,0-.67,1.63V18.46a2.31,2.31,0,0,0,.67,1.63,2.28,2.28,0,0,0,1.63.68H17.08a2.3,2.3,0,0,0,2.3-2.31V5.54a2.31,2.31,0,0,0-.67-1.63A2.34,2.34,0,0,0,17.08,3.23ZM15.23,14H8.77a.47.47,0,0,1-.33-.14.46.46,0,0,1-.13-.32.44.44,0,0,1,.46-.46h6.46a.46.46,0,1,1,0,.92Zm0-2.87H8.77a.44.44,0,0,1-.46-.46.46.46,0,0,1,.13-.32.47.47,0,0,1,.33-.14h6.46a.46.46,0,1,1,0,.92Zm0-2.86H8.77a.47.47,0,0,1-.33-.14.46.46,0,0,1-.13-.32.44.44,0,0,1,.46-.46h6.46a.44.44,0,0,1,.46.46.46.46,0,0,1-.13.32A.47.47,0,0,1,15.23,8.27Z"/><path class="cls-3" d="M15.69,13.54a.51.51,0,0,1-.13.34.47.47,0,0,1-.33.14H8.77a.47.47,0,0,1-.33-.14.51.51,0,0,1-.13-.34.51.51,0,0,1,.13-.33.47.47,0,0,1,.33-.14h6.46a.47.47,0,0,1,.33.14A.51.51,0,0,1,15.69,13.54Z"/><path class="cls-3" d="M15.69,10.67a.44.44,0,0,1-.46.46H8.77a.44.44,0,0,1-.46-.46.46.46,0,0,1,.13-.32.47.47,0,0,1,.33-.14h6.46a.44.44,0,0,1,.46.46Z"/><path class="cls-3" d="M15.69,7.81a.46.46,0,0,1-.13.32.47.47,0,0,1-.33.14H8.77a.47.47,0,0,1-.33-.14.46.46,0,0,1-.13-.32.44.44,0,0,1,.46-.46h6.46a.44.44,0,0,1,.46.46Z"/></g></g></g></svg>