<svg xmlns="http://www.w3.org/2000/svg" viewBox="0 0 24 24"><defs><style>.cls-1{fill:none;}.cls-2,.cls-3{fill:#744cc6;}.cls-2{fill-opacity:0.5;}</style></defs><g id="Слой_2" data-name="Слой 2"><g id="Duotone"><g id="Document_Favorites_Duotone" data-name="Document/Favorites/Duotone"><rect class="cls-1" width="24" height="24"/><path class="cls-2" d="M20.23,21.29a.5.5,0,0,1-.33.12.48.48,0,0,1-.33-.12l-1.52-1.53a3.21,3.21,0,0,1-4.13-.56,3.32,3.32,0,0,1-.6-.92,3.25,3.25,0,0,1-.24-1.57,3.2,3.2,0,0,1,1.69-2.55,3.17,3.17,0,0,1,1.53-.39h.24a3.3,3.3,0,0,1,.92.2,3.22,3.22,0,0,1,1.28,5.14l1.48,1.47a.61.61,0,0,1,.12.16.65.65,0,0,1,0,.19.45.45,0,0,1,0,.2A.57.57,0,0,1,20.23,21.29Z"/><path class="cls-3" d="M15.16,2.58H5A1.43,1.43,0,0,0,4,3a1.39,1.39,0,0,0-.41,1V16.89A1.4,1.4,0,0,0,5,18.28h7.38a4.12,4.12,0,0,1,.59-3.7,4.18,4.18,0,0,1,3.32-1.73h.24V4a1.39,1.39,0,0,0-.41-1A1.4,1.4,0,0,0,15.16,2.58Zm-8,7.61a.44.44,0,0,1-.46.46H5.82a.49.49,0,0,1-.33-.13.46.46,0,0,1-.13-.33V9.27a.44.44,0,0,1,.46-.46h.92a.46.46,0,0,1,.32.13.47.47,0,0,1,.14.33Zm3.7,0a.47.47,0,0,1-.14.33.51.51,0,0,1-.33.13H9.51a.44.44,0,0,1-.46-.46V9.27a.49.49,0,0,1,.13-.33.46.46,0,0,1,.33-.13h.92a.51.51,0,0,1,.33.13.58.58,0,0,1,.14.33Zm3.69,0a.46.46,0,0,1-.47.46H13.2a.46.46,0,0,1-.32-.13.47.47,0,0,1-.14-.33V9.27a.45.45,0,0,1,.14-.33.42.42,0,0,1,.32-.13h.92a.49.49,0,0,1,.33.13.47.47,0,0,1,.14.33Z"/></g></g></g></svg>