<svg xmlns="http://www.w3.org/2000/svg" viewBox="0 0 24 24"><defs><style>.cls-1{fill:none;}.cls-2,.cls-3{fill:#744cc6;}.cls-3{fill-opacity:0.5;}</style></defs><g id="Слой_2" data-name="Слой 2"><g id="Duotone"><g id="Edit_Duotone" data-name="Edit/Duotone"><rect class="cls-1" width="24" height="24"/><path class="cls-2" d="M20,7.86V20.11a2.3,2.3,0,0,1-2.31,2.31H3.81A2.3,2.3,0,0,1,1.5,20.11V6.27A2.32,2.32,0,0,1,3.81,4H16.35l-.92.92-4,4a2.65,2.65,0,0,0,3.75,3.75L19,8.79Z"/><path class="cls-3" d="M22.5,3.33a1,1,0,0,1-.08.39.9.9,0,0,1-.23.32l-6.33,6.34a1.08,1.08,0,0,1-.51.26.9.9,0,0,1-.37.42l-1.91,1a.74.74,0,0,1-.36.09.79.79,0,0,1-.56-.23A.8.8,0,0,1,12,11l1-1.9a.74.74,0,0,1,.39-.35.88.88,0,0,1,.27-.54L20,1.88a.9.9,0,0,1,.32-.23,1,1,0,0,1,.39-.07,1,1,0,0,1,.38.07,1,1,0,0,1,.33.23l.74.74a.86.86,0,0,1,.23.33A1,1,0,0,1,22.5,3.33Z"/></g></g></g></svg>