<svg xmlns="http://www.w3.org/2000/svg" viewBox="0 0 24 24"><defs><style>.cls-1{fill:none;}.cls-2,.cls-3{fill:#744cc6;}.cls-3{fill-opacity:0.5;}</style></defs><g id="Слой_2" data-name="Слой 2"><g id="Duotone"><g id="Entrance_Duotone" data-name="Entrance/Duotone"><rect class="cls-1" width="24" height="24"/><path class="cls-2" d="M19.58,5.08V18.92a2.3,2.3,0,0,1-2.3,2.31H9a2.32,2.32,0,0,1-2.31-2.31V13.38H9.11l-.41.41a1.39,1.39,0,0,0,0,1.93,1.28,1.28,0,0,0,.45.32,1.5,1.5,0,0,0,.55.11,1.4,1.4,0,0,0,1-.39L13.44,13l.12-.14.06-.1a1.48,1.48,0,0,0,.22-.7,1.35,1.35,0,0,0-.09-.56,1.33,1.33,0,0,0-.31-.47L10.68,8.25a1.41,1.41,0,0,0-1-.4,1.38,1.38,0,0,0-1,2.36l.4.4H6.66V5.08A2.32,2.32,0,0,1,9,2.77h8.31a2.3,2.3,0,0,1,2.3,2.31Z"/><path class="cls-3" d="M4.42,12a.52.52,0,0,1,0-.18.33.33,0,0,1,.11-.15.33.33,0,0,1,.14-.1l.18,0h6.46l-2-2a.44.44,0,0,1-.14-.33.43.43,0,0,1,.14-.32.31.31,0,0,1,.15-.1.33.33,0,0,1,.17,0,.39.39,0,0,1,.18,0,.31.31,0,0,1,.15.1l2.77,2.77a.4.4,0,0,1,.1.15.57.57,0,0,1,0,.18.75.75,0,0,1-.13.32L10,15.1a.45.45,0,0,1-.33.14.43.43,0,0,1-.32-.14.45.45,0,0,1-.14-.33.43.43,0,0,1,.14-.32l2-2H4.9a.58.58,0,0,1-.19,0,.49.49,0,0,1-.15-.1.42.42,0,0,1-.11-.15A.57.57,0,0,1,4.42,12Z"/></g></g></g></svg>