<svg xmlns="http://www.w3.org/2000/svg" viewBox="0 0 24 24"><defs><style>.cls-1{fill:none;}.cls-2,.cls-3{fill:#744cc6;}.cls-3{fill-opacity:0.5;}</style></defs><g id="Слой_2" data-name="Слой 2"><g id="Duotone"><g id="Error_Duotone" data-name="Error/Duotone"><rect class="cls-1" width="24" height="24"/><path class="cls-2" d="M21.07,18.74,13.22,4a1.39,1.39,0,0,0-.51-.54,1.36,1.36,0,0,0-.71-.2,1.42,1.42,0,0,0-.72.2,1.47,1.47,0,0,0-.51.54L2.94,18.74a1.24,1.24,0,0,0-.16.68A1.37,1.37,0,0,0,3,20.1a1.5,1.5,0,0,0,.51.49,1.32,1.32,0,0,0,.67.18h15.7a1.32,1.32,0,0,0,.67-.18A1.5,1.5,0,0,0,21,20.1a1.37,1.37,0,0,0,.19-.68A1.33,1.33,0,0,0,21.07,18.74Zm-7.44-3.11a.41.41,0,0,1,.13.23.5.5,0,0,1,0,.27.41.41,0,0,1-.17.2.44.44,0,0,1-.25.08.48.48,0,0,1-.32-.13l-1-1-1,1a.44.44,0,0,1-.32.13.46.46,0,0,1-.32-.13.42.42,0,0,1-.11-.15.47.47,0,0,1,0-.17.48.48,0,0,1,0-.18.42.42,0,0,1,.11-.15l1-1-1-1a.42.42,0,0,1-.11-.15.57.57,0,0,1,0-.18.47.47,0,0,1,0-.17.42.42,0,0,1,.11-.15A.44.44,0,0,1,11,13l1,1,1-1a.44.44,0,0,1,.64,0,.31.31,0,0,1,.1.15.33.33,0,0,1,0,.17.39.39,0,0,1,0,.18.31.31,0,0,1-.1.15l-1,1Z"/><path class="cls-3" d="M13.63,15.63a.41.41,0,0,1,.13.23.5.5,0,0,1,0,.27.41.41,0,0,1-.17.2.44.44,0,0,1-.25.08.48.48,0,0,1-.32-.13l-1-1-1,1a.44.44,0,0,1-.32.13.46.46,0,0,1-.32-.13.42.42,0,0,1-.11-.15.47.47,0,0,1,0-.17.48.48,0,0,1,0-.18.42.42,0,0,1,.11-.15l1-1-1-1a.42.42,0,0,1-.11-.15.57.57,0,0,1,0-.18.47.47,0,0,1,0-.17.42.42,0,0,1,.11-.15A.44.44,0,0,1,11,13l1,1,1-1a.44.44,0,0,1,.64,0,.31.31,0,0,1,.1.15.33.33,0,0,1,0,.17.39.39,0,0,1,0,.18.31.31,0,0,1-.1.15l-1,1Z"/></g></g></g></svg>