<svg xmlns="http://www.w3.org/2000/svg" viewBox="0 0 24 24"><defs><style>.cls-1{fill:none;}.cls-2,.cls-3{fill:#744cc6;}.cls-3{fill-opacity:0.5;}</style></defs><g id="Слой_2" data-name="Слой 2"><g id="Duotone"><g id="Exit_Duotone" data-name="Exit/Duotone"><rect class="cls-1" width="24" height="24"/><path class="cls-2" d="M20.84,5.08V18.92a2.3,2.3,0,0,1-2.3,2.31H10.27A2.3,2.3,0,0,1,8,18.92V13.38H11.2a1.39,1.39,0,0,0,1-.4,1.37,1.37,0,0,0,.3-.45,1.44,1.44,0,0,0,.1-.54,1.39,1.39,0,0,0-.1-.53,1.54,1.54,0,0,0-.3-.45,1.65,1.65,0,0,0-.45-.29,1.4,1.4,0,0,0-.53-.11H7.92V5.08a2.33,2.33,0,0,1,.18-.9,2.27,2.27,0,0,1,.51-.75,2.18,2.18,0,0,1,.77-.5,2.26,2.26,0,0,1,.89-.16h8.31a2.31,2.31,0,0,1,2.26,2.31Z"/><path class="cls-3" d="M11.67,12a.39.39,0,0,1,0,.18.31.31,0,0,1-.1.15.48.48,0,0,1-.32.13H4.74l2,2a.42.42,0,0,1,.13.32.44.44,0,0,1-.13.33.5.5,0,0,1-.33.14.33.33,0,0,1-.17,0,.4.4,0,0,1-.15-.1L3.3,12.33a.36.36,0,0,1-.11-.14.38.38,0,0,1,0-.18.62.62,0,0,1,.14-.32L6.07,8.92a.4.4,0,0,1,.31-.11A.41.41,0,0,1,6.69,9a.44.44,0,0,1,.13.31.41.41,0,0,1-.11.31l-2,2H11.2l.18,0a.49.49,0,0,1,.15.1.5.5,0,0,1,.14.33Z"/></g></g></g></svg>