<svg xmlns="http://www.w3.org/2000/svg" viewBox="0 0 24 24"><defs><style>.cls-1{fill:none;}.cls-2,.cls-3{fill:#744cc6;}.cls-3{fill-opacity:0.5;}</style></defs><g id="Слой_2" data-name="Слой 2"><g id="Duotone"><g id="Film_Duotone" data-name="Film/Duotone"><rect class="cls-1" width="24" height="24"/><path class="cls-2" d="M18.46,4.61H5.54a2.32,2.32,0,0,0-1.63.68,2.28,2.28,0,0,0-.68,1.63V17.08a2.28,2.28,0,0,0,.68,1.63,2.31,2.31,0,0,0,1.63.67H18.46a2.31,2.31,0,0,0,1.63-.67,2.28,2.28,0,0,0,.68-1.63V6.92a2.28,2.28,0,0,0-.68-1.63A2.32,2.32,0,0,0,18.46,4.61ZM7.83,16.15a.45.45,0,0,1-.14.33.44.44,0,0,1-.32.13H6.44a.42.42,0,0,1-.32-.13A.45.45,0,0,1,6,16.15v-.92a.43.43,0,0,1,.14-.32.45.45,0,0,1,.32-.14h.93a.48.48,0,0,1,.32.13.47.47,0,0,1,.14.33Zm0-3.69a.47.47,0,0,1-.14.33.48.48,0,0,1-.32.13H6.44a.46.46,0,0,1-.32-.13A.47.47,0,0,1,6,12.46v-.92a.47.47,0,0,1,.14-.33.48.48,0,0,1,.32-.13h.93a.44.44,0,0,1,.32.13.47.47,0,0,1,.14.33Zm0-3.69a.47.47,0,0,1-.14.33.48.48,0,0,1-.32.13H6.44a.46.46,0,0,1-.32-.13A.47.47,0,0,1,6,8.77V7.85a.45.45,0,0,1,.14-.33.55.55,0,0,1,.32-.14h.93a.45.45,0,0,1,.32.14.45.45,0,0,1,.14.33Zm6,3.69h-3.7a.46.46,0,0,1-.32-.13.46.46,0,0,1,0-.66.46.46,0,0,1,.32-.13h3.7a.47.47,0,0,1,.17,0,.56.56,0,0,1,.15.1.65.65,0,0,1,.1.15.43.43,0,0,1,0,.36.65.65,0,0,1-.1.15.56.56,0,0,1-.15.1A.47.47,0,0,1,13.85,12.46ZM18,16.15a.45.45,0,0,1-.14.33.42.42,0,0,1-.32.13h-.92a.44.44,0,0,1-.33-.13.45.45,0,0,1-.14-.33v-.92a.47.47,0,0,1,.14-.33.49.49,0,0,1,.33-.13h.92a.48.48,0,0,1,.46.46Zm0-3.69a.47.47,0,0,1-.14.33.46.46,0,0,1-.32.13h-.92a.49.49,0,0,1-.33-.13.47.47,0,0,1-.14-.33v-.92a.47.47,0,0,1,.14-.33.44.44,0,0,1,.33-.13h.92a.46.46,0,0,1,.32.13.47.47,0,0,1,.14.33Zm0-3.69a.47.47,0,0,1-.14.33.46.46,0,0,1-.32.13h-.92a.49.49,0,0,1-.33-.13.47.47,0,0,1-.14-.33V7.85a.48.48,0,0,1,.47-.47h.92a.52.52,0,0,1,.32.14.45.45,0,0,1,.14.33Z"/><path class="cls-3" d="M18,7.85v.92a.47.47,0,0,1-.14.33.46.46,0,0,1-.32.13h-.92a.49.49,0,0,1-.33-.13.47.47,0,0,1-.14-.33V7.85a.48.48,0,0,1,.47-.47h.92a.52.52,0,0,1,.32.14A.45.45,0,0,1,18,7.85Z"/><path class="cls-3" d="M18,11.54v.92a.47.47,0,0,1-.14.33.46.46,0,0,1-.32.13h-.92a.49.49,0,0,1-.33-.13.47.47,0,0,1-.14-.33v-.92a.47.47,0,0,1,.14-.33.44.44,0,0,1,.33-.13h.92a.46.46,0,0,1,.32.13A.47.47,0,0,1,18,11.54Z"/><path class="cls-3" d="M18,15.23v.92a.45.45,0,0,1-.14.33.42.42,0,0,1-.32.13h-.92a.44.44,0,0,1-.33-.13.45.45,0,0,1-.14-.33v-.92a.47.47,0,0,1,.14-.33.49.49,0,0,1,.33-.13h.92a.48.48,0,0,1,.46.46Z"/><path class="cls-3" d="M7.83,15.23v.92a.45.45,0,0,1-.14.33.44.44,0,0,1-.32.13H6.44a.42.42,0,0,1-.32-.13A.45.45,0,0,1,6,16.15v-.92a.43.43,0,0,1,.14-.32.45.45,0,0,1,.32-.14h.93a.48.48,0,0,1,.32.13A.47.47,0,0,1,7.83,15.23Z"/><path class="cls-3" d="M7.83,11.54v.92a.47.47,0,0,1-.14.33.48.48,0,0,1-.32.13H6.44a.46.46,0,0,1-.32-.13A.47.47,0,0,1,6,12.46v-.92a.47.47,0,0,1,.14-.33.48.48,0,0,1,.32-.13h.93a.44.44,0,0,1,.32.13A.47.47,0,0,1,7.83,11.54Z"/><path class="cls-3" d="M7.83,7.85v.92a.47.47,0,0,1-.14.33.48.48,0,0,1-.32.13H6.44a.46.46,0,0,1-.32-.13A.47.47,0,0,1,6,8.77V7.85a.45.45,0,0,1,.14-.33.55.55,0,0,1,.32-.14h.93a.45.45,0,0,1,.32.14A.45.45,0,0,1,7.83,7.85Z"/></g></g></g></svg>