<svg xmlns="http://www.w3.org/2000/svg" viewBox="0 0 24 24"><defs><style>.cls-1{fill:none;}.cls-2,.cls-3{fill:#744cc6;}.cls-2{fill-opacity:0.5;}</style></defs><g id="Слой_2" data-name="Слой 2"><g id="Duotone"><g id="Filter_Duotone" data-name="Filter/Duotone"><rect class="cls-1" width="24" height="24"/><path class="cls-2" d="M22.15,12a.52.52,0,0,1,0,.21.45.45,0,0,1-.11.17.42.42,0,0,1-.18.11.45.45,0,0,1-.2,0H19.77a2.25,2.25,0,0,1-3.55,1.21,2.17,2.17,0,0,1-.8-1.21h-13A.56.56,0,0,1,2,12.38.55.55,0,0,1,1.85,12,.52.52,0,0,1,2,11.63a.51.51,0,0,1,.37-.15h13A2.26,2.26,0,0,1,17.6,9.77a2.24,2.24,0,0,1,2.18,1.71h1.85a.51.51,0,0,1,.52.52Z"/><path class="cls-3" d="M22.15,16.73a.45.45,0,0,1,0,.2.42.42,0,0,1-.11.18.54.54,0,0,1-.18.11.65.65,0,0,1-.2,0H8.52a2.27,2.27,0,0,1-4.38,0H2.38a.52.52,0,0,1-.37-.9.51.51,0,0,1,.37-.15H4.14A2.26,2.26,0,0,1,7.71,15a2.23,2.23,0,0,1,.81,1.22h13.1a.44.44,0,0,1,.2,0,.78.78,0,0,1,.18.11.42.42,0,0,1,.11.18A.45.45,0,0,1,22.15,16.73Z"/><path class="cls-3" d="M22.15,7.27a.51.51,0,0,1-.53.53H8.52A2.26,2.26,0,0,1,5,9,2.23,2.23,0,0,1,4.14,7.8H2.38A.56.56,0,0,1,2,7.65a.57.57,0,0,1-.16-.38A.51.51,0,0,1,2,6.9a.52.52,0,0,1,.37-.16H4.14a2.27,2.27,0,0,1,4.38,0h13.1a.45.45,0,0,1,.2,0,.78.78,0,0,1,.18.11.42.42,0,0,1,.11.18A.45.45,0,0,1,22.15,7.27Z"/></g></g></g></svg>