<svg xmlns="http://www.w3.org/2000/svg" viewBox="0 0 24 24"><defs><style>.cls-1{fill:none;}.cls-2,.cls-3{fill:#744cc6;}.cls-2{fill-opacity:0.5;}</style></defs><g id="Слой_2" data-name="Слой 2"><g id="Duotone"><g id="Flag_Triangular_Duotone" data-name="Flag/Triangular/Duotone"><rect class="cls-1" width="24" height="24"/><path class="cls-2" d="M6.79,20.77a.48.48,0,0,1-.46-.46V3.69a.48.48,0,0,1,.46-.46.45.45,0,0,1,.33.14.43.43,0,0,1,.14.32V20.31a.43.43,0,0,1-.14.32A.45.45,0,0,1,6.79,20.77Z"/><path class="cls-3" d="M17.67,8.37a1.43,1.43,0,0,1-.2.73,1.47,1.47,0,0,1-.56.52L10.19,13a1.36,1.36,0,0,1-.63.15,1.42,1.42,0,0,1-.72-.2,1.38,1.38,0,0,1-.48-.51,1.32,1.32,0,0,1-.18-.67V5a1.46,1.46,0,0,1,.17-.68,1.47,1.47,0,0,1,.49-.5,1.43,1.43,0,0,1,.67-.21,1.34,1.34,0,0,1,.68.16l6.72,3.4a1.44,1.44,0,0,1,.54.5A1.34,1.34,0,0,1,17.67,8.37Z"/></g></g></g></svg>