<svg xmlns="http://www.w3.org/2000/svg" viewBox="0 0 24 24"><defs><style>.cls-1{fill:none;}.cls-2,.cls-3{fill:#744cc6;}.cls-2{fill-opacity:0.5;}</style></defs><g id="Слой_2" data-name="Слой 2"><g id="Duotone"><g id="Flag_Rectangular_Duotone" data-name="Flag/Rectangular/Duotone"><rect class="cls-1" width="24" height="24"/><path class="cls-2" d="M16.66,9.5a.74.74,0,0,1,.2.38.85.85,0,0,1,0,.42,1.09,1.09,0,0,1-.42.43.94.94,0,0,1-.57.13H9V4.21h6.87a1.06,1.06,0,0,1,.57.13,1.08,1.08,0,0,1,.4.42.68.68,0,0,1,.05.42.72.72,0,0,1-.19.38l-1.85,2Z"/><path class="cls-3" d="M7.57,20.77a.48.48,0,0,1-.46-.46V3.69a.48.48,0,0,1,.46-.46.44.44,0,0,1,.33.14A.43.43,0,0,1,8,3.69V20.31a.43.43,0,0,1-.14.32A.44.44,0,0,1,7.57,20.77Z"/></g></g></g></svg>