<svg xmlns="http://www.w3.org/2000/svg" viewBox="0 0 24 24"><defs><style>.cls-1{fill:none;}.cls-2,.cls-3{fill:#744cc6;}.cls-3{fill-opacity:0.5;}</style></defs><g id="Слой_2" data-name="Слой 2"><g id="Duotone"><g id="Folder_Duotone" data-name="Folder/Duotone"><rect class="cls-1" width="24" height="24"/><path class="cls-2" d="M19.38,4.15H14.26a2.25,2.25,0,0,0-.8-1.32A2.31,2.31,0,0,0,9.74,4.15H4.62a.48.48,0,0,0-.47.47.43.43,0,0,0,.14.32.45.45,0,0,0,.33.14h.46a2.29,2.29,0,0,0-.46,1.38V19.39a2.29,2.29,0,0,0,2.3,2.3H17.08a2.29,2.29,0,0,0,2.3-2.3V6.46a2.29,2.29,0,0,0-.46-1.38h.46a.45.45,0,0,0,.33-.14.43.43,0,0,0,.14-.32.48.48,0,0,0-.47-.47ZM6.46,18.51v-.92A1.4,1.4,0,0,1,7.85,16.2h.92a1.38,1.38,0,0,1,1.38,1.39v.92a1.37,1.37,0,0,1-1.38,1.38H7.85a1.38,1.38,0,0,1-1.39-1.38ZM17.11,14.3H13.42a.55.55,0,0,1-.18,0,.46.46,0,0,1-.32-.43.45.45,0,0,1,.14-.33.42.42,0,0,1,.32-.13h3.7a.42.42,0,0,1,.32.13.45.45,0,0,1,.14.33.53.53,0,0,1-.13.31A.47.47,0,0,1,17.11,14.3Zm.43,2.85a.44.44,0,0,1-.1.32.45.45,0,0,1-.33.14H13.42a.42.42,0,0,1-.32-.13.46.46,0,0,1,0-.66.46.46,0,0,1,.32-.13h3.69a.46.46,0,0,1,.31.15A.48.48,0,0,1,17.54,17.15Zm-.43-4.61H13.42l-.21,0a.66.66,0,0,1-.17-.12.4.4,0,0,1-.1-.18.5.5,0,0,1,0-.21.47.47,0,0,1,.14-.33.46.46,0,0,1,.32-.13h3.7a.46.46,0,0,1,.32.13.5.5,0,0,1,0,.67A.5.5,0,0,1,17.11,12.54Zm0-3.32H13.42a.46.46,0,0,1-.32-.13.46.46,0,0,1,0-.66.46.46,0,0,1,.32-.13h3.69a.49.49,0,0,1,.33.13.47.47,0,0,1,.14.33.44.44,0,0,1-.14.33A.44.44,0,0,1,17.11,9.22ZM8.81,6a1.37,1.37,0,0,1,1.34,1.38v.92A1.37,1.37,0,0,1,8.77,9.69H7.85A1.38,1.38,0,0,1,6.46,8.31V7.39A1.4,1.4,0,0,1,7.85,6Zm1.38,6.46v.92a1.41,1.41,0,0,1-.11.54,1.29,1.29,0,0,1-.31.45,1.57,1.57,0,0,1-.47.3,1.43,1.43,0,0,1-.54.09H7.84a1.4,1.4,0,0,1-1.38-1.38v-.92a1.42,1.42,0,0,1,.4-1,1.39,1.39,0,0,1,1-.41h.92a1.39,1.39,0,0,1,.53.1,1.33,1.33,0,0,1,.76.76A1.44,1.44,0,0,1,10.19,12.47Zm2.74,6.45a.42.42,0,0,1,.15-.31.48.48,0,0,1,.34-.14h3.69a.45.45,0,0,1,.33.14.43.43,0,0,1,.14.32.58.58,0,0,1-.14.33.49.49,0,0,1-.33.13H13.42a.37.37,0,0,1-.18,0,.42.42,0,0,1-.16-.09.33.33,0,0,1-.11-.15A.52.52,0,0,1,12.93,18.92ZM17.1,7.39H13.41a.43.43,0,0,1-.32-.14A.45.45,0,0,1,13,6.92a.48.48,0,0,1,.46-.46H17.1a.44.44,0,0,1,.33.14.43.43,0,0,1,.14.32.48.48,0,0,1-.47.47Z"/><path class="cls-3" d="M17.57,18.92a.5.5,0,0,1-.14.35.44.44,0,0,1-.32.15H13.38a.41.41,0,0,1-.32-.15.48.48,0,0,1-.14-.35.52.52,0,0,1,.14-.35.43.43,0,0,1,.32-.14h3.73a.47.47,0,0,1,.33.14A.56.56,0,0,1,17.57,18.92Z"/><path class="cls-3" d="M17.57,17.15a.48.48,0,0,1-.13.32.47.47,0,0,1-.33.14H13.42a.47.47,0,0,1-.33-.14.46.46,0,0,1-.13-.32.49.49,0,0,1,.13-.33.46.46,0,0,1,.33-.13h3.69a.46.46,0,0,1,.33.13A.44.44,0,0,1,17.57,17.15Z"/><path class="cls-3" d="M17.57,13.83a.46.46,0,0,1-.47.46H13.35a.43.43,0,0,1-.33-.13.45.45,0,0,1-.14-.33.43.43,0,0,1,.14-.32.44.44,0,0,1,.33-.14H17.1a.48.48,0,0,1,.34.14A.46.46,0,0,1,17.57,13.83Z"/><path class="cls-3" d="M17.57,12.05a.54.54,0,0,1-.14.36.45.45,0,0,1-.33.15H13.35a.41.41,0,0,1-.33-.15.52.52,0,0,1-.14-.36.55.55,0,0,1,.14-.37.41.41,0,0,1,.33-.15H17.1a.45.45,0,0,1,.34.15A.59.59,0,0,1,17.57,12.05Z"/><path class="cls-3" d="M17.57,8.76a.51.51,0,0,1-.13.33.47.47,0,0,1-.33.14H13.42a.47.47,0,0,1-.33-.14A.51.51,0,0,1,13,8.76a.51.51,0,0,1,.13-.34.47.47,0,0,1,.33-.14h3.69a.46.46,0,0,1,.46.48Z"/><path class="cls-3" d="M17.57,6.92a.45.45,0,0,1-.14.33.52.52,0,0,1-.32.14H13.37A.47.47,0,0,1,13,7.25a.45.45,0,0,1-.14-.33A.43.43,0,0,1,13,6.6a.47.47,0,0,1,.33-.14h3.74a.47.47,0,0,1,.33.14A.46.46,0,0,1,17.57,6.92Z"/><path class="cls-2" d="M9.23,7.39v.92a.46.46,0,0,1-.13.32.47.47,0,0,1-.33.14H7.85a.45.45,0,0,1-.33-.14.43.43,0,0,1-.14-.32V7.39a.48.48,0,0,1,.47-.47h.92a.47.47,0,0,1,.33.14A.49.49,0,0,1,9.23,7.39Z"/><path class="cls-2" d="M9.23,12.47v.92a.49.49,0,0,1-.13.33.47.47,0,0,1-.33.14H7.85a.48.48,0,0,1-.47-.47v-.92a.52.52,0,0,1,.14-.32A.45.45,0,0,1,7.85,12h.92a.44.44,0,0,1,.46.46Z"/><path class="cls-2" d="M9.23,17.59v.92a.46.46,0,0,1-.13.32.47.47,0,0,1-.33.14H7.85a.45.45,0,0,1-.33-.14.43.43,0,0,1-.14-.32v-.92a.48.48,0,0,1,.47-.47h.92a.47.47,0,0,1,.33.14A.49.49,0,0,1,9.23,17.59Z"/></g></g></g></svg>