<svg xmlns="http://www.w3.org/2000/svg" viewBox="0 0 24 24"><defs><style>.cls-1{fill:none;}.cls-2,.cls-3{fill:#744cc6;}.cls-3{fill-opacity:0.5;}</style></defs><g id="Слой_2" data-name="Слой 2"><g id="Duotone"><g id="Forward_Fast_Duotone" data-name="Forward/Fast/Duotone"><rect class="cls-1" width="24" height="24"/><path class="cls-2" d="M12,3.23A8.77,8.77,0,1,0,18.2,5.8,8.81,8.81,0,0,0,12,3.23Zm-.45,9.23L9,15.53a.48.48,0,0,1-.16.12.43.43,0,0,1-.19,0,.54.54,0,0,1-.3-.1.47.47,0,0,1-.16-.31.48.48,0,0,1,.1-.35L10.73,12,8.31,9.07a.49.49,0,0,1-.11-.35.53.53,0,0,1,.17-.31.43.43,0,0,1,.34-.1A.47.47,0,0,1,9,8.47l2.52,3.07a.71.71,0,0,1,0,.92Zm4.08,0L13.1,15.53a.48.48,0,0,1-.16.12.43.43,0,0,1-.19,0,.54.54,0,0,1-.3-.1.53.53,0,0,1-.17-.31.49.49,0,0,1,.09-.35L14.79,12,12.37,9.07a.56.56,0,0,1-.09-.17.55.55,0,0,1,0-.18.48.48,0,0,1,.05-.18.53.53,0,0,1,.12-.14.45.45,0,0,1,.35-.1l.18,0a.81.81,0,0,1,.14.12l2.52,3.07a.74.74,0,0,1,0,.92Z"/><path class="cls-3" d="M15.63,12.46,13.1,15.53a.48.48,0,0,1-.16.12.43.43,0,0,1-.19,0,.54.54,0,0,1-.3-.1.53.53,0,0,1-.17-.31.49.49,0,0,1,.09-.35L14.79,12,12.37,9.07a.56.56,0,0,1-.09-.17.55.55,0,0,1,0-.18.48.48,0,0,1,.05-.18.53.53,0,0,1,.12-.14.45.45,0,0,1,.35-.1l.18,0a.81.81,0,0,1,.14.12l2.52,3.07a.74.74,0,0,1,0,.92Z"/><path class="cls-3" d="M11.55,12.46,9,15.53a.48.48,0,0,1-.16.12.43.43,0,0,1-.19,0,.54.54,0,0,1-.3-.1.47.47,0,0,1-.16-.31.48.48,0,0,1,.1-.35L10.73,12,8.31,9.07a.49.49,0,0,1-.11-.35.53.53,0,0,1,.17-.31.43.43,0,0,1,.34-.1A.47.47,0,0,1,9,8.47l2.52,3.07a.71.71,0,0,1,0,.92Z"/></g></g></g></svg>