<svg xmlns="http://www.w3.org/2000/svg" viewBox="0 0 24 24"><defs><style>.cls-1{fill:none;}.cls-2,.cls-3{fill:#744cc6;}.cls-3{fill-opacity:0.5;}</style></defs><g id="Слой_2" data-name="Слой 2"><g id="Duotone"><g id="Forward_Duotone" data-name="Forward/Duotone"><rect class="cls-1" width="24" height="24"/><path class="cls-2" d="M5.54,20.77H18.46a2.32,2.32,0,0,0,2.31-2.31V5.54a2.32,2.32,0,0,0-2.31-2.31H5.54A2.32,2.32,0,0,0,3.23,5.54V18.46a2.32,2.32,0,0,0,2.31,2.31Zm4.82-11.7a.51.51,0,0,1-.09-.16.55.55,0,0,1,0-.18.49.49,0,0,1,.06-.17.3.3,0,0,1,.11-.14.44.44,0,0,1,.29-.11.46.46,0,0,1,.2,0,.61.61,0,0,1,.16.12l2.52,3.06a.74.74,0,0,1,0,.92l-2.52,3.06a.47.47,0,0,1-.65.06.3.3,0,0,1-.11-.14.49.49,0,0,1-.06-.17.55.55,0,0,1,0-.18.46.46,0,0,1,.09-.15L12.78,12Z"/><path class="cls-3" d="M10.36,9.07a.51.51,0,0,1-.09-.16.55.55,0,0,1,0-.18.49.49,0,0,1,.06-.17.3.3,0,0,1,.11-.14.44.44,0,0,1,.29-.11.46.46,0,0,1,.2,0,.61.61,0,0,1,.16.12l2.52,3.06a.74.74,0,0,1,0,.92l-2.52,3.06a.47.47,0,0,1-.65.06.3.3,0,0,1-.11-.14.49.49,0,0,1-.06-.17.55.55,0,0,1,0-.18.46.46,0,0,1,.09-.15L12.78,12Z"/></g></g></g></svg>