<svg xmlns="http://www.w3.org/2000/svg" viewBox="0 0 24 24"><defs><style>.cls-1{fill:none;}.cls-2,.cls-3{fill:#744cc6;}.cls-2{fill-opacity:0.5;}</style></defs><g id="Слой_2" data-name="Слой 2"><g id="Duotone"><g id="Graph_Duotone" data-name="Graph/Duotone"><rect class="cls-1" width="24" height="24"/><path class="cls-2" d="M20.56,20.31a.48.48,0,0,1-.46.46H4.91a1.5,1.5,0,0,1-1-.43,1.51,1.51,0,0,1-.44-1V3.69a.46.46,0,0,1,.13-.32.46.46,0,0,1,.66,0,.46.46,0,0,1,.13.32v8.49L7.25,9l2.68,2.9,3.69-3.53V7.69a.44.44,0,0,1,.46-.46H15a.51.51,0,0,1,.33.13.46.46,0,0,1,.13.33v.92a.44.44,0,0,1-.46.46h-.81L9.93,13.19,7.26,10.34l-2.9,3.24V19l6-2.9,2.86,1.43,5.24-5.37v-.44a.49.49,0,0,1,.13-.33.47.47,0,0,1,.33-.14h.92a.47.47,0,0,1,.33.14.44.44,0,0,1,.13.33v.92a.42.42,0,0,1-.13.32.47.47,0,0,1-.33.14h-1l-5.41,5.54-3.07-1.54L4.8,19.79a.43.43,0,0,0,.16,0H20.1a.43.43,0,0,1,.19,0,.61.61,0,0,1,.16.12.42.42,0,0,1,.09.16A.46.46,0,0,1,20.56,20.31Z"/><path class="cls-3" d="M15,7.23h-.92a.45.45,0,0,0-.46.46v.92a.46.46,0,0,0,.46.47H15a.46.46,0,0,0,.46-.47V7.69A.45.45,0,0,0,15,7.23Z"/><path class="cls-3" d="M19.82,11.24H18.9a.46.46,0,0,0-.46.47v.92a.46.46,0,0,0,.46.46h.92a.46.46,0,0,0,.46-.46v-.92A.46.46,0,0,0,19.82,11.24Z"/></g></g></g></svg>