<svg xmlns="http://www.w3.org/2000/svg" viewBox="0 0 24 24"><defs><style>.cls-1{fill:none;}.cls-2,.cls-3{fill:#744cc6;}.cls-3{fill-opacity:0.5;}</style></defs><g id="Слой_2" data-name="Слой 2"><g id="Duotone"><g id="Home_Duotone" data-name="Home/Duotone"><rect class="cls-1" width="24" height="24"/><path class="cls-2" d="M20.6,10.22l-.75-.6-.93-.74L16.1,6.64,15,5.72,12.72,4A1.1,1.1,0,0,0,12,3.69a1.12,1.12,0,0,0-.72.26L9.05,5.72,7.9,6.64,5.08,8.88l-.92.73-.76.6a.51.51,0,0,0-.15.23.53.53,0,0,0,0,.28.62.62,0,0,0,.17.22.5.5,0,0,0,.26.08.38.38,0,0,0,.29-.1l.18-.14V18a2.42,2.42,0,0,0,.17.88,2.33,2.33,0,0,0,.51.74,2.17,2.17,0,0,0,.74.49,2.42,2.42,0,0,0,.88.17H17.54a2.42,2.42,0,0,0,.88-.17,2.29,2.29,0,0,0,1.24-1.23,2.23,2.23,0,0,0,.18-.88V10.79l.16.14a.48.48,0,0,0,.35.1.46.46,0,0,0,.25-.81ZM14.77,15a1.37,1.37,0,0,1-1.38,1.38H10.62a1.38,1.38,0,0,1-1-.4,1.4,1.4,0,0,1-.41-1V12.18a1.39,1.39,0,0,1,.41-1,1.43,1.43,0,0,1,1-.41h2.77a1.4,1.4,0,0,1,1,.41,1.38,1.38,0,0,1,.4,1Z"/><path class="cls-3" d="M13.39,11.72H10.62a.46.46,0,0,0-.46.47V15a.46.46,0,0,0,.46.46h2.77a.47.47,0,0,0,.46-.46V12.19A.47.47,0,0,0,13.39,11.72Z"/></g></g></g></svg>