<svg xmlns="http://www.w3.org/2000/svg" viewBox="0 0 24 24"><defs><style>.cls-1{fill:none;}.cls-2,.cls-3{fill:#744cc6;}.cls-3{fill-opacity:0.5;}</style></defs><g id="Слой_2" data-name="Слой 2"><g id="Duotone"><g id="Internet_Duotone" data-name="Internet/Duotone"><rect class="cls-1" width="24" height="24"/><path class="cls-2" d="M20.31,11.64a8.3,8.3,0,0,0-4.62-7.08,8.27,8.27,0,0,0-5.48-.68,8.6,8.6,0,0,0-1.92.68,8.3,8.3,0,0,0,0,14.87,8.6,8.6,0,0,0,1.92.68,8.22,8.22,0,0,0,3.56,0,8.6,8.6,0,0,0,1.92-.68,8.3,8.3,0,0,0,3.24-2.84,8.39,8.39,0,0,0,1.38-4.08V12C20.31,11.82,20.32,11.76,20.31,11.64ZM10.23,4.78a8,8,0,0,1,.83.26A8.22,8.22,0,0,0,8.37,7.88a8.32,8.32,0,0,0-1.1,3.76H4.59a7.47,7.47,0,0,1,5.64-6.86Zm0,14.43A7.46,7.46,0,0,1,4.59,12.5H7.28A8.24,8.24,0,0,0,8.4,16.18,8.13,8.13,0,0,0,11.06,19,6.09,6.09,0,0,1,10.23,19.21Zm1.32-1a7.37,7.37,0,0,1-2.38-2.46,7.44,7.44,0,0,1-1-3.27h3.39Zm0-6.59H8.15a7.44,7.44,0,0,1,1-3.35,7.33,7.33,0,0,1,2.42-2.53Zm.92-5.88A7.33,7.33,0,0,1,14.9,8.28a7.43,7.43,0,0,1,1,3.36H12.47Zm0,6.75h3.39a7.49,7.49,0,0,1-1,3.26,7.37,7.37,0,0,1-2.38,2.46Zm1.32,6.7A8,8,0,0,1,13,19a8.32,8.32,0,0,0,3.77-6.46h2.69a7.37,7.37,0,0,1-5.63,6.72Zm2.95-7.57a8.31,8.31,0,0,0-1.09-3.76A8.22,8.22,0,0,0,13,5a8,8,0,0,1,.83-.26,7.44,7.44,0,0,1,5.64,6.86Z"/><path class="cls-3" d="M19.43,11.64H16.74a8.31,8.31,0,0,0-1.09-3.76A8.22,8.22,0,0,0,13,5a8,8,0,0,1,.83-.26,7.44,7.44,0,0,1,5.64,6.86Z"/><path class="cls-3" d="M19.43,12.48a7.42,7.42,0,0,1-5.64,6.74A8,8,0,0,1,13,19a8.38,8.38,0,0,0,2.66-2.8,8.47,8.47,0,0,0,1.11-3.7Z"/><path class="cls-3" d="M15.91,12.5a7.38,7.38,0,0,1-3.44,5.72V12.5Z"/><path class="cls-3" d="M15.91,11.64H12.47V5.76A7.33,7.33,0,0,1,14.9,8.28,7.43,7.43,0,0,1,15.91,11.64Z"/><path class="cls-3" d="M11.55,5.76v5.88H8.15a7.44,7.44,0,0,1,1-3.35A7.33,7.33,0,0,1,11.55,5.76Z"/><path class="cls-3" d="M11.55,12.5v5.72a7.27,7.27,0,0,1-2.38-2.46,7.36,7.36,0,0,1-1-3.26Z"/><path class="cls-3" d="M11.06,19a6.13,6.13,0,0,1-.83.26A7.43,7.43,0,0,1,4.59,12.5H7.28A8.24,8.24,0,0,0,8.4,16.18,8.13,8.13,0,0,0,11.06,19Z"/><path class="cls-3" d="M11.06,5A8.22,8.22,0,0,0,8.37,7.88a8.32,8.32,0,0,0-1.1,3.76H4.59a7.47,7.47,0,0,1,5.64-6.86A8,8,0,0,1,11.06,5Z"/></g></g></g></svg>