<svg xmlns="http://www.w3.org/2000/svg" viewBox="0 0 24 24"><defs><style>.cls-1{fill:none;}.cls-2,.cls-3{fill:#744cc6;}.cls-3{fill-opacity:0.5;}</style></defs><g id="Слой_2" data-name="Слой 2"><g id="Duotone"><g id="Key_Duotone" data-name="Key/Duotone"><rect class="cls-1" width="24" height="24"/><path class="cls-2" d="M10.42,18.89,8.06,16.52l.81-.8,2.36,2.36a.48.48,0,0,0,.32.13.46.46,0,0,0,.33-.79L9.52,15.06l3.26-3.26a4.24,4.24,0,0,0,3,.9,4.17,4.17,0,1,0-3.6-1.55L5.6,17.67a.47.47,0,0,0,.66.66L7.4,17.18l2.37,2.36a.42.42,0,0,0,.32.13.44.44,0,0,0,.46-.46A.42.42,0,0,0,10.42,18.89ZM14.55,8.23l.54-.54a.46.46,0,0,1,.32-.13.49.49,0,0,1,.33.13l.53.54a.45.45,0,0,1,.14.32.45.45,0,0,1-.14.33l-.53.54a.49.49,0,0,1-.33.13.46.46,0,0,1-.32-.13l-.58-.58a.42.42,0,0,1-.11-.32A.41.41,0,0,1,14.55,8.23Z"/><path class="cls-3" d="M15.76,7.58l.65.65a.45.45,0,0,1,.14.33.43.43,0,0,1-.14.32l-.65.66a.49.49,0,0,1-.33.13.46.46,0,0,1-.32-.13l-.65-.66a.43.43,0,0,1-.14-.32.45.45,0,0,1,.14-.33l.65-.65a.43.43,0,0,1,.32-.14A.45.45,0,0,1,15.76,7.58Z"/></g></g></g></svg>