<svg xmlns="http://www.w3.org/2000/svg" viewBox="0 0 24 24"><defs><style>.cls-1{fill:none;}.cls-2,.cls-3{fill:#744cc6;}.cls-3{fill-opacity:0.5;}</style></defs><g id="Слой_2" data-name="Слой 2"><g id="Duotone"><g id="Keyboard_Duotone" data-name="Keyboard/Duotone"><rect class="cls-1" width="24" height="24"/><path class="cls-2" d="M18.46,6H5.54a2.25,2.25,0,0,0-.89.18,2.35,2.35,0,0,0-.75.5,2.45,2.45,0,0,0-.5.76,2.42,2.42,0,0,0-.17.88V15.7a2.28,2.28,0,0,0,.67,1.63,2.38,2.38,0,0,0,.75.51,2.47,2.47,0,0,0,.89.17H18.46a2.43,2.43,0,0,0,.89-.17,2.38,2.38,0,0,0,.75-.51,2.28,2.28,0,0,0,.67-1.63V8.31a2.42,2.42,0,0,0-.17-.88,2.45,2.45,0,0,0-.5-.76,2.35,2.35,0,0,0-.75-.5A2.25,2.25,0,0,0,18.46,6Zm-9.23,8.3a.49.49,0,0,1-.13.33.47.47,0,0,1-.33.14H7.85a.45.45,0,0,1-.33-.14.44.44,0,0,1-.13-.33v-.92a.46.46,0,0,1,.13-.32.45.45,0,0,1,.33-.14h.92a.44.44,0,0,1,.46.46Zm0-3.69a.44.44,0,0,1-.46.46H7.85a.49.49,0,0,1-.33-.13.46.46,0,0,1-.13-.33V9.68a.51.51,0,0,1,.13-.33.49.49,0,0,1,.33-.13h.92a.44.44,0,0,1,.46.46Zm3.69,3.69a.44.44,0,0,1-.13.33.47.47,0,0,1-.33.14h-.92a.47.47,0,0,1-.33-.14.49.49,0,0,1-.13-.33v-.92a.48.48,0,0,1,.46-.46h.92a.51.51,0,0,1,.33.13.46.46,0,0,1,.13.33Zm0-3.69a.46.46,0,0,1-.13.33.51.51,0,0,1-.33.13h-.92a.44.44,0,0,1-.46-.46V9.68a.47.47,0,0,1,.14-.33.46.46,0,0,1,.32-.13h.92a.51.51,0,0,1,.33.13.46.46,0,0,1,.13.33Zm3.7,3.69a.48.48,0,0,1-.47.47h-.92a.47.47,0,0,1-.33-.14.49.49,0,0,1-.13-.33v-.92a.48.48,0,0,1,.46-.46h.92a.49.49,0,0,1,.33.13.47.47,0,0,1,.14.33Zm0-3.69a.47.47,0,0,1-.14.33.49.49,0,0,1-.33.13h-.92a.44.44,0,0,1-.46-.46V9.68a.47.47,0,0,1,.14-.33.46.46,0,0,1,.32-.13h.92a.49.49,0,0,1,.33.13.47.47,0,0,1,.14.33Z"/><path class="cls-3" d="M9.23,13.37v.92a.49.49,0,0,1-.13.33.47.47,0,0,1-.33.14H7.85a.45.45,0,0,1-.33-.14.44.44,0,0,1-.13-.33v-.92a.46.46,0,0,1,.13-.32.45.45,0,0,1,.33-.14h.92a.44.44,0,0,1,.46.46Z"/><path class="cls-3" d="M12.92,13.37v.92a.44.44,0,0,1-.13.33.47.47,0,0,1-.33.14h-.92a.47.47,0,0,1-.33-.14.49.49,0,0,1-.13-.33v-.92a.48.48,0,0,1,.46-.46h.92a.51.51,0,0,1,.33.13A.46.46,0,0,1,12.92,13.37Z"/><path class="cls-3" d="M16.62,13.37v.92a.48.48,0,0,1-.47.47h-.92a.47.47,0,0,1-.33-.14.49.49,0,0,1-.13-.33v-.92a.48.48,0,0,1,.46-.46h.92a.49.49,0,0,1,.33.13A.47.47,0,0,1,16.62,13.37Z"/><path class="cls-3" d="M16.62,9.68v.92a.47.47,0,0,1-.14.33.49.49,0,0,1-.33.13h-.92a.44.44,0,0,1-.46-.46V9.68a.47.47,0,0,1,.14-.33.46.46,0,0,1,.32-.13h.92a.49.49,0,0,1,.33.13A.47.47,0,0,1,16.62,9.68Z"/><path class="cls-3" d="M12.92,9.68v.92a.46.46,0,0,1-.13.33.51.51,0,0,1-.33.13h-.92a.44.44,0,0,1-.46-.46V9.68a.47.47,0,0,1,.14-.33.46.46,0,0,1,.32-.13h.92a.51.51,0,0,1,.33.13A.46.46,0,0,1,12.92,9.68Z"/><path class="cls-3" d="M9.23,9.68v.92a.44.44,0,0,1-.46.46H7.85a.49.49,0,0,1-.33-.13.46.46,0,0,1-.13-.33V9.68a.51.51,0,0,1,.13-.33.49.49,0,0,1,.33-.13h.92a.44.44,0,0,1,.46.46Z"/></g></g></g></svg>