<svg xmlns="http://www.w3.org/2000/svg" viewBox="0 0 24 24"><defs><style>.cls-1{fill:none;}.cls-2,.cls-3{fill:#744cc6;}.cls-3{opacity:0.5;isolation:isolate;}</style></defs><g id="Слой_2" data-name="Слой 2"><g id="Duotone"><g id="Keyhole_Duotone" data-name="Keyhole/Duotone"><rect class="cls-1" width="24" height="24"/><path class="cls-2" d="M16.51,13.14a6,6,0,0,0,1.31-5.42,6,6,0,0,0-3.71-4.15A6,6,0,0,0,6.68,6.4,6.15,6.15,0,0,0,6,9.19a5.91,5.91,0,0,0,1.49,3.94l-1.25,6a1.4,1.4,0,0,0,0,.61,1.42,1.42,0,0,0,.27.55,1.29,1.29,0,0,0,.47.37,1.39,1.39,0,0,0,.6.14H16.4a1.39,1.39,0,0,0,.6-.14,1.37,1.37,0,0,0,.48-.38,1.42,1.42,0,0,0,.27-.55,1.35,1.35,0,0,0,0-.6Zm-1.12,5.18h-.1a.48.48,0,0,1-.29-.1.56.56,0,0,1-.17-.26l-.78-3.61a.61.61,0,0,1,0-.19.36.36,0,0,1,.07-.17.49.49,0,0,1,.12-.13.61.61,0,0,1,.17-.07.41.41,0,0,1,.19,0,.49.49,0,0,1,.17.06.53.53,0,0,1,.13.13.51.51,0,0,1,.07.17l.78,3.66a.46.46,0,0,1-.09.32A.48.48,0,0,1,15.39,18.32Z"/><path class="cls-3" d="M15.75,17.78a.5.5,0,0,1-.07.34.42.42,0,0,1-.29.2h-.1a.43.43,0,0,1-.29-.1.48.48,0,0,1-.17-.26l-.78-3.61a.54.54,0,0,1,0-.18.36.36,0,0,1,.07-.17.37.37,0,0,1,.12-.13.41.41,0,0,1,.17-.07.41.41,0,0,1,.19,0,.51.51,0,0,1,.17.07.53.53,0,0,1,.13.13.51.51,0,0,1,.07.17Z"/></g></g></g></svg>