<svg xmlns="http://www.w3.org/2000/svg" viewBox="0 0 24 24"><defs><style>.cls-1{fill:none;}.cls-2,.cls-3{fill:#744cc6;}.cls-2{fill-opacity:0.5;}</style></defs><g id="Слой_2" data-name="Слой 2"><g id="Duotone"><g id="Lightbulb_Off_Duotone" data-name="Lightbulb/Off/Duotone"><rect class="cls-1" width="24" height="24"/><path class="cls-2" d="M13.44,18.65a1.66,1.66,0,0,1-.57.71,1.59,1.59,0,0,1-1.74,0,1.52,1.52,0,0,1-.57-.71Z"/><path class="cls-2" d="M16.46,16.75a.94.94,0,0,1-.31.66,1,1,0,0,1-.68.26H8.53a1,1,0,0,1-.68-.26.88.88,0,0,1-.14-1.19.91.91,0,0,1,.44-.33,1.12,1.12,0,0,1,.36-.09h7a.84.84,0,0,1,.31.08.9.9,0,0,1,.62.87Z"/><path class="cls-3" d="M16.71,7a5.41,5.41,0,0,0-1.77-1.79,5.52,5.52,0,0,0-4.89-.49A5.51,5.51,0,0,0,8,6.13,5.2,5.2,0,0,0,6.81,8.06a5.27,5.27,0,0,0-.22,2.23A7.33,7.33,0,0,0,7.23,12c.13.3.27.55.36.72l1.12,2.13h2.81V11.32a.46.46,0,1,1,.92,0v3.53h2.83l1.14-2.17c.11-.22.22-.41.34-.64a9.93,9.93,0,0,0,.66-1.85A4.81,4.81,0,0,0,16.71,7ZM13.84,9.92H10.15a.43.43,0,0,1-.32-.14.45.45,0,0,1-.14-.33A.48.48,0,0,1,10.15,9h3.69a.45.45,0,0,1,.33.14.43.43,0,0,1,.14.32.48.48,0,0,1-.47.47Z"/></g></g></g></svg>