<svg xmlns="http://www.w3.org/2000/svg" viewBox="0 0 24 24"><defs><style>.cls-1{fill:none;}.cls-2,.cls-3{fill:#744cc6;}.cls-3{fill-opacity:0.5;}</style></defs><g id="Слой_2" data-name="Слой 2"><g id="Duotone"><g id="Lightbulb_On_Duotone" data-name="Lightbulb/On/Duotone"><rect class="cls-1" width="24" height="24"/><path class="cls-2" d="M13.39,22.14a1.52,1.52,0,0,1-2.21.66,1.57,1.57,0,0,1-.56-.66Z"/><path class="cls-2" d="M16.38,20.28a.89.89,0,0,1-.07.36.84.84,0,0,1-.22.31,1,1,0,0,1-.31.2,1,1,0,0,1-.37.05H8.57a1,1,0,0,1-.65-.27.93.93,0,0,1-.27-.65,1,1,0,0,1,.17-.52.93.93,0,0,1,.43-.33,1.61,1.61,0,0,1,.36-.1h6.91a1.14,1.14,0,0,1,.3.09.91.91,0,0,1,.41.34A.86.86,0,0,1,16.38,20.28Z"/><path class="cls-3" d="M17.31,13.86a9.23,9.23,0,0,1-.65,1.85l-.33.63-1.1,2.09H8.77l-1.1-2.09c-.08-.18-.22-.42-.36-.71a8.15,8.15,0,0,1-.63-1.69A5.19,5.19,0,0,1,8,9.85a5.45,5.45,0,0,1,4.52-1.67A5.43,5.43,0,0,1,14.89,9a5.49,5.49,0,0,1,1.75,1.74A4.78,4.78,0,0,1,17.31,13.86Z"/><path class="cls-3" d="M11.82,6.34a.45.45,0,0,1-.33-.14.43.43,0,0,1-.14-.32V1.42a.47.47,0,0,1,.14-.33A.49.49,0,0,1,11.82,1a.48.48,0,0,1,.32.13.47.47,0,0,1,.14.33V5.88a.43.43,0,0,1-.14.32A.45.45,0,0,1,11.82,6.34Z"/><path class="cls-3" d="M14.55,6.34a.53.53,0,0,1-.25-.08A.47.47,0,0,1,14.1,6a.45.45,0,0,1,.07-.34l1.46-2.24a.47.47,0,0,1,.29-.2.45.45,0,0,1,.34.07.45.45,0,0,1,.21.29.48.48,0,0,1-.07.35L14.93,6.13a.39.39,0,0,1-.16.15A.46.46,0,0,1,14.55,6.34Z"/><path class="cls-3" d="M9.07,6.34a.43.43,0,0,1-.22-.06.49.49,0,0,1-.17-.15L7.22,3.9a.48.48,0,0,1-.07-.35.45.45,0,0,1,.21-.29.45.45,0,0,1,.34-.07.47.47,0,0,1,.29.2L9.45,5.63A.45.45,0,0,1,9.52,6a.47.47,0,0,1-.2.29A.53.53,0,0,1,9.07,6.34Z"/></g></g></g></svg>