<svg xmlns="http://www.w3.org/2000/svg" viewBox="0 0 24 24"><defs><style>.cls-1{fill:none;}.cls-2,.cls-3{fill:#744cc6;}.cls-3{fill-opacity:0.5;}</style></defs><g id="Слой_2" data-name="Слой 2"><g id="Duotone"><g id="Loading_Finish_Duotone" data-name="Loading/Finish/Duotone"><rect class="cls-1" width="24" height="24"/><path class="cls-2" d="M12,20.77a.46.46,0,0,1-.32-.13.47.47,0,0,1-.14-.33V18.24a.49.49,0,0,1,.13-.33.46.46,0,0,1,.66,0,.49.49,0,0,1,.13.33V20.3a.52.52,0,0,1,0,.18.54.54,0,0,1-.1.16.56.56,0,0,1-.15.1A.57.57,0,0,1,12,20.77Z"/><path class="cls-2" d="M12,6.23a.47.47,0,0,1-.33-.14.46.46,0,0,1-.13-.32V3.69a.51.51,0,0,1,.13-.33.48.48,0,0,1,.66,0,.51.51,0,0,1,.13.33V5.76a.47.47,0,0,1,0,.17.54.54,0,0,1-.1.16.4.4,0,0,1-.15.1A.58.58,0,0,1,12,6.23Z"/><path class="cls-2" d="M5.77,12.47H3.69a.47.47,0,0,1-.32-.14A.45.45,0,0,1,3.23,12a.45.45,0,0,1,.14-.33.43.43,0,0,1,.32-.14H5.77a.47.47,0,0,1,.33.14.49.49,0,0,1,.13.33.48.48,0,0,1-.13.32A.47.47,0,0,1,5.77,12.47Z"/><path class="cls-2" d="M20.31,12.47H18.24a.47.47,0,0,1-.33-.14.48.48,0,0,1-.13-.32.49.49,0,0,1,.13-.33.47.47,0,0,1,.33-.14h2.07a.43.43,0,0,1,.32.14.45.45,0,0,1,.14.33.45.45,0,0,1-.14.32A.43.43,0,0,1,20.31,12.47Z"/><path class="cls-3" d="M7.6,8.05a.51.51,0,0,1-.34-.13L5.81,6.46a.44.44,0,0,1-.1-.15.42.42,0,0,1,0-.36.44.44,0,0,1,.1-.15A.45.45,0,0,1,6,5.7a.39.39,0,0,1,.18,0,.33.33,0,0,1,.17,0,.4.4,0,0,1,.15.1L7.92,7.27A.43.43,0,0,1,8,7.5a.5.5,0,0,1,0,.27.55.55,0,0,1-.17.2A.39.39,0,0,1,7.6,8.05Z"/><path class="cls-3" d="M17.88,18.34a.45.45,0,0,1-.33-.14l-1.42-1.46a.56.56,0,0,1-.1-.15.55.55,0,0,1,0-.36.57.57,0,0,1,.25-.25.57.57,0,0,1,.18,0,.47.47,0,0,1,.17,0,.42.42,0,0,1,.15.11l1.47,1.46a.55.55,0,0,1,.12.24.46.46,0,0,1,0,.26.51.51,0,0,1-.17.21.46.46,0,0,1-.25.08Z"/><path class="cls-3" d="M6.13,18.34a.39.39,0,0,1-.18,0,.45.45,0,0,1-.14-.1.42.42,0,0,1-.11-.15.47.47,0,0,1,0-.17.57.57,0,0,1,0-.18.42.42,0,0,1,.11-.15l1.45-1.46a.46.46,0,0,1,.66,0,.42.42,0,0,1,.13.32.44.44,0,0,1-.13.33L6.45,18.2a.4.4,0,0,1-.15.1A.33.33,0,0,1,6.13,18.34Z"/><path class="cls-3" d="M16.41,8.05a.47.47,0,0,1-.17,0,.56.56,0,0,1-.15-.1.44.44,0,0,1-.1-.15.39.39,0,0,1,0-.18.33.33,0,0,1,0-.17.31.31,0,0,1,.1-.15L17.55,5.8a.47.47,0,0,1,.33-.13.46.46,0,0,1,.32.13.46.46,0,0,1,0,.66L16.74,7.92l-.15.1Z"/></g></g></g></svg>