<svg xmlns="http://www.w3.org/2000/svg" viewBox="0 0 24 24"><defs><style>.cls-1{fill:none;}.cls-2,.cls-3{fill:#744cc6;}.cls-2{fill-opacity:0.5;}</style></defs><g id="Слой_2" data-name="Слой 2"><g id="Duotone"><g id="Loading_Start_Duotone" data-name="Loading/Start/Duotone"><rect class="cls-1" width="24" height="24"/><path class="cls-2" d="M11.69,20.77a.46.46,0,0,1-.33-.13.51.51,0,0,1-.13-.33v-.49a.46.46,0,0,1,.13-.32.47.47,0,0,1,.33-.14.43.43,0,0,1,.32.14.45.45,0,0,1,.14.32v.48a.46.46,0,0,1-.46.47Z"/><path class="cls-3" d="M11.69,6.34a.47.47,0,0,1-.33-.14.48.48,0,0,1-.13-.32V3.69a.51.51,0,0,1,.13-.33.48.48,0,0,1,.66,0,.51.51,0,0,1,.13.33V5.87A.51.51,0,0,1,12,6.2.52.52,0,0,1,11.69,6.34Z"/><path class="cls-2" d="M4.63,12.92H3.71a.45.45,0,0,1-.33-.14.43.43,0,0,1-.14-.32.47.47,0,0,1,.14-.33A.44.44,0,0,1,3.71,12h.92a.46.46,0,0,1,.33.13.51.51,0,0,1,.13.33.46.46,0,0,1-.13.32A.47.47,0,0,1,4.63,12.92Z"/><path class="cls-3" d="M20.29,12.92H18.14a.48.48,0,0,1-.46-.46.47.47,0,0,1,.14-.33.42.42,0,0,1,.32-.13h2.15a.44.44,0,0,1,.33.13.47.47,0,0,1,.14.33.52.52,0,0,1-.14.32A.45.45,0,0,1,20.29,12.92Z"/><path class="cls-3" d="M6.83,8a.45.45,0,0,1-.33-.14l-.92-.92a.4.4,0,0,1-.1-.15.58.58,0,0,1,0-.18.58.58,0,0,1,0-.18.65.65,0,0,1,.1-.15.56.56,0,0,1,.15-.1.47.47,0,0,1,.17,0,.57.57,0,0,1,.18,0l.15.1.92.93a.4.4,0,0,1,.1.15.38.38,0,0,1,0,.34.4.4,0,0,1-.1.15A.45.45,0,0,1,6.83,8Z"/><path class="cls-2" d="M6.12,18.53a.44.44,0,0,1-.42-.28.42.42,0,0,1,0-.27.46.46,0,0,1,.12-.23l.48-.48a.44.44,0,0,1,.15-.1.42.42,0,0,1,.36,0,.44.44,0,0,1,.15.1.46.46,0,0,1,.13.32.49.49,0,0,1-.13.33l-.48.48a.4.4,0,0,1-.15.1A.57.57,0,0,1,6.12,18.53Z"/><path class="cls-3" d="M16.25,8.3a.46.46,0,0,1-.32-.13A.72.72,0,0,1,15.82,8a.57.57,0,0,1,0-.18.47.47,0,0,1,0-.17.42.42,0,0,1,.11-.15L17.44,6a.36.36,0,0,1,.15-.1.43.43,0,0,1,.36,0,.44.44,0,0,1,.15.1.56.56,0,0,1,.1.15.47.47,0,0,1,0,.17.48.48,0,0,1,0,.18.56.56,0,0,1-.1.15L16.58,8.17A.46.46,0,0,1,16.25,8.3Z"/></g></g></g></svg>