<svg xmlns="http://www.w3.org/2000/svg" viewBox="0 0 24 24"><defs><style>.cls-1{fill:none;}.cls-2,.cls-3{fill:#744cc6;}.cls-3{fill-opacity:0.5;}</style></defs><g id="Слой_2" data-name="Слой 2"><g id="Duotone"><g id="Location_Duotone" data-name="Location/Duotone"><rect class="cls-1" width="24" height="24"/><path class="cls-2" d="M17.15,6.19a6.08,6.08,0,0,0-1.93-2,5.89,5.89,0,0,0-2.62-.92A5.94,5.94,0,0,0,7.54,5.18,6.1,6.1,0,0,0,6,10a9,9,0,0,0,.67,1.89l.37.75L10.78,20a1.33,1.33,0,0,0,.5.55,1.35,1.35,0,0,0,.73.21A1.36,1.36,0,0,0,13.25,20l3.69-7.38a6.27,6.27,0,0,0,.33-.68A10.11,10.11,0,0,0,18,10,5.85,5.85,0,0,0,17.15,6.19Zm-5.19,5a1.4,1.4,0,0,1-.77-.24,1.34,1.34,0,0,1-.51-.62,1.37,1.37,0,0,1-.08-.8A1.41,1.41,0,0,1,11,8.82a1.45,1.45,0,0,1,.71-.38,1.46,1.46,0,0,1,.8.08,1.38,1.38,0,0,1,.85,1.28A1.38,1.38,0,0,1,12,11.19Z"/><path class="cls-3" d="M12,11.23a1.45,1.45,0,1,0-1.45-1.45A1.45,1.45,0,0,0,12,11.23Z"/></g></g></g></svg>