<svg xmlns="http://www.w3.org/2000/svg" viewBox="0 0 24 24"><defs><style>.cls-1{fill:none;}.cls-2,.cls-3{fill:#744cc6;}.cls-3{fill-opacity:0.5;}</style></defs><g id="Слой_2" data-name="Слой 2"><g id="Duotone"><g id="Lock_Open_Duotone" data-name="Lock/Open/Duotone"><rect class="cls-1" width="24" height="24"/><path class="cls-2" d="M16.75,9.13H9.17V7.29a2.82,2.82,0,0,1,.77-2,2.83,2.83,0,0,1,3.91-.23,2.8,2.8,0,0,1,1,1.86h.88A3.7,3.7,0,0,0,9.3,4.63a3.66,3.66,0,0,0-1,2.66V9.13H7.27a2.23,2.23,0,0,0-1.54.66,2.18,2.18,0,0,0-.63,1.56v7a2.07,2.07,0,0,0,.16.85,2,2,0,0,0,.47.71,2.1,2.1,0,0,0,1.54.66h9.48a2.2,2.2,0,0,0,2.15-2.22v-7a2.16,2.16,0,0,0-.63-1.53A2.22,2.22,0,0,0,16.75,9.13Zm-3,8a1.3,1.3,0,0,1-.48.42,1.22,1.22,0,0,1-.62.16H11.35a1.33,1.33,0,0,1-1.23-1.85l.41-1a1.68,1.68,0,0,1-.22-.85,1.71,1.71,0,1,1,3.42,0,2,2,0,0,1-.22.86l.41,1a1.36,1.36,0,0,1,.09.66,1.3,1.3,0,0,1-.23.63Z"/><path class="cls-3" d="M13,16.62a.47.47,0,0,1-.15.13.41.41,0,0,1-.19.05H11.35a.38.38,0,0,1-.19-.05.47.47,0,0,1-.15-.13.48.48,0,0,1-.07-.2.39.39,0,0,1,0-.21l.61-1.5-.17-.21a.81.81,0,0,1-.18-.51.85.85,0,0,1,.06-.31.83.83,0,0,1,.17-.26.85.85,0,0,1,.25-.17.81.81,0,0,1,.31-.06.77.77,0,0,1,.3.06.9.9,0,0,1,.26.17,1.06,1.06,0,0,1,.17.26.84.84,0,0,1,.05.31.76.76,0,0,1-.17.5l-.19.21.62,1.51a.39.39,0,0,1,0,.21A.48.48,0,0,1,13,16.62Z"/></g></g></g></svg>