<svg xmlns="http://www.w3.org/2000/svg" viewBox="0 0 24 24"><defs><style>.cls-1{fill:none;}.cls-2,.cls-3{fill:#744cc6;}.cls-2{fill-opacity:0.5;}</style></defs><g id="Слой_2" data-name="Слой 2"><g id="Duotone"><g id="Lock_Closed_Duotone" data-name="Lock/Closed/Duotone"><rect class="cls-1" width="24" height="24"/><path class="cls-2" d="M16.74,9.09h-.57V7.62A4.17,4.17,0,0,0,15,4.67,4.24,4.24,0,0,0,12,3.44,4.2,4.2,0,0,0,7.82,7.62V9.09H7.26a2.24,2.24,0,0,0-1.55.66,2.18,2.18,0,0,0-.63,1.56v7a2.18,2.18,0,0,0,.63,1.56,2.24,2.24,0,0,0,1.55.66h9.48a2.21,2.21,0,0,0,1.55-.66,2.17,2.17,0,0,0,.63-1.56v-7a2.15,2.15,0,0,0-.63-1.56A2.21,2.21,0,0,0,16.74,9.09Zm-3,8a1.27,1.27,0,0,1-.47.42,1.4,1.4,0,0,1-.63.16H11.32a1.33,1.33,0,0,1-.62-.16,1.27,1.27,0,0,1-.47-.42,1.3,1.3,0,0,1-.23-.62,1.45,1.45,0,0,1,.09-.65l.42-1a1.72,1.72,0,0,1,0-1.61,1.65,1.65,0,0,1,.49-.59,1.7,1.7,0,0,1,.71-.32,1.71,1.71,0,0,1,.78,0,1.81,1.81,0,0,1,.68.37,1.78,1.78,0,0,1,.45.63,1.67,1.67,0,0,1,.12.77,1.63,1.63,0,0,1-.22.74l.41,1a1.22,1.22,0,0,1,.09.65A1.29,1.29,0,0,1,13.76,17.08Zm1.49-8H8.74V7.62a3.24,3.24,0,0,1,2-3,3.27,3.27,0,0,1,3.53.7,3.19,3.19,0,0,1,.69,1,3.07,3.07,0,0,1,.23,1.24Z"/><path class="cls-3" d="M13,16.55a.37.37,0,0,1-.15.13.39.39,0,0,1-.19.06H11.32a.59.59,0,0,1-.19,0,.47.47,0,0,1-.14-.14.44.44,0,0,1-.07-.19.39.39,0,0,1,0-.21l.61-1.5-.18-.21a.79.79,0,0,1-.16-.51.61.61,0,0,1,0-.3.65.65,0,0,1,.17-.26.64.64,0,0,1,.25-.18.8.8,0,0,1,.3-.06.73.73,0,0,1,.3.06.78.78,0,0,1,.26.17,1.06,1.06,0,0,1,.17.26.85.85,0,0,1,.06.31.82.82,0,0,1-.17.5l-.19.21L13,16.15a.52.52,0,0,1,0,.21A.44.44,0,0,1,13,16.55Z"/></g></g></g></svg>