<svg xmlns="http://www.w3.org/2000/svg" viewBox="0 0 24 24"><defs><style>.cls-1{fill:none;}.cls-2,.cls-3{fill:#744cc6;}.cls-3{fill-opacity:0.5;}</style></defs><g id="Слой_2" data-name="Слой 2"><g id="Duotone"><g id="Mail_Open_Duotone" data-name="Mail/Open/Duotone"><rect class="cls-1" width="24" height="24"/><path class="cls-2" d="M20.71,8a1.35,1.35,0,0,0-.51-.76L12.81,1.87a1.35,1.35,0,0,0-1.62,0L3.8,7.22a1.36,1.36,0,0,0-.5.72,1.07,1.07,0,0,0-.07.39V20.09a2.28,2.28,0,0,0,.68,1.63,2.32,2.32,0,0,0,1.63.68H18.46a2.32,2.32,0,0,0,1.63-.68,2.28,2.28,0,0,0,.68-1.63V8.33A1,1,0,0,0,20.71,8ZM16.9,11.43,12.53,15a.81.81,0,0,1-.54.19.84.84,0,0,1-.53-.19L7.09,11.43A.41.41,0,0,1,7,11.29a.48.48,0,0,1,0-.17.37.37,0,0,1,0-.18A.8.8,0,0,1,7,10.78a.47.47,0,0,1,.31-.16.45.45,0,0,1,.34.1L12,14.28l4.33-3.56a.46.46,0,0,1,.34-.1.47.47,0,0,1,.31.16.48.48,0,0,1,.08.16.37.37,0,0,1,0,.18.34.34,0,0,1-.05.17A.41.41,0,0,1,16.9,11.43Z"/><path class="cls-3" d="M16.9,11.43,12.53,15a.81.81,0,0,1-.54.19.89.89,0,0,1-.54-.19L7.09,11.43A.41.41,0,0,1,7,11.29a.48.48,0,0,1,0-.17.37.37,0,0,1,0-.18A.8.8,0,0,1,7,10.78a.47.47,0,0,1,.31-.16.46.46,0,0,1,.34.1L12,14.28l4.33-3.56a.46.46,0,0,1,.34-.1.47.47,0,0,1,.31.16.48.48,0,0,1,.08.16.37.37,0,0,1,0,.18.34.34,0,0,1-.05.17A.41.41,0,0,1,16.9,11.43Z"/></g></g></g></svg>