<svg xmlns="http://www.w3.org/2000/svg" viewBox="0 0 24 24"><defs><style>.cls-1{fill:none;}.cls-2,.cls-3{fill:#744cc6;}.cls-3{fill-opacity:0.5;}</style></defs><g id="Слой_2" data-name="Слой 2"><g id="Duotone"><g id="Medicine_Duotone" data-name="Medicine/Duotone"><rect class="cls-1" width="24" height="24"/><path class="cls-2" d="M8.82,9.55,5.25,13.12a4,4,0,0,0,5.58,5.59l3.58-3.57ZM7.19,15.46l-.66.65a.45.45,0,0,1-.33.14.43.43,0,0,1-.32-.14l-.65-.65a.4.4,0,0,1-.1-.15.33.33,0,0,1,0-.17.39.39,0,0,1,0-.18.49.49,0,0,1,.1-.15l.65-.65a.31.31,0,0,1,.15-.1.33.33,0,0,1,.17,0,.34.34,0,0,1,.18,0,.31.31,0,0,1,.15.1l.66.65a.51.51,0,0,1,.13.33A.48.48,0,0,1,7.19,15.46ZM9.8,18.07l-.66.66a.46.46,0,0,1-.32.13.51.51,0,0,1-.33-.13l-.65-.66a.4.4,0,0,1-.1-.15.52.52,0,0,1,0-.18.47.47,0,0,1,0-.17.4.4,0,0,1,.1-.15l.65-.65a.4.4,0,0,1,.15-.1.58.58,0,0,1,.18,0,.47.47,0,0,1,.17,0,.4.4,0,0,1,.15.1l.66.65a.46.46,0,0,1,.13.32A.49.49,0,0,1,9.8,18.07Zm0-5.22-.66.65a.31.31,0,0,1-.15.1.33.33,0,0,1-.17,0,.39.39,0,0,1-.18,0,.31.31,0,0,1-.15-.1l-.65-.65a.4.4,0,0,1-.1-.15.48.48,0,0,1,0-.18.47.47,0,0,1,0-.17.4.4,0,0,1,.1-.15l.65-.65a.31.31,0,0,1,.15-.1.39.39,0,0,1,.18,0,.33.33,0,0,1,.17,0,.31.31,0,0,1,.15.1l.66.65a.48.48,0,0,1,.13.32A.49.49,0,0,1,9.8,12.85Zm2,3.26a.46.46,0,0,1-.66,0l-.65-.65a.45.45,0,0,1-.14-.32.47.47,0,0,1,.14-.33l.65-.65a.36.36,0,0,1,.15-.1.42.42,0,0,1,.36,0,.44.44,0,0,1,.15.1l.65.65a.46.46,0,0,1,.13.33.44.44,0,0,1-.13.32Z"/><path class="cls-3" d="M19.82,8.14a3.94,3.94,0,0,1-1.21,2.75l-3.55,3.59L9.52,8.94l3.57-3.57a4,4,0,0,1,2-1.08,4,4,0,0,1,2.28.23,3.93,3.93,0,0,1,2.44,3.62Z"/></g></g></g></svg>