<svg xmlns="http://www.w3.org/2000/svg" viewBox="0 0 24 24"><defs><style>.cls-1{fill:none;}.cls-2,.cls-3{fill:#744cc6;}.cls-3{fill-opacity:0.5;}</style></defs><g id="Слой_2" data-name="Слой 2"><g id="Duotone"><g id="Message_Favorites_Duotone" data-name="Message/Favorites/Duotone"><rect class="cls-1" width="24" height="24"/><path class="cls-2" d="M17.26,8.49a.88.88,0,0,0-.21.34.94.94,0,0,0,0,.41l.19,1.2-.15-.09a7.85,7.85,0,0,0-2.14-3A.84.84,0,0,0,15.35,7l.49-1,.48,1a.93.93,0,0,0,.66.48l1.11.17Z"/><path class="cls-3" d="M21.66,11.89a.35.35,0,0,1-.14.13.29.29,0,0,1-.18,0l-1.8-.18-.16.15a5,5,0,0,1-1.67,1.11,7.1,7.1,0,0,0-.28-1.77.73.73,0,0,0,.35-.15.89.89,0,0,0,.31-.36.87.87,0,0,0,.05-.48L17.92,9.1l.92-.93a.81.81,0,0,0,.23-.4.9.9,0,0,0,0-.46,1,1,0,0,0-.27-.39,1,1,0,0,0-.43-.2l-1.19-.16-.53-1.14a.86.86,0,0,0-.31-.37.88.88,0,0,0-.92,0,.92.92,0,0,0-.32.36L14.6,6.53l-.65.1-.18-.11-.59-.32L12.7,6l-.13-.06a4.66,4.66,0,0,0-.49-.16,4.83,4.83,0,0,0-.66-.14,5.17,5.17,0,0,1,2.89-2.18,5.11,5.11,0,0,1,3.61.25,5.16,5.16,0,0,1,2.8,6.18l-.07.2,1,1.5a.29.29,0,0,1,0,.16A.37.37,0,0,1,21.66,11.89Z"/><path class="cls-2" d="M17.78,17.76l-1.35-2,.07-.21a7,7,0,0,0,.29-1.77A7.27,7.27,0,0,0,16,10.26a7.73,7.73,0,0,0-2.45-2.79,1,1,0,0,0-.24-.15,7.28,7.28,0,0,0-3.69-1,7.2,7.2,0,0,0-3.44.81,7.18,7.18,0,0,0-3.87,5.65A7.29,7.29,0,0,0,4.91,19.1a7.27,7.27,0,0,0,6.71,1.36,7.19,7.19,0,0,0,3-1.82l.16-.15,2.39.24a.6.6,0,0,0,.35-.05.67.67,0,0,0,.26-.24.6.6,0,0,0,0-.68ZM7,13.91a.46.46,0,0,1-.13.32.47.47,0,0,1-.33.14H5.74a.45.45,0,0,1-.33-.14.43.43,0,0,1-.14-.32V13.1a.43.43,0,0,1,.14-.32.45.45,0,0,1,.33-.14h.78a.47.47,0,0,1,.33.14A.46.46,0,0,1,7,13.1Zm3.43,0a.43.43,0,0,1-.14.32.45.45,0,0,1-.32.14h-.8a.48.48,0,0,1-.46-.46V13.1a.48.48,0,0,1,.46-.46H10a.45.45,0,0,1,.32.14.43.43,0,0,1,.14.32Zm3.41,0a.46.46,0,0,1-.13.32.47.47,0,0,1-.33.14h-.78a.45.45,0,0,1-.33-.14.43.43,0,0,1-.14-.32V13.1a.43.43,0,0,1,.14-.32.45.45,0,0,1,.33-.14h.78a.47.47,0,0,1,.33.14.46.46,0,0,1,.13.32Z"/><path class="cls-2" d="M13.55,7.48l.12.1Z"/></g></g></g></svg>