<svg xmlns="http://www.w3.org/2000/svg" viewBox="0 0 24 24"><defs><style>.cls-1{fill:none;}.cls-2,.cls-3{fill:#744cc6;}.cls-3{fill-opacity:0.5;}</style></defs><g id="Слой_2" data-name="Слой 2"><g id="Duotone"><g id="Microphone_Duotone" data-name="Microphone/Duotone"><rect class="cls-1" width="24" height="24"/><path class="cls-2" d="M19.85,11.8a7.74,7.74,0,0,0-3-6.1,5,5,0,0,0-1.67-2.92,4.9,4.9,0,0,0-6.33,0A5,5,0,0,0,7.17,5.7a7.79,7.79,0,0,0-3,6.1,7.82,7.82,0,0,0,7.39,7.74v1.91H10.15a.48.48,0,0,0-.46.46.45.45,0,0,0,.14.33.43.43,0,0,0,.32.14h3.7a.47.47,0,0,0,.17,0,.4.4,0,0,0,.15-.1.31.31,0,0,0,.1-.15.39.39,0,0,0,0-.18.48.48,0,0,0-.46-.46H12.46V19.54a7.8,7.8,0,0,0,7.39-7.74Zm-6.93-6a.45.45,0,0,1,.14-.33.43.43,0,0,1,.32-.14h.93a.43.43,0,0,1,.32.14.45.45,0,0,1,.14.33v.92a.47.47,0,0,1-.14.33.46.46,0,0,1-.32.13h-.93a.46.46,0,0,1-.32-.13.47.47,0,0,1-.14-.33Zm0,3.69a.47.47,0,0,1,.14-.33.46.46,0,0,1,.32-.13h.93a.46.46,0,0,1,.32.13.47.47,0,0,1,.14.33v.92a.47.47,0,0,1-.14.33.46.46,0,0,1-.32.13h-.93a.46.46,0,0,1-.32-.13.47.47,0,0,1-.14-.33Zm-.46,5.64a4.87,4.87,0,0,0,4.45-4.82V7.06a6.78,6.78,0,0,1-4.49,11.49ZM9.23,5.82a.45.45,0,0,1,.14-.33.43.43,0,0,1,.32-.14h.93a.43.43,0,0,1,.32.14.45.45,0,0,1,.14.33v.92a.47.47,0,0,1-.14.33.46.46,0,0,1-.32.13H9.69a.46.46,0,0,1-.32-.13.47.47,0,0,1-.14-.33Zm0,3.69a.47.47,0,0,1,.14-.33.46.46,0,0,1,.32-.13h.93a.46.46,0,0,1,.32.13.47.47,0,0,1,.14.33v.92a.47.47,0,0,1-.14.33.46.46,0,0,1-.32.13H9.69a.46.46,0,0,1-.32-.13.47.47,0,0,1-.14-.33Zm2.31,9A6.73,6.73,0,0,1,7,16.44,6.81,6.81,0,0,1,5.14,11.8a6.69,6.69,0,0,1,.51-2.57A6.61,6.61,0,0,1,7.1,7.06v3.27a4.87,4.87,0,0,0,4.44,4.82Z"/><path class="cls-3" d="M11.08,9.51v.92a.47.47,0,0,1-.14.33.46.46,0,0,1-.32.13H9.69a.46.46,0,0,1-.32-.13.47.47,0,0,1-.14-.33V9.51a.47.47,0,0,1,.14-.33.46.46,0,0,1,.32-.13h.93a.46.46,0,0,1,.32.13A.47.47,0,0,1,11.08,9.51Z"/><path class="cls-3" d="M14.77,9.51v.92a.47.47,0,0,1-.14.33.46.46,0,0,1-.32.13h-.93a.46.46,0,0,1-.32-.13.47.47,0,0,1-.14-.33V9.51a.47.47,0,0,1,.14-.33.46.46,0,0,1,.32-.13h.93a.46.46,0,0,1,.32.13A.47.47,0,0,1,14.77,9.51Z"/><path class="cls-3" d="M14.77,5.82v.92a.47.47,0,0,1-.14.33.46.46,0,0,1-.32.13h-.93a.46.46,0,0,1-.32-.13.47.47,0,0,1-.14-.33V5.82a.45.45,0,0,1,.14-.33.43.43,0,0,1,.32-.14h.93a.43.43,0,0,1,.32.14A.45.45,0,0,1,14.77,5.82Z"/><path class="cls-3" d="M11.08,5.82v.92a.47.47,0,0,1-.14.33.46.46,0,0,1-.32.13H9.69a.46.46,0,0,1-.32-.13.47.47,0,0,1-.14-.33V5.82a.45.45,0,0,1,.14-.33.43.43,0,0,1,.32-.14h.93a.43.43,0,0,1,.32.14A.45.45,0,0,1,11.08,5.82Z"/></g></g></g></svg>