<svg xmlns="http://www.w3.org/2000/svg" viewBox="0 0 24 24"><defs><style>.cls-1{fill:none;}.cls-2,.cls-3{fill:#744cc6;}.cls-2{fill-opacity:0.5;}</style></defs><g id="Слой_2" data-name="Слой 2"><g id="Duotone"><g id="MobileInternet_Duotone" data-name="MobileInternet/Duotone"><rect class="cls-1" width="24" height="24"/><path class="cls-2" d="M4.84,1.52l.59.57a7.58,7.58,0,0,0-1.74,8.5A7.41,7.41,0,0,0,5.43,13.1l-.59.58A8.38,8.38,0,0,1,2.91,10.9a8.37,8.37,0,0,1,0-6.61A8.34,8.34,0,0,1,4.84,1.52Z"/><path class="cls-2" d="M7.13,3.74l.59.58a4.67,4.67,0,0,0-1,1.5,4.53,4.53,0,0,0,1,5l-.59.58A5.28,5.28,0,0,1,5.9,9.69,5.3,5.3,0,0,1,7.13,3.74Z"/><path class="cls-3" d="M14.32,7.4a2.33,2.33,0,0,1-1.85,2.26V22.17a.48.48,0,0,1-.46.46.47.47,0,0,1-.33-.14.46.46,0,0,1-.13-.32V9.66a2.3,2.3,0,0,1-1.14-.6A2.26,2.26,0,0,1,9.77,8a2.23,2.23,0,0,1,.05-1.28,2.3,2.3,0,0,1,1.91-1.56,2.42,2.42,0,0,1,1.27.2A2.34,2.34,0,0,1,14.32,7.4Z"/><path class="cls-2" d="M19.16,13.53,18.57,13a7.6,7.6,0,0,0,1.74-8.51,7.5,7.5,0,0,0-1.74-2.51l.59-.57a8.44,8.44,0,0,1,1.93,2.77,8.4,8.4,0,0,1,0,6.62A8.44,8.44,0,0,1,19.16,13.53Z"/><path class="cls-2" d="M16.87,11.3l-.59-.58a4.53,4.53,0,0,0,1-1.49,4.49,4.49,0,0,0,0-3.57,4.53,4.53,0,0,0-1-1.49l.59-.57A5.24,5.24,0,0,1,18.1,5.35a5.34,5.34,0,0,1,0,4.2A5.24,5.24,0,0,1,16.87,11.3Z"/></g></g></g></svg>