<svg xmlns="http://www.w3.org/2000/svg" viewBox="0 0 24 24"><defs><style>.cls-1{fill:none;}.cls-2,.cls-3{fill:#744cc6;}.cls-3{fill-opacity:0.5;}</style></defs><g id="Слой_2" data-name="Слой 2"><g id="Duotone"><g id="Moon_Duotone" data-name="Moon/Duotone"><rect class="cls-1" width="24" height="24"/><path class="cls-2" d="M20.08,15.17a1.47,1.47,0,0,0-.6-.56,1.4,1.4,0,0,0-.81-.12,8,8,0,0,1-3.7-.36,8.23,8.23,0,0,1-3.16-2A8.14,8.14,0,0,1,9.5,5.32a1.41,1.41,0,0,0-.13-.81A1.43,1.43,0,0,0,8,3.7,1.31,1.31,0,0,0,7.3,4a8.28,8.28,0,0,0-.84.71,9.24,9.24,0,0,0-.37,12.73,8.95,8.95,0,0,0,6.46,2.89h.17a9,9,0,0,0,6.46-2.66,9.74,9.74,0,0,0,.84-1,1.38,1.38,0,0,0,.26-.74A1.36,1.36,0,0,0,20.08,15.17Zm-.83,1a7.81,7.81,0,0,1-.75.87,8.24,8.24,0,0,1-4.28,2.27A7.94,7.94,0,0,1,6.76,16.8,8.31,8.31,0,0,1,7.1,5.37a7.67,7.67,0,0,1,.75-.64.45.45,0,0,1,.27-.1.46.46,0,0,1,.23.06.51.51,0,0,1,.19.22.45.45,0,0,1,0,.28,9.08,9.08,0,0,0,2.57,7.64A9.15,9.15,0,0,0,14.67,15a9,9,0,0,0,4.12.39.57.57,0,0,1,.29,0,.51.51,0,0,1,.21.2.48.48,0,0,1,.06.26A.46.46,0,0,1,19.25,16.15Z"/><path class="cls-3" d="M19.25,16.15a7.81,7.81,0,0,1-.75.87,8.24,8.24,0,0,1-4.28,2.27A7.94,7.94,0,0,1,6.76,16.8,8.31,8.31,0,0,1,7.1,5.37a7.67,7.67,0,0,1,.75-.64.45.45,0,0,1,.27-.1.46.46,0,0,1,.23.06.51.51,0,0,1,.19.22.45.45,0,0,1,0,.28,9.08,9.08,0,0,0,2.57,7.64A9.15,9.15,0,0,0,14.67,15a9,9,0,0,0,4.12.39.57.57,0,0,1,.29,0,.51.51,0,0,1,.21.2.48.48,0,0,1,.06.26A.46.46,0,0,1,19.25,16.15Z"/></g></g></g></svg>