<svg xmlns="http://www.w3.org/2000/svg" viewBox="0 0 24 24"><defs><style>.cls-1{fill:none;}.cls-2,.cls-3{fill:#744cc6;}.cls-3{fill-opacity:0.5;}</style></defs><g id="Слой_2" data-name="Слой 2"><g id="Duotone"><g id="Mouse_Duotone" data-name="Mouse/Duotone"><rect class="cls-1" width="24" height="24"/><path class="cls-2" d="M18.2,9.72,14.28,5.8A6,6,0,0,0,5.8,14.28L9.71,18.2A6,6,0,0,0,18.2,9.72ZM8.31,8.31a.48.48,0,0,1,.66,0l2.61,2.62a.46.46,0,0,1,.13.32.49.49,0,0,1-.13.33.47.47,0,0,1-.33.14.43.43,0,0,1-.32-.14L8.31,9a.48.48,0,0,1,0-.66Z"/><path class="cls-3" d="M11.58,11.58a.46.46,0,0,1-.66,0L8.31,9A.47.47,0,0,1,9,8.31l2.61,2.62a.46.46,0,0,1,.13.32A.49.49,0,0,1,11.58,11.58Z"/></g></g></g></svg>