<svg xmlns="http://www.w3.org/2000/svg" viewBox="0 0 24 24"><defs><style>.cls-1{fill:none;}.cls-2,.cls-3{fill:#744cc6;}.cls-3{opacity:0.5;isolation:isolate;}</style></defs><g id="Слой_2" data-name="Слой 2"><g id="Duotone"><g id="Music_Duotone" data-name="Music/Duotone"><rect class="cls-1" width="24" height="24"/><path class="cls-2" d="M18.93,3.23H9a1.81,1.81,0,0,0-1.3.54,1.85,1.85,0,0,0-.54,1.31V16.4a2.38,2.38,0,0,0-3.08.07,2.46,2.46,0,0,0-.83,1.7,2.46,2.46,0,0,0,2.26,2.6h.16a2.36,2.36,0,0,0,1.58-.6,2.45,2.45,0,0,0,.83-1.69,2.41,2.41,0,0,0,0-.38V6.89A2,2,0,0,0,9,7.14h10a2,2,0,0,0,.92-.25V15.3a2.39,2.39,0,0,0-1.5-.53,2.46,2.46,0,0,0-2.45,2.91A2.57,2.57,0,0,0,16.57,19a2.44,2.44,0,0,0,1.26.68,2.38,2.38,0,0,0,1.42-.14,2.45,2.45,0,0,0,1.11-.9,2.5,2.5,0,0,0,.41-1.37V5.08a1.85,1.85,0,0,0-.54-1.31A1.81,1.81,0,0,0,18.93,3.23Zm0,1.85H14.74a.48.48,0,0,1-.46-.47.45.45,0,0,1,.14-.32.43.43,0,0,1,.32-.14h4.19a.43.43,0,0,1,.32.14.45.45,0,0,1,.14.32.48.48,0,0,1-.14.34A.51.51,0,0,1,18.93,5.08Z"/><path class="cls-3" d="M19.42,4.62a.58.58,0,0,1-.14.33.47.47,0,0,1-.33.14H14.74A.47.47,0,0,1,14.41,5a.58.58,0,0,1-.14-.33.44.44,0,0,1,.14-.33.47.47,0,0,1,.33-.14H19a.47.47,0,0,1,.33.14A.44.44,0,0,1,19.42,4.62Z"/></g></g></g></svg>