<svg xmlns="http://www.w3.org/2000/svg" viewBox="0 0 24 24"><defs><style>.cls-1{fill:none;}.cls-2{fill:#744cc6;}</style></defs><g id="Слой_2" data-name="Слой 2"><g id="Duotone"><g id="Next_Line_Duotone" data-name="Next/Line/Duotone"><rect class="cls-1" width="24" height="24"/><path class="cls-2" d="M8.69,20.77a.54.54,0,0,1-.3-.1A.49.49,0,0,1,8.33,20l6.46-7.86a.24.24,0,0,0,.05-.14.25.25,0,0,0-.05-.15L8.33,4a.51.51,0,0,1-.09-.16.55.55,0,0,1,0-.18.64.64,0,0,1,.06-.18.76.76,0,0,1,.11-.14.8.8,0,0,1,.16-.08.37.37,0,0,1,.18,0l.18,0a.53.53,0,0,1,.14.12l6.46,7.88a1.11,1.11,0,0,1,0,1.45L9.05,20.6a.48.48,0,0,1-.16.13A.48.48,0,0,1,8.69,20.77Z"/></g></g></g></svg>