<svg xmlns="http://www.w3.org/2000/svg" viewBox="0 0 24 24"><defs><style>.cls-1{fill:none;}.cls-2,.cls-3{fill:#744cc6;}.cls-2{fill-opacity:0.5;}</style></defs><g id="Слой_2" data-name="Слой 2"><g id="Duotone"><g id="Notification_Duotone" data-name="Notification/Duotone"><rect class="cls-1" width="24" height="24"/><path class="cls-2" d="M18.19,4.71a2.76,2.76,0,0,0-2,4.72,2.79,2.79,0,0,0,2,.82,2.57,2.57,0,0,0,.87-.15,2.78,2.78,0,0,0,1.48-1.2A2.76,2.76,0,0,0,20,5.38,2.69,2.69,0,0,0,18.19,4.71Zm0,4.61a.46.46,0,0,1-.32-.13.47.47,0,0,1-.14-.33.48.48,0,0,1,.46-.46.47.47,0,0,1,.33.14.42.42,0,0,1,.13.32.46.46,0,0,1-.13.33A.51.51,0,0,1,18.19,9.32Zm.46-1.84a.42.42,0,0,1-.13.32.47.47,0,0,1-.33.14.48.48,0,0,1-.46-.46V5.63a.47.47,0,0,1,.14-.33.46.46,0,0,1,.32-.13.51.51,0,0,1,.33.13.46.46,0,0,1,.13.33Z"/><path class="cls-3" d="M18.76,11.12v6.79a1.4,1.4,0,0,1-.41,1,1.38,1.38,0,0,1-1,.4H4.45a1.38,1.38,0,0,1-1-.4,1.4,1.4,0,0,1-.41-1V7.75a1.4,1.4,0,0,1,.41-1,1.38,1.38,0,0,1,1-.4H14.67c0,.06,0,.07-.06.14a2.74,2.74,0,0,0-.08.5,3.68,3.68,0,0,0,0,.47,3.69,3.69,0,0,0,3.69,3.69A3.29,3.29,0,0,0,18.76,11.12Z"/></g></g></g></svg>