<svg xmlns="http://www.w3.org/2000/svg" viewBox="0 0 24 24"><defs><style>.cls-1{fill:none;}.cls-2,.cls-3{fill:#744cc6;}.cls-2{fill-opacity:0.5;}</style></defs><g id="Слой_2" data-name="Слой 2"><g id="Duotone"><g id="On_Off_Duotone" data-name="On/Off/Duotone"><rect class="cls-1" width="24" height="24"/><path class="cls-2" d="M12,9.69a.47.47,0,0,1-.33-.14.46.46,0,0,1-.13-.32V2.76a.45.45,0,0,1,.14-.32.45.45,0,0,1,.65,0,.48.48,0,0,1,.13.32V9.23a.46.46,0,0,1-.13.32A.47.47,0,0,1,12,9.69Z"/><path class="cls-3" d="M20.77,12.93a8.78,8.78,0,0,1-5.09,8,8.91,8.91,0,0,1-4.88.73,8.79,8.79,0,0,1-7.19-6.14,8.77,8.77,0,0,1,7-11.21V9.08a1.38,1.38,0,1,0,2.76,0V4.27a8.78,8.78,0,0,1,7.39,8.66Z"/></g></g></g></svg>