<svg xmlns="http://www.w3.org/2000/svg" viewBox="0 0 24 24"><defs><style>.cls-1{fill:none;}.cls-2,.cls-3{fill:#744cc6;}.cls-3{fill-opacity:0.5;}</style></defs><g id="Слой_2" data-name="Слой 2"><g id="Duotone"><g id="Pause_Duotone" data-name="Pause/Duotone"><rect class="cls-1" width="24" height="24"/><path class="cls-2" d="M18.46,3.23H5.54A2.32,2.32,0,0,0,3.23,5.54V18.46a2.32,2.32,0,0,0,2.31,2.31H18.46a2.32,2.32,0,0,0,2.31-2.31V5.54a2.32,2.32,0,0,0-2.31-2.31Zm-8.2,12a.46.46,0,0,1-.13.32.47.47,0,0,1-.33.14.46.46,0,0,1-.32-.13.47.47,0,0,1-.14-.33V8.77a.47.47,0,0,1,.14-.33.46.46,0,0,1,.32-.13.49.49,0,0,1,.33.13.46.46,0,0,1,.13.33Zm4.4,0a.43.43,0,0,1-.14.32.45.45,0,0,1-.32.14.49.49,0,0,1-.33-.13.46.46,0,0,1-.13-.33V8.77a.46.46,0,0,1,.13-.33.49.49,0,0,1,.33-.13.46.46,0,0,1,.32.13.47.47,0,0,1,.14.33Z"/><path class="cls-3" d="M14.66,8.77v6.46a.43.43,0,0,1-.14.32.45.45,0,0,1-.32.14.49.49,0,0,1-.33-.13.46.46,0,0,1-.13-.33V8.77a.46.46,0,0,1,.13-.33.49.49,0,0,1,.33-.13.47.47,0,0,1,.17,0,.56.56,0,0,1,.15.1.44.44,0,0,1,.1.15A.39.39,0,0,1,14.66,8.77Z"/><path class="cls-3" d="M10.26,8.77v6.46a.46.46,0,0,1-.13.32.47.47,0,0,1-.33.14.46.46,0,0,1-.32-.13.47.47,0,0,1-.14-.33V8.77a.47.47,0,0,1,.14-.33.46.46,0,0,1,.32-.13l.18,0a.56.56,0,0,1,.15.1.65.65,0,0,1,.1.15A.57.57,0,0,1,10.26,8.77Z"/></g></g></g></svg>