<svg xmlns="http://www.w3.org/2000/svg" viewBox="0 0 24 24"><defs><style>.cls-1{fill:none;}.cls-2,.cls-3{fill:#744cc6;}.cls-3{fill-opacity:0.5;}</style></defs><g id="Слой_2" data-name="Слой 2"><g id="Duotone"><g id="Percent_Duotone" data-name="Percent/Duotone"><rect class="cls-1" width="24" height="24"/><path class="cls-2" d="M16.38,4.4A8.77,8.77,0,0,0,3.7,9.18a8.71,8.71,0,0,0-.17,5.08,8.74,8.74,0,0,0,7.31,6.43,8.79,8.79,0,0,0,8.75-4.29,8.79,8.79,0,0,0-3.21-12Zm-7.3,8a1.4,1.4,0,0,1-.84.65,1.45,1.45,0,0,1-1-.15,1.36,1.36,0,0,1-.56-.58,1.32,1.32,0,0,1-.14-.8,1.37,1.37,0,0,1,.34-.74,1.34,1.34,0,0,1,.69-.42,1.39,1.39,0,0,1,1.73,1.52A1.2,1.2,0,0,1,9.08,12.35ZM13,15.54a.37.37,0,0,1-.18,0l-.18-.06a.52.52,0,0,1-.22-.28L10.75,9a.5.5,0,0,1,.06-.34.45.45,0,0,1,.27-.22.47.47,0,0,1,.35.05.49.49,0,0,1,.22.27L13.28,15a.5.5,0,0,1,0,.34A.45.45,0,0,1,13,15.54ZM17.39,13a1.39,1.39,0,0,1-.35.41,1.3,1.3,0,0,1-.49.23,1.41,1.41,0,0,1-.54,0,1.28,1.28,0,0,1-.51-.17,1.82,1.82,0,0,1-.42-.36,1.54,1.54,0,0,1-.24-.5,1.27,1.27,0,0,1,0-.55,1.16,1.16,0,0,1,.18-.51,1.29,1.29,0,0,1,.36-.41,1.35,1.35,0,0,1,.48-.24,1.49,1.49,0,0,1,.81,0,1.44,1.44,0,0,1,.65.47,1.31,1.31,0,0,1,.28.76A1.44,1.44,0,0,1,17.39,13Z"/><path class="cls-3" d="M13,15.54a.37.37,0,0,1-.18,0l-.18-.06a.52.52,0,0,1-.22-.28L10.75,9a.5.5,0,0,1,.06-.34.45.45,0,0,1,.27-.22.47.47,0,0,1,.35.05.49.49,0,0,1,.22.27L13.28,15a.5.5,0,0,1,0,.34A.45.45,0,0,1,13,15.54Z"/><path class="cls-3" d="M9.22,11.29a1.38,1.38,0,0,0-1.69-1,1.34,1.34,0,0,0-.69.42,1.37,1.37,0,0,0-.34.74,1.32,1.32,0,0,0,.14.8,1.36,1.36,0,0,0,.56.58,1.45,1.45,0,0,0,1,.15,1.4,1.4,0,0,0,.84-.65,1.2,1.2,0,0,0,.18-.52A1.41,1.41,0,0,0,9.22,11.29ZM8,12.1a.48.48,0,0,1-.35,0,.49.49,0,0,1-.22-.27.47.47,0,0,1,0-.35.51.51,0,0,1,.26-.22.37.37,0,0,1,.18,0,.38.38,0,0,1,.16.06.44.44,0,0,1,.15.12.4.4,0,0,1,.08.16.47.47,0,0,1-.3.56Z"/><path class="cls-3" d="M17.56,11.9A1.42,1.42,0,0,0,16.9,11a1.38,1.38,0,0,0-1.07-.14,1.4,1.4,0,0,0-1.05,1.18,1.43,1.43,0,0,0,.71,1.42,1.48,1.48,0,0,0,1.07.15,1.5,1.5,0,0,0,.86-.66,1.34,1.34,0,0,0,.18-.53A1.32,1.32,0,0,0,17.56,11.9Zm-1.24.78a.5.5,0,0,1-.36,0,.53.53,0,0,1-.21-.29.45.45,0,0,1,.05-.34.41.41,0,0,1,.24-.21h.19a.47.47,0,0,1,.17,0,.41.41,0,0,1,.14.12.51.51,0,0,1,.09.16.53.53,0,0,1,0,.35A.4.4,0,0,1,16.32,12.68Z"/><circle class="cls-2" cx="7.88" cy="11.65" r="0.51"/><circle class="cls-2" cx="16.19" cy="12.27" r="0.51"/></g></g></g></svg>