<svg xmlns="http://www.w3.org/2000/svg" viewBox="0 0 24 24"><defs><style>.cls-1{fill:none;}.cls-2,.cls-3{fill:#744cc6;}.cls-3{fill-opacity:0.5;}</style></defs><g id="Слой_2" data-name="Слой 2"><g id="Duotone"><g id="Pharmacy_Duotone" data-name="Pharmacy/Duotone"><rect class="cls-1" width="24" height="24"/><path class="cls-2" d="M18,9.23H14.77V6A2.77,2.77,0,1,0,9.23,6V9.23H6a2.77,2.77,0,1,0,0,5.54H9.23V18a2.77,2.77,0,1,0,5.54,0V14.77H18a2.71,2.71,0,0,0,1.06-.21A2.77,2.77,0,0,0,20,14a2.81,2.81,0,0,0,.8-2A2.77,2.77,0,0,0,18,9.23Zm.34,2.2H14.16a.43.43,0,0,1-.32-.14A.45.45,0,0,1,13.7,11a.49.49,0,0,1,.13-.33.46.46,0,0,1,.33-.13h4.18a.46.46,0,0,1,.33.13.49.49,0,0,1,.13.33.48.48,0,0,1-.13.32A.47.47,0,0,1,18.34,11.43Z"/><path class="cls-3" d="M18.8,11a.48.48,0,0,1-.13.32.47.47,0,0,1-.33.14H14.16a.43.43,0,0,1-.32-.14A.45.45,0,0,1,13.7,11a.49.49,0,0,1,.13-.33.46.46,0,0,1,.33-.13h4.18a.46.46,0,0,1,.33.13A.49.49,0,0,1,18.8,11Z"/></g></g></g></svg>