<svg xmlns="http://www.w3.org/2000/svg" viewBox="0 0 24 24"><defs><style>.cls-1{fill:none;}.cls-2,.cls-3{fill:#744cc6;}.cls-2{fill-opacity:0.5;}</style></defs><g id="Слой_2" data-name="Слой 2"><g id="Duotone"><g id="Phone_Duotone" data-name="Phone/Duotone"><rect class="cls-1" width="24" height="24"/><path class="cls-2" d="M6,16.51v1.95a2.32,2.32,0,0,0,2.31,2.31h7.38A2.32,2.32,0,0,0,18,18.46V16.51Zm6.92,2.18a.49.49,0,0,1-.13.33.46.46,0,0,1-.33.13h-.92a.46.46,0,0,1-.33-.13.44.44,0,0,1-.13-.33v-.92a.46.46,0,0,1,.13-.33.51.51,0,0,1,.33-.13h.92a.44.44,0,0,1,.46.46Z"/><path class="cls-3" d="M18,5.54V15.59H6v-10A2.32,2.32,0,0,1,8.31,3.23h7.38A2.32,2.32,0,0,1,18,5.54Z"/></g></g></g></svg>