<svg xmlns="http://www.w3.org/2000/svg" viewBox="0 0 24 24"><defs><style>.cls-1{fill:none;}.cls-2,.cls-3{fill:#744cc6;}.cls-3{fill-opacity:0.5;}</style></defs><g id="Слой_2" data-name="Слой 2"><g id="Duotone"><g id="Picture_Duotone" data-name="Picture/Duotone"><rect class="cls-1" width="24" height="24"/><path class="cls-2" d="M18.46,4.61H5.54a2.32,2.32,0,0,0-1.63.68,2.28,2.28,0,0,0-.68,1.63V17.08a2.28,2.28,0,0,0,.68,1.63,2.31,2.31,0,0,0,1.63.67H18.46a2.31,2.31,0,0,0,1.63-.67,2.28,2.28,0,0,0,.68-1.63V6.92a2.28,2.28,0,0,0-.68-1.63A2.32,2.32,0,0,0,18.46,4.61Zm-2.2,11.67a.43.43,0,0,1-.17.13.65.65,0,0,1-.19,0,.43.43,0,0,1-.29-.1l-4.33-3.56L7,16.35a.48.48,0,0,1-.16.08.55.55,0,0,1-.18,0,.64.64,0,0,1-.18-.06.37.37,0,0,1-.13-.12.42.42,0,0,1-.09-.16.37.37,0,0,1,0-.18.34.34,0,0,1,0-.17.41.41,0,0,1,.12-.14L10.75,12a.78.78,0,0,1,.53-.19.81.81,0,0,1,.54.19l4.37,3.6a.53.53,0,0,1,.12.14.35.35,0,0,1,.05.18.55.55,0,0,1,0,.18A.51.51,0,0,1,16.26,16.28Zm-.11-5.19a1.85,1.85,0,0,1-1-.31,2,2,0,0,1-.68-.83,1.87,1.87,0,0,1-.11-1.07,1.84,1.84,0,0,1,1.45-1.45,1.86,1.86,0,0,1,1.07.1,1.85,1.85,0,0,1,.83.68,1.89,1.89,0,0,1,.31,1,1.81,1.81,0,0,1-.54,1.3A1.86,1.86,0,0,1,16.15,11.09Z"/><path class="cls-3" d="M16.15,7.39a1.85,1.85,0,0,0-1,.31,2,2,0,0,0-.68.83,1.87,1.87,0,0,0-.11,1.07A1.86,1.86,0,0,0,16.86,11,1.84,1.84,0,0,0,18,9.24a1.85,1.85,0,0,0-.54-1.31A1.89,1.89,0,0,0,16.15,7.39Zm0,2.83a.89.89,0,0,1-.49-.18.86.86,0,0,1-.32-.41.93.93,0,0,1,.21-1A1,1,0,0,1,16,8.39a.93.93,0,0,1,.94.36,1,1,0,0,1,.17.5.76.76,0,0,1-.06.37.94.94,0,0,1-.2.33,1,1,0,0,1-.32.21,1.21,1.21,0,0,1-.38.06Z"/><path class="cls-3" d="M16.26,16.28a.43.43,0,0,1-.17.13.65.65,0,0,1-.19,0,.43.43,0,0,1-.29-.1l-4.33-3.56L7,16.35a.48.48,0,0,1-.16.08.55.55,0,0,1-.18,0,.64.64,0,0,1-.18-.06.37.37,0,0,1-.13-.12.42.42,0,0,1-.09-.16.37.37,0,0,1,0-.18.34.34,0,0,1,0-.17.41.41,0,0,1,.12-.14L10.75,12a.78.78,0,0,1,.53-.19.81.81,0,0,1,.54.19l4.37,3.6a.53.53,0,0,1,.12.14.35.35,0,0,1,.05.18.55.55,0,0,1,0,.18A.51.51,0,0,1,16.26,16.28Z"/><path class="cls-2" d="M17.13,9.25A1,1,0,0,1,17,9.8a1,1,0,0,1-.42.38,1,1,0,0,1-.57.07,1,1,0,0,1-.5-.25,1,1,0,0,1-.24-1.07,1.1,1.1,0,0,1,.36-.44,1,1,0,0,1,.54-.16.92.92,0,0,1,.37.05,1.07,1.07,0,0,1,.32.2.9.9,0,0,1,.21.3A.94.94,0,0,1,17.13,9.25Z"/></g></g></g></svg>