<svg xmlns="http://www.w3.org/2000/svg" viewBox="0 0 24 24"><defs><style>.cls-1{fill:none;}.cls-2,.cls-3{fill:#744cc6;}.cls-3{fill-opacity:0.5;}</style></defs><g id="Слой_2" data-name="Слой 2"><g id="Duotone"><g id="Pin_Duotone" data-name="Pin/Duotone"><rect class="cls-1" width="24" height="24"/><path class="cls-2" d="M18.79,8.47,15.62,5.31A1.05,1.05,0,0,0,15.23,5a1.27,1.27,0,0,0-.94,0,1.14,1.14,0,0,0-.39.27L10.54,8.69a.35.35,0,0,1-.21.1l-.84.15a1.35,1.35,0,0,0-.61.3,1.19,1.19,0,0,0-.36.57,1.11,1.11,0,0,0,0,.65,1.24,1.24,0,0,0,.31.56l1.73,1.7L5,18.26a.4.4,0,0,0-.1.15.47.47,0,0,0,0,.17.48.48,0,0,0,0,.18.4.4,0,0,0,.1.15.45.45,0,0,0,.32.14.44.44,0,0,0,.33-.14l5.54-5.54,1.92,1.92a1.2,1.2,0,0,0,.85.35.93.93,0,0,0,.37-.06,1.28,1.28,0,0,0,.55-.37,1.22,1.22,0,0,0,.27-.6l.15-.86a.4.4,0,0,1,.1-.18l3.37-3.37a1.22,1.22,0,0,0,0-1.73ZM15,6.76,13.54,8.22a.42.42,0,0,1-.33.13.46.46,0,0,1-.46-.47.43.43,0,0,1,.14-.32l1.48-1.45A.5.5,0,0,1,14.7,6a.33.33,0,0,1,.17,0,.4.4,0,0,1,.15.1.42.42,0,0,1,.11.15.57.57,0,0,1,0,.18.39.39,0,0,1,0,.18A.36.36,0,0,1,15,6.76Z"/><path class="cls-3" d="M15,6.76,13.54,8.22a.42.42,0,0,1-.33.13.46.46,0,0,1-.46-.47.43.43,0,0,1,.14-.32l1.48-1.45A.5.5,0,0,1,14.7,6a.33.33,0,0,1,.17,0,.4.4,0,0,1,.15.1.42.42,0,0,1,.11.15.57.57,0,0,1,0,.18.39.39,0,0,1,0,.18A.36.36,0,0,1,15,6.76Z"/></g></g></g></svg>