<svg xmlns="http://www.w3.org/2000/svg" viewBox="0 0 24 24"><defs><style>.cls-1{fill:none;}.cls-2,.cls-3{fill:#744cc6;}.cls-3{fill-opacity:0.5;}</style></defs><g id="Слой_2" data-name="Слой 2"><g id="Duotone"><g id="Play_Duotone" data-name="Play/Duotone"><rect class="cls-1" width="24" height="24"/><path class="cls-2" d="M18.48,3.21H5.56a2.33,2.33,0,0,0-.9.18,2.42,2.42,0,0,0-.76.51,2.57,2.57,0,0,0-.5.76,2.29,2.29,0,0,0-.17.9V18.48a2.32,2.32,0,0,0,.68,1.63,2.36,2.36,0,0,0,1.63.68H18.46a2.32,2.32,0,0,0,1.63-.68,2.28,2.28,0,0,0,.68-1.63V5.56a2.42,2.42,0,0,0-.16-.89,2.28,2.28,0,0,0-.5-.76,2.23,2.23,0,0,0-.74-.51A2.29,2.29,0,0,0,18.48,3.21ZM15,13.22l-4.61,2.34a1.39,1.39,0,0,1-.63.15,1.37,1.37,0,0,1-1.38-1.38V9.64A1.46,1.46,0,0,1,8.5,9a1.38,1.38,0,0,1,1.16-.71,1.35,1.35,0,0,1,.68.15L15,10.74a1.4,1.4,0,0,1,.56.52,1.29,1.29,0,0,1,.21.72,1.35,1.35,0,0,1-.21.73A1.38,1.38,0,0,1,15,13.22Z"/><path class="cls-3" d="M14.79,12a.42.42,0,0,1-.07.24.49.49,0,0,1-.18.17L9.92,14.78a.42.42,0,0,1-.22.05.46.46,0,0,1-.23-.05.44.44,0,0,1-.16-.17.46.46,0,0,1-.06-.23V9.69a.4.4,0,0,1,.06-.22.55.55,0,0,1,.16-.18.71.71,0,0,1,.25-.06.46.46,0,0,1,.2,0l4.62,2.34a.58.58,0,0,1,.18.17A.48.48,0,0,1,14.79,12Z"/></g></g></g></svg>