<svg xmlns="http://www.w3.org/2000/svg" viewBox="0 0 24 24"><defs><style>.cls-1{fill:none;}.cls-2,.cls-3{fill:#744cc6;}.cls-3{fill-opacity:0.5;}</style></defs><g id="Слой_2" data-name="Слой 2"><g id="Duotone"><g id="Portfolio_Duotone" data-name="Portfolio/Duotone"><rect class="cls-1" width="24" height="24"/><path class="cls-2" d="M20.77,13.67V17a2.43,2.43,0,0,1-.17.89,2.4,2.4,0,0,1-.5.75,2.38,2.38,0,0,1-.75.51,2.25,2.25,0,0,1-.89.18H5.54a2.25,2.25,0,0,1-.89-.18,2.38,2.38,0,0,1-.75-.51,2.4,2.4,0,0,1-.5-.75A2.43,2.43,0,0,1,3.23,17V13.67h6.88a1.91,1.91,0,0,0,.68,1.07,2,2,0,0,0,1.2.41,1.94,1.94,0,0,0,1.2-.41,1.91,1.91,0,0,0,.68-1.07Z"/><path class="cls-3" d="M18.46,7.4h-.74V6a1.39,1.39,0,0,0-.4-1,1.38,1.38,0,0,0-1-.4H7.66a1.38,1.38,0,0,0-1,.4,1.39,1.39,0,0,0-.4,1V7.4H5.54a2.32,2.32,0,0,0-1.63.68,2.28,2.28,0,0,0-.68,1.63v3h6.88a1.89,1.89,0,0,1,.68-1.06,2,2,0,0,1,1.2-.42,2,2,0,0,1,1.2.42,1.89,1.89,0,0,1,.68,1.06h6.89V9.69a2.34,2.34,0,0,0-.68-1.62A2.29,2.29,0,0,0,18.46,7.4ZM7.2,6a.48.48,0,0,1,.46-.46h8.68A.48.48,0,0,1,16.8,6V7.4H7.2Z"/></g></g></g></svg>