<svg xmlns="http://www.w3.org/2000/svg" viewBox="0 0 24 24"><defs><style>.cls-1{fill:none;}.cls-2,.cls-3{fill:#744cc6;}.cls-2{fill-opacity:0.5;}</style></defs><g id="Слой_2" data-name="Слой 2"><g id="Duotone"><g id="Precipitation_Duotone" data-name="Precipitation/Duotone"><rect class="cls-1" width="24" height="24"/><path class="cls-2" d="M19.93,9.35a3.5,3.5,0,0,1-.76.62,3.19,3.19,0,0,1-1.63.44,3.26,3.26,0,0,1-1.34-.29,3.08,3.08,0,0,1-1.1-.83,3.21,3.21,0,0,1-.66-1.2,3.35,3.35,0,0,1-.09-1.37,6.4,6.4,0,0,1,.36-1,3.67,3.67,0,0,1,.18-.35l1.84-3.69a.85.85,0,0,1,.83-.51,1,1,0,0,1,.49.14.91.91,0,0,1,.33.37l1.85,3.69a3.93,3.93,0,0,1,.18.39,3.89,3.89,0,0,1,.33,1,3.4,3.4,0,0,1-.13,1.38A3.33,3.33,0,0,1,19.93,9.35Z"/><path class="cls-3" d="M13.69,20.91a6.52,6.52,0,0,1-1.42,1.14,5.89,5.89,0,0,1-3,.82,6,6,0,0,1-1.52-.2,6,6,0,0,1-2.12-1A5.84,5.84,0,0,1,4.05,19.9a5.78,5.78,0,0,1-.75-3.79A10.48,10.48,0,0,1,4,14.16c.13-.28.25-.51.34-.68L8,6.1a1.38,1.38,0,0,1,.52-.55,1.54,1.54,0,0,1,.72-.21,1.43,1.43,0,0,1,.73.2,1.37,1.37,0,0,1,.51.56l3.69,7.38c.09.17.23.44.37.75a8,8,0,0,1,.66,1.89A6.17,6.17,0,0,1,15,18.68,6.28,6.28,0,0,1,13.69,20.91Z"/></g></g></g></svg>