<svg xmlns="http://www.w3.org/2000/svg" xmlns:xlink="http://www.w3.org/1999/xlink" viewBox="0 0 24 24"><defs><style>.cls-1{fill:none;}.cls-2{clip-path:url(#clip-path);}.cls-3,.cls-4{fill:#744cc6;}.cls-4{fill-opacity:0.5;}</style><clipPath id="clip-path"><rect class="cls-1" x="3.5" y="4.5" width="19" height="17"/></clipPath></defs><g id="Слой_2" data-name="Слой 2"><g id="Duotone"><g id="Presentation_Duotone" data-name="Presentation/Duotone"><rect class="cls-1" width="24" height="24"/><g class="cls-2"><path class="cls-3" d="M20,4.5H6A2.51,2.51,0,0,0,3.5,7v7.9A2.49,2.49,0,0,0,6,17.4h4.67L7.51,20.71a.57.57,0,0,0-.11.16.58.58,0,0,0,0,.19.65.65,0,0,0,0,.19.57.57,0,0,0,.11.16.46.46,0,0,0,.16.11.58.58,0,0,0,.19,0,.51.51,0,0,0,.36-.15l3.83-3.95h1.88l3.83,3.95a.48.48,0,0,0,.36.15.63.63,0,0,0,.19,0,.53.53,0,0,0,.27-.27.65.65,0,0,0,0-.19.58.58,0,0,0,0-.19.57.57,0,0,0-.11-.16l-3.16-3.26H20A2.49,2.49,0,0,0,22.5,15V7A2.51,2.51,0,0,0,20,4.5ZM18.68,8.37l-5.09,4.74L11,10.4,8,13.57a.61.61,0,0,1-.16.12.48.48,0,0,1-.2,0,.57.57,0,0,1-.18,0,.44.44,0,0,1-.16-.1.57.57,0,0,1-.11-.16.45.45,0,0,1,0-.2.43.43,0,0,1,0-.19.57.57,0,0,1,.11-.16l3.68-4,2.66,2.77L18,7.64a.46.46,0,0,1,.16-.11.58.58,0,0,1,.19,0,.65.65,0,0,1,.19,0,.57.57,0,0,1,.16.11.49.49,0,0,1,.1.57A.48.48,0,0,1,18.68,8.37Z"/><path class="cls-4" d="M18.68,8.37l-5.09,4.74L11,10.4,8,13.57a.61.61,0,0,1-.16.12.48.48,0,0,1-.2,0,.57.57,0,0,1-.18,0,.44.44,0,0,1-.16-.1.57.57,0,0,1-.11-.16.45.45,0,0,1,0-.2.43.43,0,0,1,0-.19.57.57,0,0,1,.11-.16l3.68-4,2.66,2.77L18,7.64a.46.46,0,0,1,.16-.11.58.58,0,0,1,.19,0,.65.65,0,0,1,.19,0,.57.57,0,0,1,.16.11.49.49,0,0,1,.1.57A.48.48,0,0,1,18.68,8.37Z"/></g></g></g></g></svg>