<svg xmlns="http://www.w3.org/2000/svg" viewBox="0 0 24 24"><defs><style>.cls-1{fill:none;}.cls-2,.cls-3{fill:#744cc6;}.cls-3{fill-opacity:0.5;}</style></defs><g id="Слой_2" data-name="Слой 2"><g id="Duotone"><g id="Printer_Duotone" data-name="Printer/Duotone"><rect class="cls-1" width="24" height="24"/><path class="cls-2" d="M18.9,11.54a1.31,1.31,0,0,1-.67-.51,1.39,1.39,0,0,1-.25-.81V8.71a.46.46,0,0,0-.46-.47H16.15v2.5h.47a.42.42,0,0,1,.32.13.45.45,0,0,1,.14.33.48.48,0,0,1-.46.46H7.38a.48.48,0,0,1-.46-.46.45.45,0,0,1,.14-.33.42.42,0,0,1,.32-.13h.47V8.24H6.46a.43.43,0,0,0-.32.14A.44.44,0,0,0,6,8.71v1.51a1.32,1.32,0,0,1-.25.81,1.36,1.36,0,0,1-.67.51,1.33,1.33,0,0,0-.68.51,1.46,1.46,0,0,0-.25.81v4.56A1.38,1.38,0,0,0,5.54,18.8H18.46a1.38,1.38,0,0,0,1.39-1.38V12.86a1.37,1.37,0,0,0-.26-.81A1.35,1.35,0,0,0,18.9,11.54Zm-1.14,6H6.24a.48.48,0,0,1-.46-.46.51.51,0,0,1,.13-.33.46.46,0,0,1,.33-.13h.68v-.93a1.44,1.44,0,0,1,.1-.54,1.26,1.26,0,0,1,.3-.46,1.39,1.39,0,0,1,.45-.31,1.41,1.41,0,0,1,.54-.11h7.38a1.41,1.41,0,0,1,.54.11,1.29,1.29,0,0,1,.45.31,1.41,1.41,0,0,1,.3.46,1.44,1.44,0,0,1,.1.54v.93h.68a.46.46,0,0,1,.33.13.51.51,0,0,1,.13.33.48.48,0,0,1-.46.46Z"/><path class="cls-3" d="M14.77,5.2H9.23a.44.44,0,0,0-.46.46v5.08h6.46V5.66a.44.44,0,0,0-.46-.46ZM13.62,8.8H10.38a.43.43,0,0,1-.32-.14.45.45,0,0,1-.14-.32A.45.45,0,0,1,10.06,8a.43.43,0,0,1,.32-.14h3.24a.43.43,0,0,1,.32.14.45.45,0,0,1,.14.33.45.45,0,0,1-.14.32A.43.43,0,0,1,13.62,8.8Zm0-1.7H10.38a.48.48,0,0,1-.46-.46.45.45,0,0,1,.14-.33.42.42,0,0,1,.32-.13h3.24a.42.42,0,0,1,.32.13.45.45,0,0,1,.14.33.48.48,0,0,1-.46.46Z"/><path class="cls-2" d="M16.15,15.69v.93H7.85v-.93A.42.42,0,0,1,8,15.37a.47.47,0,0,1,.33-.14h7.38a.45.45,0,0,1,.33.14A.42.42,0,0,1,16.15,15.69Z"/></g></g></g></svg>