<svg xmlns="http://www.w3.org/2000/svg" viewBox="0 0 24 24"><defs><style>.cls-1{fill:none;}.cls-2,.cls-3{fill:#744cc6;}.cls-3{fill-opacity:0.5;}</style></defs><g id="Слой_2" data-name="Слой 2"><g id="Duotone"><g id="Purse_Duotone" data-name="Purse/Duotone"><rect class="cls-1" width="24" height="24"/><path class="cls-2" d="M20.31,11.15v6.23a1.5,1.5,0,0,1-.43,1,1.46,1.46,0,0,1-1,.43H5.16a1.46,1.46,0,0,1-1-.43,1.5,1.5,0,0,1-.43-1V11.15h6a2.46,2.46,0,0,0,.86,1.4,2.4,2.4,0,0,0,1.54.55,2.45,2.45,0,0,0,1.55-.55,2.49,2.49,0,0,0,.85-1.4Z"/><path class="cls-3" d="M20.31,10.17H13.42a1.38,1.38,0,0,1,0,1,1.44,1.44,0,0,1-.53.71,1.49,1.49,0,0,1-.84.26,1.38,1.38,0,0,1-.84-.27,1.44,1.44,0,0,1-.54-.7,1.38,1.38,0,0,1,0-1h-7V6.61A1.49,1.49,0,0,1,5.16,5.15H18.84a1.46,1.46,0,0,1,1,.43,1.5,1.5,0,0,1,.43,1Z"/></g></g></g></svg>