<svg xmlns="http://www.w3.org/2000/svg" viewBox="0 0 24 24"><defs><style>.cls-1{fill:none;}.cls-2,.cls-3{fill:#744cc6;}.cls-3{fill-opacity:0.5;}</style></defs><g id="Слой_2" data-name="Слой 2"><g id="Duotone"><g id="QRCode_Duotone" data-name="QRCode/Duotone"><rect class="cls-1" width="24" height="24"/><path class="cls-2" d="M18.46,3.23H5.54A2.32,2.32,0,0,0,3.23,5.54V18.46a2.32,2.32,0,0,0,2.31,2.31H18.46a2.32,2.32,0,0,0,2.31-2.31V5.54a2.32,2.32,0,0,0-2.31-2.31ZM5.75,6a.47.47,0,0,1,.14-.33.46.46,0,0,1,.32-.13h.93a.46.46,0,0,1,.32.13A.47.47,0,0,1,7.6,6v.92a.47.47,0,0,1-.14.33.42.42,0,0,1-.32.13H6.21a.46.46,0,0,1-.32-.13.47.47,0,0,1-.14-.33Zm0,4.61V9.69a.47.47,0,0,1,.14-.33.46.46,0,0,1,.32-.13h.93a.46.46,0,0,1,.32.13.47.47,0,0,1,.14.33v.92a.45.45,0,0,1-.14.33.43.43,0,0,1-.32.14H6.21a.47.47,0,0,1-.32-.14A.45.45,0,0,1,5.75,10.61ZM9.9,17.08a.42.42,0,0,1-.13.32.45.45,0,0,1-.33.14H6.67a.48.48,0,0,1-.46-.46V14.31A.45.45,0,0,1,6.35,14a.42.42,0,0,1,.32-.13H9.44a.44.44,0,0,1,.46.46Zm1.39-6.47a.45.45,0,0,1-.14.33.43.43,0,0,1-.32.14H9.9a.48.48,0,0,1-.46-.47V9.69a.47.47,0,0,1,.14-.33.46.46,0,0,1,.32-.13h.93a.46.46,0,0,1,.32.13.47.47,0,0,1,.14.33Zm0-3.69a.47.47,0,0,1-.14.33.42.42,0,0,1-.32.13H9.9a.48.48,0,0,1-.32-.13.52.52,0,0,1-.14-.33V6a.47.47,0,0,1,.14-.33.46.46,0,0,1,.32-.13h.93a.46.46,0,0,1,.32.13.47.47,0,0,1,.14.33ZM14.56,18a.47.47,0,0,1-.14.33.48.48,0,0,1-.32.13h-.93a.46.46,0,0,1-.32-.13.47.47,0,0,1-.14-.33v-.92a.45.45,0,0,1,.14-.33.43.43,0,0,1,.32-.14h.93a.45.45,0,0,1,.32.14.45.45,0,0,1,.14.33Zm0-3.69a.43.43,0,0,1-.14.32.45.45,0,0,1-.32.14h-.93a.48.48,0,0,1-.46-.46v-.93a.48.48,0,0,1,.46-.46h.93a.45.45,0,0,1,.32.14.43.43,0,0,1,.14.32ZM14.1,9.69V6.92a.42.42,0,0,1,.13-.32.45.45,0,0,1,.33-.14h2.77a.48.48,0,0,1,.46.46V9.69a.47.47,0,0,1-.14.33.46.46,0,0,1-.32.13H14.56a.49.49,0,0,1-.33-.13A.51.51,0,0,1,14.1,9.69ZM18.25,18a.47.47,0,0,1-.14.33.46.46,0,0,1-.32.13h-.93a.46.46,0,0,1-.32-.13A.47.47,0,0,1,16.4,18v-.92a.45.45,0,0,1,.14-.33.43.43,0,0,1,.32-.14h.93a.43.43,0,0,1,.32.14.45.45,0,0,1,.14.33Zm0-3.69a.48.48,0,0,1-.46.46h-.93a.48.48,0,0,1-.46-.46v-.93a.48.48,0,0,1,.46-.46h.93a.48.48,0,0,1,.46.46Z"/><path class="cls-3" d="M14.56,17.08V18a.47.47,0,0,1-.14.33.48.48,0,0,1-.32.13h-.93a.46.46,0,0,1-.32-.13.47.47,0,0,1-.14-.33v-.92a.45.45,0,0,1,.14-.33.43.43,0,0,1,.32-.14h.93a.45.45,0,0,1,.32.14A.45.45,0,0,1,14.56,17.08Z"/><path class="cls-3" d="M18.25,17.08V18a.47.47,0,0,1-.14.33.46.46,0,0,1-.32.13h-.93a.46.46,0,0,1-.32-.13A.47.47,0,0,1,16.4,18v-.92a.45.45,0,0,1,.14-.33.43.43,0,0,1,.32-.14h.93a.43.43,0,0,1,.32.14A.45.45,0,0,1,18.25,17.08Z"/><path class="cls-3" d="M18.25,13.38v.93a.48.48,0,0,1-.46.46h-.93a.48.48,0,0,1-.46-.46v-.93a.48.48,0,0,1,.46-.46h.93A.33.33,0,0,1,18,13a.4.4,0,0,1,.15.1.31.31,0,0,1,.1.15A.33.33,0,0,1,18.25,13.38Z"/><path class="cls-3" d="M14.56,13.42v1a.57.57,0,0,1,0,.18.44.44,0,0,1-.1.16.39.39,0,0,1-.15.11.61.61,0,0,1-.18.05h-.93a.61.61,0,0,1-.18-.05.33.33,0,0,1-.15-.11.44.44,0,0,1-.1-.16.57.57,0,0,1,0-.18v-1a.52.52,0,0,1,0-.18.44.44,0,0,1,.1-.16A.33.33,0,0,1,13,13a.41.41,0,0,1,.18-.05h.93a.41.41,0,0,1,.18.05.39.39,0,0,1,.15.11.44.44,0,0,1,.1.16A.52.52,0,0,1,14.56,13.42Z"/><path class="cls-3" d="M7.6,9.69v.92a.45.45,0,0,1-.14.33.43.43,0,0,1-.32.14H6.21a.47.47,0,0,1-.32-.14.45.45,0,0,1-.14-.33V9.69a.47.47,0,0,1,.14-.33.46.46,0,0,1,.32-.13h.93a.46.46,0,0,1,.32.13A.47.47,0,0,1,7.6,9.69Z"/><path class="cls-3" d="M11.29,9.69v.92a.45.45,0,0,1-.14.33.43.43,0,0,1-.32.14H9.9a.48.48,0,0,1-.46-.47V9.69a.47.47,0,0,1,.14-.33.46.46,0,0,1,.32-.13h.93a.46.46,0,0,1,.32.13A.47.47,0,0,1,11.29,9.69Z"/><path class="cls-3" d="M11.29,6v.92a.47.47,0,0,1-.14.33.42.42,0,0,1-.32.13H9.9a.48.48,0,0,1-.32-.13.52.52,0,0,1-.14-.33V6a.47.47,0,0,1,.14-.33.46.46,0,0,1,.32-.13h.93a.46.46,0,0,1,.32.13A.47.47,0,0,1,11.29,6Z"/><path class="cls-3" d="M7.6,6v.92a.47.47,0,0,1-.14.33.42.42,0,0,1-.32.13H6.21a.46.46,0,0,1-.32-.13.47.47,0,0,1-.14-.33V6a.47.47,0,0,1,.14-.33.46.46,0,0,1,.32-.13h.93a.46.46,0,0,1,.32.13A.47.47,0,0,1,7.6,6Z"/><path class="cls-2" d="M16.86,7.85v.92a.46.46,0,0,1-.13.33.49.49,0,0,1-.33.13h-.92A.44.44,0,0,1,15,8.77V7.85a.49.49,0,0,1,.13-.33.47.47,0,0,1,.33-.14h.92a.45.45,0,0,1,.33.14A.44.44,0,0,1,16.86,7.85Z"/><path class="cls-2" d="M9,15.23v.92a.49.49,0,0,1-.13.33.46.46,0,0,1-.33.13H7.6a.49.49,0,0,1-.33-.13.55.55,0,0,1-.14-.33v-.92a.47.47,0,0,1,.14-.33.49.49,0,0,1,.33-.13h.92a.44.44,0,0,1,.46.46Z"/></g></g></g></svg>