<svg xmlns="http://www.w3.org/2000/svg" viewBox="0 0 24 24"><defs><style>.cls-1{fill:none;}.cls-2,.cls-3{fill:#744cc6;}.cls-3{fill-opacity:0.5;}</style></defs><g id="Слой_2" data-name="Слой 2"><g id="Duotone"><g id="Rain_Duotone" data-name="Rain/Duotone"><rect class="cls-1" width="24" height="24"/><path class="cls-2" d="M21.23,11.16h-1A5.9,5.9,0,0,0,20.7,8.5a5.78,5.78,0,0,0-.8-2.59,6,6,0,0,0-8.2-2.13A5.94,5.94,0,0,0,9.05,6.94a4.13,4.13,0,0,0-1.87-.32A4.1,4.1,0,0,0,3.76,8.87a4.13,4.13,0,0,0-.43,2.29H2.77a.47.47,0,0,0-.33.14.49.49,0,0,0-.13.33.45.45,0,0,0,.14.32.43.43,0,0,0,.32.14H21.23a.47.47,0,0,0,.33-.14.46.46,0,0,0,.13-.32.49.49,0,0,0-.13-.33A.47.47,0,0,0,21.23,11.16ZM14.47,9.38H18a.45.45,0,0,1,.33.14.43.43,0,0,1,.14.32.48.48,0,0,1-.47.47H14.47a.57.57,0,0,1-.18,0,.42.42,0,0,1-.16-.09A.39.39,0,0,1,14,10a.41.41,0,0,1,0-.19.36.36,0,0,1,0-.18.46.46,0,0,1,.11-.16.39.39,0,0,1,.16-.1A.63.63,0,0,1,14.47,9.38Z"/><path class="cls-3" d="M17.84,15.26a1.51,1.51,0,0,1-.06.67,1.63,1.63,0,0,1-.33.59,1.72,1.72,0,0,1-1.15.5,1.49,1.49,0,0,1-.77-.21,1.56,1.56,0,0,1-.58-.56,1.48,1.48,0,0,1-.19-1,2.8,2.8,0,0,1,.16-.46,1.09,1.09,0,0,1,.08-.15l.72-1.43a.67.67,0,0,1,.24-.26.75.75,0,0,1,.33-.1.79.79,0,0,1,.34.1.85.85,0,0,1,.24.26l.72,1.44a1.09,1.09,0,0,1,.08.15A1.66,1.66,0,0,1,17.84,15.26Z"/><path class="cls-3" d="M13.11,15.26a1.57,1.57,0,0,1-.4,1.26,1.13,1.13,0,0,1-.37.28,1.41,1.41,0,0,1-.77.22,1.58,1.58,0,0,1-1.35-.77,1.55,1.55,0,0,1-.2-1,2.8,2.8,0,0,1,.16-.46l.08-.15L11,13.2a.63.63,0,0,1,.25-.26.67.67,0,0,1,.34-.1.63.63,0,0,1,.57.36l.73,1.44.08.15A1.63,1.63,0,0,1,13.11,15.26Z"/><path class="cls-3" d="M15.5,19.27a1.56,1.56,0,0,1-.06.68,1.53,1.53,0,0,1-.33.58,1.48,1.48,0,0,1-.37.29,1.55,1.55,0,0,1-1.56,0,1.61,1.61,0,0,1-.57-.56,1.47,1.47,0,0,1-.19-1,2,2,0,0,1,.16-.47l.08-.15.72-1.44a.64.64,0,0,1,.24-.25.63.63,0,0,1,.68,0,.64.64,0,0,1,.23.26l.73,1.43.09.16A2,2,0,0,1,15.5,19.27Z"/></g></g></g></svg>