<svg xmlns="http://www.w3.org/2000/svg" viewBox="0 0 24 24"><defs><style>.cls-1{fill:none;}.cls-2,.cls-3{fill:#744cc6;}.cls-3{fill-opacity:0.5;}</style></defs><g id="Слой_2" data-name="Слой 2"><g id="Duotone"><g id="Rhythm_Duotone" data-name="Rhythm/Duotone"><rect class="cls-1" width="24" height="24"/><path class="cls-2" d="M18.91,12.53,13.07,19.4a1.17,1.17,0,0,1-.92.43,1.11,1.11,0,0,1-.51-.1,1.25,1.25,0,0,1-.42-.3L4.76,12.2a3.81,3.81,0,0,1-.52-.61h1.7l2.4-2.38,2.39,2.39,3.69,3.69,2.77-2.77Z"/><path class="cls-3" d="M20.62,8.8a4.74,4.74,0,0,1-.92,2.77H16.86L14.46,14,8.37,7.86,5.6,10.63H3.76a4.68,4.68,0,0,1-.38-1.85A4.61,4.61,0,0,1,7.86,4.17,4.34,4.34,0,0,1,10,4.75a4.4,4.4,0,0,1,1.59,1.56l.4.63.39-.63A4.38,4.38,0,0,1,14,4.75a4.32,4.32,0,0,1,2.16-.58A4.59,4.59,0,0,1,20.62,8.8Z"/></g></g></g></svg>