<svg xmlns="http://www.w3.org/2000/svg" viewBox="0 0 24 24"><defs><style>.cls-1{fill:none;}.cls-2,.cls-3{fill:#744cc6;}.cls-3{fill-opacity:0.5;}</style></defs><g id="Слой_2" data-name="Слой 2"><g id="Duotone"><g id="Rocket_Duotone" data-name="Rocket/Duotone"><rect class="cls-1" width="24" height="24"/><path class="cls-2" d="M17.87,10.86a.48.48,0,0,1-.07.23.49.49,0,0,1-.19.16l-2.41,1-1.35-4,3.82,2.2a.44.44,0,0,1,.16.17A.51.51,0,0,1,17.87,10.86Z"/><path class="cls-2" d="M12.26,15.22l-1,2.42a.4.4,0,0,1-.15.19.48.48,0,0,1-.23.07.38.38,0,0,1-.24,0,.37.37,0,0,1-.17-.16l-2.2-3.82Z"/><path class="cls-2" d="M14.87,14.33,12.33,6.71c0-.16-.12-.38-.21-.64a10.15,10.15,0,0,0-.8-1.66,4.68,4.68,0,0,0-2.6-1.7A4.94,4.94,0,0,0,5,3.22a5,5,0,0,0-2.28,3,4.76,4.76,0,0,0-.15,1.5A5.09,5.09,0,0,0,3.1,9.77a5.21,5.21,0,0,0,1.35,1.64A7.24,7.24,0,0,0,6,12.14l.72.24,7.6,2.54a.6.6,0,0,0,.23,0,.45.45,0,0,0,.21-.12.5.5,0,0,0,.13-.22A.46.46,0,0,0,14.87,14.33ZM9.47,9.47a2.23,2.23,0,0,1-.73.49,2.19,2.19,0,0,1-.87.18,2.3,2.3,0,0,1-1.59-.67,2.17,2.17,0,0,1-.62-1.15A2.25,2.25,0,0,1,5.78,7a2.2,2.2,0,0,1,.84-1A2.26,2.26,0,0,1,9.47,9.47Z"/><path class="cls-3" d="M8.84,8.86a1.39,1.39,0,0,1-1.95,0,1.32,1.32,0,0,1-.3-.44,1.39,1.39,0,0,1-.1-.53,1.4,1.4,0,0,1,.1-.54,1.43,1.43,0,0,1,.3-.44A1.35,1.35,0,0,1,8.4,6.6a1.25,1.25,0,0,1,.44.31,1.43,1.43,0,0,1,.3.44,1.36,1.36,0,0,1,0,1.07A1.32,1.32,0,0,1,8.84,8.86Z"/><path class="cls-3" d="M16.54,21.45h.87a.46.46,0,0,0,.46-.46v-.87a.47.47,0,0,0-.46-.47h-.87a.47.47,0,0,0-.46.47V21A.46.46,0,0,0,16.54,21.45Z"/><path class="cls-3" d="M20.13,17.86H21a.46.46,0,0,0,.46-.46v-.87a.47.47,0,0,0-.46-.47h-.87a.47.47,0,0,0-.46.47v.87A.46.46,0,0,0,20.13,17.86Z"/><path class="cls-3" d="M16.54,17.86h.87a.46.46,0,0,0,.46-.46v-.87a.47.47,0,0,0-.46-.47h-.87a.47.47,0,0,0-.46.47v.87A.46.46,0,0,0,16.54,17.86Z"/></g></g></g></svg>