<svg xmlns="http://www.w3.org/2000/svg" viewBox="0 0 24 24"><defs><style>.cls-1{fill:none;}.cls-2,.cls-3{fill:#744cc6;}.cls-3{fill-opacity:0.5;}</style></defs><g id="Слой_2" data-name="Слой 2"><g id="Duotone"><g id="Save_Duotone" data-name="Save/Duotone"><rect class="cls-1" width="24" height="24"/><path class="cls-2" d="M20.77,8.69V19.76a1.84,1.84,0,0,1-1.85,1.85H5.08a1.85,1.85,0,0,1-1.31-.54,1.89,1.89,0,0,1-.54-1.31V8.69A1.84,1.84,0,0,1,5.08,6.84h5.54v4.68a1.38,1.38,0,1,0,2.76,0V6.84h5.54a1.89,1.89,0,0,1,1.31.54A1.85,1.85,0,0,1,20.77,8.69Z"/><path class="cls-3" d="M15.09,6a.31.31,0,0,1-.15.1.47.47,0,0,1-.17,0A.51.51,0,0,1,14.44,6l-2-2v7.5a.45.45,0,0,1-.14.33.47.47,0,0,1-.65,0,.49.49,0,0,1-.13-.33V4l-2,2A.31.31,0,0,1,9.4,6a.33.33,0,0,1-.17,0,.39.39,0,0,1-.18,0,.31.31,0,0,1-.15-.1.42.42,0,0,1-.13-.32.44.44,0,0,1,.13-.33l2.77-2.77a.39.39,0,0,1,.19-.12H12a.24.24,0,0,1,.14.05.4.4,0,0,1,.15.1L15.1,5.32a.46.46,0,0,1,.13.32A.43.43,0,0,1,15.09,6Z"/></g></g></g></svg>