<svg xmlns="http://www.w3.org/2000/svg" viewBox="0 0 24 24"><defs><style>.cls-1{fill:none;}.cls-2,.cls-3{fill:#744cc6;}.cls-3{fill-opacity:0.5;}</style></defs><g id="Слой_2" data-name="Слой 2"><g id="Duotone"><g id="Scale_Increase_Duotone" data-name="Scale/Increase/Duotone"><rect class="cls-1" width="24" height="24"/><path class="cls-2" d="M18.72,18.12,16.11,13.7a6.2,6.2,0,0,0,.78-7.39A6.36,6.36,0,0,0,8.21,4.1,6.33,6.33,0,0,0,6.36,5.71a6.19,6.19,0,0,0-1.08,2.2,6.28,6.28,0,0,0-.15,2.44,6.16,6.16,0,0,0,.8,2.32A6.43,6.43,0,0,0,8.29,15a6.34,6.34,0,0,0,3.18.82,5.21,5.21,0,0,0,1.36-.15l2.59,4.42a1.47,1.47,0,0,0,.53.52,1.53,1.53,0,0,0,.72.2,1.34,1.34,0,0,0,.72-.21l.86-.48a1.45,1.45,0,0,0,.64-.89A1.41,1.41,0,0,0,18.72,18.12ZM13.27,10H11.89v1.35a.37.37,0,0,1,0,.18.38.38,0,0,1-.09.15.39.39,0,0,1-.16.1.33.33,0,0,1-.17,0,.48.48,0,0,1-.47-.47V10H9.58a.52.52,0,0,1-.32-.14.45.45,0,0,1-.14-.32.49.49,0,0,1,.13-.33A.47.47,0,0,1,9.58,9H11V7.68a.58.58,0,0,1,.14-.33.49.49,0,0,1,.33-.13.42.42,0,0,1,.32.13.45.45,0,0,1,.14.33V9h1.38a.47.47,0,0,1,.33.14.49.49,0,0,1,.13.33.48.48,0,0,1-.13.32A.47.47,0,0,1,13.27,10Z"/><path class="cls-3" d="M13.79,9.51a.45.45,0,0,1-.14.32.48.48,0,0,1-.34.14H11.89v1.35a.36.36,0,0,1,0,.18.4.4,0,0,1-.1.15.39.39,0,0,1-.16.1.37.37,0,0,1-.18,0,.47.47,0,0,1-.33-.14.45.45,0,0,1-.14-.33V10H9.55a.53.53,0,0,1-.33-.14.45.45,0,0,1-.14-.32.49.49,0,0,1,.13-.33A.48.48,0,0,1,9.55,9H11V7.68a.47.47,0,0,1,.14-.33.51.51,0,0,1,.33-.13.47.47,0,0,1,.34.13.51.51,0,0,1,.13.33V9h1.42a.51.51,0,0,1,.33.15A.46.46,0,0,1,13.79,9.51Z"/></g></g></g></svg>