<svg xmlns="http://www.w3.org/2000/svg" viewBox="0 0 24 24"><defs><style>.cls-1{fill:none;}.cls-2,.cls-3{fill:#744cc6;}.cls-3{fill-opacity:0.5;}</style></defs><g id="Слой_2" data-name="Слой 2"><g id="Duotone"><g id="Scale_Decrease_Duotone" data-name="Scale/Decrease/Duotone"><rect class="cls-1" width="24" height="24"/><path class="cls-2" d="M18.73,18.12,16.12,13.7a6.21,6.21,0,0,0,.77-7.38A6.38,6.38,0,0,0,8.22,4.09,6.26,6.26,0,0,0,5.28,7.9a6.37,6.37,0,0,0-.15,2.46,6.23,6.23,0,0,0,.8,2.32A6.33,6.33,0,0,0,8.29,15a6.42,6.42,0,0,0,3.18.83,6.23,6.23,0,0,0,1.36-.15l2.6,4.41a1.45,1.45,0,0,0,1.25.71,1.52,1.52,0,0,0,.72-.19l.84-.48a1.43,1.43,0,0,0,.65-.89A1.48,1.48,0,0,0,18.73,18.12ZM13.27,10H9.58a.51.51,0,0,1-.33-.13.48.48,0,0,1,0-.66A.51.51,0,0,1,9.58,9h3.69a.46.46,0,1,1,0,.92Z"/><path class="cls-3" d="M13.79,9.5a.47.47,0,0,1-.14.33.51.51,0,0,1-.33.13H9.57a.51.51,0,0,1-.33-.13.46.46,0,0,1,0-.66A.51.51,0,0,1,9.57,9h3.77a.49.49,0,0,1,.32.14A.48.48,0,0,1,13.79,9.5Z"/></g></g></g></svg>