<svg xmlns="http://www.w3.org/2000/svg" viewBox="0 0 24 24"><defs><style>.cls-1{fill:none;}.cls-2,.cls-3{fill:#744cc6;}.cls-3{fill-opacity:0.5;}</style></defs><g id="Слой_2" data-name="Слой 2"><g id="Duotone"><g id="Screenshot_Duotone" data-name="Screenshot/Duotone"><rect class="cls-1" width="24" height="24"/><path class="cls-2" d="M10.65,11a.47.47,0,0,1-.33.14A.43.43,0,0,1,10,11L5.38,6.42V9.19a.44.44,0,0,1-.46.46.44.44,0,0,1-.46-.46V5.29a.48.48,0,0,1,0-.18A.42.42,0,0,1,4.6,5a.71.71,0,0,1,.32-.14H8.85a.39.39,0,0,1,.18,0,.45.45,0,0,1,.14.1.31.31,0,0,1,.1.15.52.52,0,0,1,0,.18.44.44,0,0,1-.13.32.45.45,0,0,1-.33.14H6.07l4.62,4.61a.47.47,0,0,1,.1.32A.41.41,0,0,1,10.65,11Z"/><path class="cls-3" d="M13.35,11a.46.46,0,0,1,0-.66l4.57-4.61H15.15a.47.47,0,0,1-.33-.14.42.42,0,0,1-.13-.32.44.44,0,0,1,.46-.46h3.93a.57.57,0,0,1,.18,0,.71.71,0,0,1,.14.1.81.81,0,0,1,.14.33V9.18a.57.57,0,0,1,0,.18.71.71,0,0,1-.1.14.44.44,0,0,1-.15.1l-.18,0a.44.44,0,0,1-.46-.46V6.4L14,11a.46.46,0,0,1-.15.09.57.57,0,0,1-.18,0,.61.61,0,0,1-.18-.05A.49.49,0,0,1,13.35,11Z"/><path class="cls-2" d="M13.35,13a.44.44,0,0,1,.33-.14A.43.43,0,0,1,14,13l4.62,4.57V14.81a.46.46,0,1,1,.92,0v3.93a.57.57,0,0,1,0,.18.53.53,0,0,1-.11.15.7.7,0,0,1-.32.13H15.15a.57.57,0,0,1-.18,0,.65.65,0,0,1-.15-.1.38.38,0,0,1-.09-.15.29.29,0,0,1,0-.18.42.42,0,0,1,.13-.32.45.45,0,0,1,.33-.14H18l-4.61-4.61a.72.72,0,0,1-.11-.15.57.57,0,0,1,0-.18.38.38,0,0,1,0-.18A.36.36,0,0,1,13.35,13Z"/><path class="cls-3" d="M10.66,13a.46.46,0,0,1,0,.66L6.09,18.29H8.86a.47.47,0,0,1,.33.14.46.46,0,0,1,.13.32.49.49,0,0,1-.13.33.46.46,0,0,1-.33.13H5a.57.57,0,0,1-.18,0,.56.56,0,0,1-.15-.1,1,1,0,0,1-.14-.33V14.82a.58.58,0,0,1,0-.18.45.45,0,0,1,.1-.14.31.31,0,0,1,.15-.1l.18,0a.46.46,0,0,1,.32.13.47.47,0,0,1,.14.33V17.6L10,13a.47.47,0,0,1,.32-.1A.45.45,0,0,1,10.66,13Z"/></g></g></g></svg>