<svg xmlns="http://www.w3.org/2000/svg" viewBox="0 0 24 24"><defs><style>.cls-1{fill:none;}.cls-2,.cls-3{fill:#744cc6;}.cls-3{fill-opacity:0.5;}</style></defs><g id="Слой_2" data-name="Слой 2"><g id="Duotone"><g id="Search_Duotone" data-name="Search/Duotone"><rect class="cls-1" width="24" height="24"/><path class="cls-2" d="M18.72,18.13,16.13,13.7a6.18,6.18,0,0,0,1.59-3.56,6.29,6.29,0,0,0-.82-3.82A6.38,6.38,0,0,0,8.22,4.1,6.18,6.18,0,0,0,5.29,7.92a6.28,6.28,0,0,0,.65,4.77,6.41,6.41,0,0,0,6.86,2.94l2.59,4.42a1.39,1.39,0,0,0,.53.52,1.53,1.53,0,0,0,.72.2,1.42,1.42,0,0,0,.72-.2l.86-.49a1.45,1.45,0,0,0,.66-.87A1.41,1.41,0,0,0,18.72,18.13Zm-12-5.93a5.36,5.36,0,0,1-.68-2,5.27,5.27,0,0,1,.12-2.09,5.21,5.21,0,0,1,.93-1.87A5.32,5.32,0,0,1,8.66,4.88a5.49,5.49,0,0,1,7.39,1.93,5.32,5.32,0,0,1-.87,6.46l-.28.25a5.19,5.19,0,0,1-.81.58,6.52,6.52,0,0,1-1.25.53A5.49,5.49,0,0,1,6.73,12.2Z"/><path class="cls-3" d="M15.24,13.33l-.28.24a5.77,5.77,0,0,1-.81.59,5.77,5.77,0,0,1-1.26.52,5.48,5.48,0,0,1-6.16-2.46,5.2,5.2,0,0,1-.69-2A5.3,5.3,0,0,1,8.66,4.88a5.49,5.49,0,0,1,7.39,1.93,5.33,5.33,0,0,1-.81,6.52Z"/></g></g></g></svg>