<svg xmlns="http://www.w3.org/2000/svg" viewBox="0 0 24 24"><defs><style>.cls-1{fill:none;}.cls-2,.cls-3{fill:#744cc6;}.cls-2{fill-opacity:0.5;}</style></defs><g id="Слой_2" data-name="Слой 2"><g id="Duotone"><g id="Settings_Duotone" data-name="Settings/Duotone"><rect class="cls-1" width="24" height="24"/><circle class="cls-2" cx="12" cy="12" r="3"/><path class="cls-3" d="M19.35,10h-.93a6.5,6.5,0,0,0-.5-1.11l.68-.69a1.44,1.44,0,0,0,.31-.46A1.35,1.35,0,0,0,19,7.2a1.36,1.36,0,0,0-.11-.56,1.6,1.6,0,0,0-.31-.47l-.76-.74a1.47,1.47,0,0,0-1-.4,1.51,1.51,0,0,0-1,.4l-.65.67A6.47,6.47,0,0,0,14,5.63v-1a1.47,1.47,0,0,0-.44-1,1.44,1.44,0,0,0-1-.41h-1.1A1.45,1.45,0,0,0,10,4.65v.92A7.69,7.69,0,0,0,8.93,6l-.69-.67a1.44,1.44,0,0,0-.46-.31A1.31,1.31,0,0,0,7.23,5a1.44,1.44,0,0,0-1,.41l-.74.76a1.33,1.33,0,0,0-.35.49A1.62,1.62,0,0,0,5,7.2a1.38,1.38,0,0,0,.43,1l.68.69A6.72,6.72,0,0,0,5.63,10H4.71a1.46,1.46,0,0,0-1,.43,1.45,1.45,0,0,0-.42,1v1.08a1.55,1.55,0,0,0,.11.56,1.6,1.6,0,0,0,.31.47,1.6,1.6,0,0,0,.47.31,1.35,1.35,0,0,0,.56.1h.92a7.43,7.43,0,0,0,.46,1.13l-.67.67a1.44,1.44,0,0,0,0,2l.77.75a1.48,1.48,0,0,0,1,.41,1.5,1.5,0,0,0,1-.41l.67-.67a6.43,6.43,0,0,0,1.12.46v.92a1.45,1.45,0,0,0,.41,1,1.27,1.27,0,0,0,.47.32,1.39,1.39,0,0,0,.57.12h1.1a1.55,1.55,0,0,0,.56-.11,1.32,1.32,0,0,0,.46-.32,1.4,1.4,0,0,0,.32-.47,1.28,1.28,0,0,0,.1-.55V18.4a6.57,6.57,0,0,0,1.13-.47l.66.67a1.5,1.5,0,0,0,1,.41,1.48,1.48,0,0,0,1-.41l.78-.77a1.42,1.42,0,0,0,.42-1,1.45,1.45,0,0,0-.42-1l-.69-.69A8.62,8.62,0,0,0,18.38,14h.92a1.45,1.45,0,0,0,1-.42,1.43,1.43,0,0,0,.42-1V11.46a1.44,1.44,0,0,0-.4-1A1.49,1.49,0,0,0,19.35,10ZM12,14.48a2.48,2.48,0,0,1-.51-4.91,3.27,3.27,0,0,1,1,0,2.48,2.48,0,0,1,1.14,4.27A2.45,2.45,0,0,1,12,14.48Z"/></g></g></g></svg>