<svg xmlns="http://www.w3.org/2000/svg" viewBox="0 0 24 24"><defs><style>.cls-1{fill:none;}.cls-2{fill:#744cc6;}</style></defs><g id="Слой_2" data-name="Слой 2"><g id="Duotone"><g id="Snow_Duotone" data-name="Snow/Duotone"><rect class="cls-1" width="24" height="24"/><path class="cls-2" d="M16,7.39a1.29,1.29,0,0,0,.25.36,1,1,0,0,0,.37.25,1.32,1.32,0,0,0,.78.12,1.29,1.29,0,0,0,.71-.37l.62.62A2.18,2.18,0,0,1,16,8.65l-2.91,2.91h6.82a.44.44,0,0,1,.43.43.32.32,0,0,1,0,.17.4.4,0,0,1-.1.15.42.42,0,0,1-.14.09.32.32,0,0,1-.17,0H13.05L16,15.34A2.19,2.19,0,0,1,17.4,15a2.15,2.15,0,0,1,1.33.64l-.61.62a1.32,1.32,0,0,0-.71-.37,1.35,1.35,0,0,0-.79.11,1.27,1.27,0,0,0-.36.26,1.19,1.19,0,0,0-.26.36,1.33,1.33,0,0,0-.1.79,1.28,1.28,0,0,0,.36.7l-.62.62A2.19,2.19,0,0,1,15,17.39,2.15,2.15,0,0,1,15.37,16l-2.93-2.9v6.81a.47.47,0,0,1-.12.32.53.53,0,0,1-.31.13.44.44,0,0,1-.45-.45V13.05L8.65,16A2.15,2.15,0,0,1,9,17.4a2.19,2.19,0,0,1-.63,1.33l-.62-.62a1.27,1.27,0,0,0,.36-.71,1.31,1.31,0,0,0-.1-.78A1.38,1.38,0,0,0,7.4,16a1.34,1.34,0,0,0-.79-.1,1.31,1.31,0,0,0-.71.36l-.61-.62A2.16,2.16,0,0,1,6.62,15a2.19,2.19,0,0,1,1.43.35L11,12.45H4.13A.44.44,0,0,1,3.7,12a.47.47,0,0,1,0-.17.38.38,0,0,1,.09-.15L4,11.61a.47.47,0,0,1,.17,0H11L8,8.67A2.23,2.23,0,0,1,6.6,9a2.17,2.17,0,0,1-1.33-.64l.62-.62a1.36,1.36,0,0,0,.7.37A1.34,1.34,0,0,0,7.38,8a1.11,1.11,0,0,0,.36-.25A1.08,1.08,0,0,0,8,7.4a1.3,1.3,0,0,0,.11-.78,1.33,1.33,0,0,0-.37-.7l.62-.62a2.21,2.21,0,0,1,.28,2.77L11.55,11V4.13a.47.47,0,0,1,0-.17.52.52,0,0,1,.24-.24.47.47,0,0,1,.17,0,.43.43,0,0,1,.3.13.4.4,0,0,1,.13.31v6.81L15.33,8a2.18,2.18,0,0,1,.28-2.77l.61.62a1.32,1.32,0,0,0-.35.72A1.36,1.36,0,0,0,16,7.39Z"/></g></g></g></svg>