<svg xmlns="http://www.w3.org/2000/svg" viewBox="0 0 24 24"><defs><style>.cls-1{fill:none;}.cls-2,.cls-3{fill:#744cc6;}.cls-2{fill-opacity:0.5;}</style></defs><g id="Слой_2" data-name="Слой 2"><g id="Duotone"><g id="Sound_Off_Duotone" data-name="Sound/Off/Duotone"><rect class="cls-1" width="24" height="24"/><path class="cls-2" d="M14.83,12a1.84,1.84,0,0,1-.41,1.15,1.81,1.81,0,0,1-1.05.64V10.22a1.85,1.85,0,0,1,1.05.64A1.83,1.83,0,0,1,14.83,12Z"/><path class="cls-3" d="M12.45,6.47V17.54a.86.86,0,0,1-.14.47,1,1,0,0,1-.36.33,1.05,1.05,0,0,1-.53.11,1,1,0,0,1-.51-.18L9.6,17.4a1.88,1.88,0,0,0-1.1-.34H3.24a.85.85,0,0,1-.68-.25,1,1,0,0,1-.22-.31.86.86,0,0,1-.07-.36V7.91a.92.92,0,0,1,.07-.36,1.1,1.1,0,0,1,.22-.31.89.89,0,0,1,.31-.19A1.15,1.15,0,0,1,3.24,7H8.5a2,2,0,0,0,1.1-.34l1.34-.92a1,1,0,0,1,.51-.18,1.08,1.08,0,0,1,.53.11.92.92,0,0,1,.34.34A.85.85,0,0,1,12.45,6.47Z"/><path class="cls-2" d="M21.6,12.9a.48.48,0,0,1,.13.32.44.44,0,0,1-.46.46.49.49,0,0,1-.33-.13l-1-1-1,1a.51.51,0,0,1-.34.13.39.39,0,0,1-.25-.08.55.55,0,0,1-.17-.2.49.49,0,0,1,0-.27.43.43,0,0,1,.12-.23l1-1-1-1a.46.46,0,0,1,0-.64.36.36,0,0,1,.15-.1.43.43,0,0,1,.36,0,.44.44,0,0,1,.15.1l1,1,1-1a.44.44,0,0,1,.15-.1.43.43,0,0,1,.36,0,.44.44,0,0,1,.15.1.46.46,0,0,1,0,.64l-1,1Z"/></g></g></g></svg>