<svg xmlns="http://www.w3.org/2000/svg" viewBox="0 0 24 24"><defs><style>.cls-1{fill:none;}.cls-2,.cls-3{fill:#744cc6;}.cls-2{fill-opacity:0.5;}</style></defs><g id="Слой_2" data-name="Слой 2"><g id="Duotone"><g id="Sound_On_Duotone" data-name="Sound/On/Duotone"><rect class="cls-1" width="24" height="24"/><path class="cls-2" d="M14.45,12A1.85,1.85,0,0,1,13,13.84V10.25a1.87,1.87,0,0,1,1,.62A1.92,1.92,0,0,1,14.45,12Z"/><path class="cls-3" d="M12.07,6.45V17.52a1,1,0,0,1-.15.47.93.93,0,0,1-.35.33.91.91,0,0,1-.53.11,1,1,0,0,1-.52-.18l-1.34-.92A1.84,1.84,0,0,0,8.09,17H2.83a1.15,1.15,0,0,1-.37-.06.83.83,0,0,1-.32-.2.9.9,0,0,1-.21-.3.92.92,0,0,1-.07-.36V7.93a.89.89,0,0,1,.07-.36,1,1,0,0,1,.21-.31.94.94,0,0,1,.32-.19A.78.78,0,0,1,2.83,7H8.09a1.93,1.93,0,0,0,1.09-.34l1.34-.92A1,1,0,0,1,11,5.57a.91.91,0,0,1,.53.11.89.89,0,0,1,.35.32A1.14,1.14,0,0,1,12.07,6.45Z"/><path class="cls-2" d="M21.68,12.46H17.14a.43.43,0,0,1-.32-.14.45.45,0,0,1-.14-.33.45.45,0,0,1,.14-.32.43.43,0,0,1,.32-.14h4.54a.45.45,0,0,1,.33.14.45.45,0,0,1,.14.32.48.48,0,0,1-.47.47Z"/><path class="cls-2" d="M19.39,16.73a.56.56,0,0,1-.26-.07l-2.26-1.49a.47.47,0,0,1-.21-.29.5.5,0,0,1,.19-.48.51.51,0,0,1,.17-.07h.18a.33.33,0,0,1,.16.07l2.27,1.48a.47.47,0,0,1,.21.3.49.49,0,0,1-.07.35.54.54,0,0,1-.38.2Z"/><path class="cls-2" d="M17.11,9.67a.46.46,0,0,1-.22-.06.57.57,0,0,1-.16-.15.49.49,0,0,1-.07-.35.47.47,0,0,1,.21-.29l2.26-1.49a.47.47,0,0,1,.35-.06.42.42,0,0,1,.29.2.43.43,0,0,1,.06.35.42.42,0,0,1-.2.29L17.36,9.6A.52.52,0,0,1,17.11,9.67Z"/></g></g></g></svg>