<svg xmlns="http://www.w3.org/2000/svg" viewBox="0 0 24 24"><defs><style>.cls-1{fill:none;}.cls-2,.cls-3{fill:#744cc6;}.cls-3{fill-opacity:0.5;}</style></defs><g id="Слой_2" data-name="Слой 2"><g id="Duotone"><g id="Star_Duotone" data-name="Star/Duotone"><rect class="cls-1" width="24" height="24"/><path class="cls-2" d="M20.29,11.43a1.75,1.75,0,0,0,.43-.79,1.62,1.62,0,0,0,0-.9,1.67,1.67,0,0,0-1.31-1.13l-3.7-.56a.81.81,0,0,1-.33-.14.7.7,0,0,1-.23-.28L13.5,4.19a1.68,1.68,0,0,0-.62-.7A1.63,1.63,0,0,0,12,3.23a1.68,1.68,0,0,0-.89.26,1.59,1.59,0,0,0-.61.7L8.88,7.63a.7.7,0,0,1-.23.28.71.71,0,0,1-.32.14l-3.7.56A1.67,1.67,0,0,0,3.32,9.74a1.62,1.62,0,0,0,0,.9,1.75,1.75,0,0,0,.43.79l2.77,2.83a.79.79,0,0,1,.18.29.82.82,0,0,1,0,.35l-.63,3.93a1.66,1.66,0,0,0,.1.91,1.61,1.61,0,0,0,.58.71,1.66,1.66,0,0,0,.86.31,1.72,1.72,0,0,0,.89-.21l3.2-1.77a.73.73,0,0,1,.35-.09.74.74,0,0,1,.36.09l3.12,1.77a1.64,1.64,0,0,0,.89.22,1.66,1.66,0,0,0,.87-.31,1.63,1.63,0,0,0,.58-.72,1.57,1.57,0,0,0,.1-.91l-.6-3.93a.69.69,0,0,1,0-.35.79.79,0,0,1,.18-.29Zm-3.55,7.91a.54.54,0,0,1-.18,0,.36.36,0,0,1-.17-.07.33.33,0,0,1-.13-.13.33.33,0,0,1-.07-.16l-.85-4.09a.54.54,0,0,1,0-.18.36.36,0,0,1,.07-.17.37.37,0,0,1,.12-.13.51.51,0,0,1,.17-.07h.18a.51.51,0,0,1,.17.07.53.53,0,0,1,.13.13.77.77,0,0,1,.07.16l.85,4.09a.47.47,0,0,1-.36.55Z"/><path class="cls-3" d="M17.1,18.79a.47.47,0,0,1-.36.55.61.61,0,0,1-.19,0,.33.33,0,0,1-.16-.07.33.33,0,0,1-.13-.13.33.33,0,0,1-.07-.16l-.85-4.09a.54.54,0,0,1,0-.18.36.36,0,0,1,.07-.17.37.37,0,0,1,.12-.13.51.51,0,0,1,.17-.07h.18a.51.51,0,0,1,.17.07.53.53,0,0,1,.13.13.77.77,0,0,1,.07.16Z"/></g></g></g></svg>