<svg xmlns="http://www.w3.org/2000/svg" viewBox="0 0 24 24"><defs><style>.cls-1{fill:none;}.cls-2,.cls-3{fill:#744cc6;}.cls-2{fill-opacity:0.5;}</style></defs><g id="Слой_2" data-name="Слой 2"><g id="Duotone"><g id="Stethoscope_Duotone" data-name="Stethoscope/Duotone"><rect class="cls-1" width="24" height="24"/><path class="cls-2" d="M18,15.21a1.39,1.39,0,1,0-1.38-1.39A1.39,1.39,0,0,0,18,15.21Z"/><path class="cls-3" d="M18.46,11.68a2.38,2.38,0,0,0-.46,0,2.28,2.28,0,0,0-.45,0,2.24,2.24,0,0,0-1.86,2.2,2.26,2.26,0,0,0,1.86,2.21v.62a4.16,4.16,0,0,1-8.31,0V14.26a5,5,0,0,0,4.54-4.93V4a1.4,1.4,0,0,0-.11-.53,1.28,1.28,0,0,0-.3-.43,1.09,1.09,0,0,0-.44-.29,1.2,1.2,0,0,0-.52-.1h-.36a.47.47,0,0,0-.16-.27.48.48,0,0,0-.3-.11h-.75a.46.46,0,0,0-.3.11.47.47,0,0,0-.16.27v.89a.45.45,0,0,0,.46.37h.75a.45.45,0,0,0,.46-.37h.36a.45.45,0,0,1,.32.14.46.46,0,0,1,.13.32V9.33a4.09,4.09,0,0,1-3.57,4,2.62,2.62,0,0,1-.56,0H8.36a4.08,4.08,0,0,1-3.76-4V4a.42.42,0,0,1,.14-.32.43.43,0,0,1,.32-.14h.37a.43.43,0,0,0,.47.37h.75a.45.45,0,0,0,.29-.1.47.47,0,0,0,.16-.27V2.62a.5.5,0,0,0-.16-.28.51.51,0,0,0-.29-.1H5.9a.51.51,0,0,0-.3.1.43.43,0,0,0-.15.28H5.08a1.21,1.21,0,0,0-.53.09A1.2,1.2,0,0,0,4.1,3a1.25,1.25,0,0,0-.31.44A1.4,1.4,0,0,0,3.68,4V9.33a5,5,0,0,0,4.68,4.92v2.46a5.05,5.05,0,0,0,10.1,0v-.6a2.25,2.25,0,0,0,1.33-.76,2.22,2.22,0,0,0,0-2.88A2.29,2.29,0,0,0,18.46,11.68ZM18,15.21a1.42,1.42,0,0,1-.77-.23,1.43,1.43,0,0,1-.51-.63,1.36,1.36,0,0,1,.3-1.5,1.34,1.34,0,0,1,.71-.38,1.36,1.36,0,0,1,.8.07,1.47,1.47,0,0,1,.62.51,1.43,1.43,0,0,1,.24.77A1.4,1.4,0,0,1,18,15.21Z"/></g></g></g></svg>