<svg xmlns="http://www.w3.org/2000/svg" viewBox="0 0 24 24"><defs><style>.cls-1{fill:none;}.cls-2,.cls-3{fill:#744cc6;}.cls-3{fill-opacity:0.5;}</style></defs><g id="Слой_2" data-name="Слой 2"><g id="Duotone"><g id="Stop_Duotone" data-name="Stop/Duotone"><rect class="cls-1" width="24" height="24"/><path class="cls-2" d="M18.46,3.23H5.54A2.32,2.32,0,0,0,3.23,5.54V18.46a2.32,2.32,0,0,0,2.31,2.31H18.46a2.32,2.32,0,0,0,2.31-2.31V5.54a2.32,2.32,0,0,0-2.31-2.31ZM15.69,14.31a1.4,1.4,0,0,1-1.38,1.38H9.69a1.37,1.37,0,0,1-1.38-1.38V9.69A1.37,1.37,0,0,1,9.69,8.31h4.62a1.38,1.38,0,0,1,1,.4,1.39,1.39,0,0,1,.4,1Z"/><path class="cls-3" d="M14.77,9.69v4.62a.45.45,0,0,1-.14.32.43.43,0,0,1-.32.14H9.69a.48.48,0,0,1-.46-.46V9.69a.48.48,0,0,1,.46-.46h4.62a.48.48,0,0,1,.46.46Z"/></g></g></g></svg>