<svg xmlns="http://www.w3.org/2000/svg" viewBox="0 0 24 24"><defs><style>.cls-1{fill:none;}.cls-2,.cls-3{fill:#744cc6;}.cls-2{fill-opacity:0.5;}</style></defs><g id="Слой_2" data-name="Слой 2"><g id="Duotone"><g id="Sunny_Duotone" data-name="Sunny/Duotone"><rect class="cls-1" width="24" height="24"/><path class="cls-2" d="M12,20.77a.44.44,0,0,1-.46-.46V18.23a.46.46,0,0,1,.13-.32.46.46,0,0,1,.66,0,.46.46,0,0,1,.13.32v2.08a.44.44,0,0,1-.46.46Z"/><path class="cls-2" d="M12,6.22a.44.44,0,0,1-.46-.46V3.69a.46.46,0,0,1,.13-.32.46.46,0,0,1,.66,0,.46.46,0,0,1,.13.32V5.76a.44.44,0,0,1-.46.46Z"/><path class="cls-2" d="M5.77,12.46H3.69a.46.46,0,0,1-.32-.13.46.46,0,0,1,0-.66.46.46,0,0,1,.32-.13H5.77a.44.44,0,0,1,.46.46.48.48,0,0,1-.46.46Z"/><path class="cls-2" d="M20.31,12.46H18.23a.48.48,0,0,1-.46-.46.44.44,0,0,1,.46-.46h2.08a.46.46,0,0,1,.32.13.46.46,0,0,1,0,.66A.46.46,0,0,1,20.31,12.46Z"/><path class="cls-2" d="M7.59,8.05a.51.51,0,0,1-.33-.13L5.8,6.45a.31.31,0,0,1-.1-.15.34.34,0,0,1,0-.18A.33.33,0,0,1,5.7,6,.46.46,0,0,1,6,5.7a.33.33,0,0,1,.17,0,.34.34,0,0,1,.18,0,.31.31,0,0,1,.15.1L7.9,7.27A.42.42,0,0,1,8,7.59a.44.44,0,0,1-.13.33A.51.51,0,0,1,7.59,8.05Z"/><path class="cls-2" d="M17.87,18.33a.48.48,0,0,1-.32-.13l-1.47-1.44a.43.43,0,0,1-.14-.32.48.48,0,0,1,.47-.47.47.47,0,0,1,.33.14l1.46,1.47a.43.43,0,0,1,.14.32.45.45,0,0,1-.14.33A.48.48,0,0,1,17.87,18.33Z"/><path class="cls-2" d="M6.13,18.33a.46.46,0,0,1-.33-.13.43.43,0,0,1-.14-.32.45.45,0,0,1,.14-.33l1.46-1.47A.49.49,0,0,1,7.6,16a.43.43,0,0,1,.32.14.48.48,0,0,1,.13.34.44.44,0,0,1-.15.32L6.45,18.2A.48.48,0,0,1,6.13,18.33Z"/><path class="cls-2" d="M16.41,8.05a.51.51,0,0,1-.33-.13A.44.44,0,0,1,16,7.59a.42.42,0,0,1,.13-.32L17.55,5.8a.31.31,0,0,1,.15-.1.34.34,0,0,1,.18,0,.33.33,0,0,1,.17,0A.46.46,0,0,1,18.3,6a.33.33,0,0,1,0,.17.34.34,0,0,1,0,.18.31.31,0,0,1-.1.15L16.74,7.92A.51.51,0,0,1,16.41,8.05Z"/><path class="cls-3" d="M12,16.62A4.62,4.62,0,1,0,7.38,12,4.62,4.62,0,0,0,12,16.62Z"/></g></g></g></svg>