<svg xmlns="http://www.w3.org/2000/svg" viewBox="0 0 24 24"><defs><style>.cls-1{fill:none;}.cls-2,.cls-3{fill:#744cc6;}.cls-3{fill-opacity:0.5;}</style></defs><g id="Слой_2" data-name="Слой 2"><g id="Duotone"><g id="Target_Duotone" data-name="Target/Duotone"><rect class="cls-1" width="24" height="24"/><path class="cls-2" d="M21.35,2.7a.57.57,0,0,0-.16-.11.45.45,0,0,0-.37,0,.42.42,0,0,0-.15.11L18.73,4.64V3.22a.52.52,0,0,0,0-.18.54.54,0,0,0-.1-.16.4.4,0,0,0-.15-.1.48.48,0,0,0-.18,0,.45.45,0,0,0-.32.14.48.48,0,0,0-.15.32l0,2.38-.67.67a8.7,8.7,0,1,0,.66.66l.72-.72h2.36a.46.46,0,0,0,.32-.13.45.45,0,0,0,.14-.32.27.27,0,0,0,0-.18.51.51,0,0,0-.09-.16L21,5.3l-.18,0H19.36l2-2a.48.48,0,0,0,.13-.3A.5.5,0,0,0,21.35,2.7ZM19.08,12.76a7.85,7.85,0,1,1-7.85-7.84,7.75,7.75,0,0,1,5.24,2l-1,1A6.46,6.46,0,1,0,8.33,18.52a6.47,6.47,0,0,0,9.36-5.79,6.34,6.34,0,0,0-1.56-4.19l1-1a7.79,7.79,0,0,1,2,5.17Zm-7.85-1.87a1.86,1.86,0,0,0-1.68,2.59,1.85,1.85,0,0,0,3,.58A1.84,1.84,0,0,0,13.08,13a1.88,1.88,0,0,0-.23-1.16l1-1a3.15,3.15,0,0,1,.63,1.85,3.22,3.22,0,0,1-3.86,3.16A3.17,3.17,0,0,1,9,15a3.2,3.2,0,0,1-.7-3.52A3.19,3.19,0,0,1,9.44,10a3.25,3.25,0,0,1,1.79-.54,3.16,3.16,0,0,1,2,.67l-1,1A1.63,1.63,0,0,0,11.23,10.89Zm2.62-1.35a4.15,4.15,0,1,0,.63,5.81,4.19,4.19,0,0,0,.91-2.59,4.12,4.12,0,0,0-.93-2.56l1-1a5.54,5.54,0,0,1-3,8.93A5.55,5.55,0,0,1,5.82,11.5a5.54,5.54,0,0,1,5.41-4.33,5.43,5.43,0,0,1,3.6,1.34Z"/><path class="cls-3" d="M19.08,12.73a7.81,7.81,0,0,1-1.27,4.39A7.93,7.93,0,0,1,5.63,18.31a7.88,7.88,0,0,1,5.6-13.42,7.81,7.81,0,0,1,5.26,2l-1,1A6.46,6.46,0,1,0,8.33,18.52a6.47,6.47,0,0,0,9.36-5.79,6.34,6.34,0,0,0-1.56-4.19l1-1A7.79,7.79,0,0,1,19.08,12.73Z"/><path class="cls-3" d="M16.77,12.73a5.55,5.55,0,0,1-6.62,5.44,5.68,5.68,0,0,1-2.84-1.52,5.71,5.71,0,0,1-1.25-6A5.74,5.74,0,0,1,8.14,8.08a5.66,5.66,0,0,1,3.09-.93,5.51,5.51,0,0,1,3.63,1.34l-1,1.07a4.23,4.23,0,0,0-2.62-.93,4,4,0,0,0-2.55.85,4.13,4.13,0,0,0,.74,7,4.15,4.15,0,0,0,6-3.74,4.16,4.16,0,0,0-1-2.55l1.09-1A5.54,5.54,0,0,1,16.77,12.73Z"/><path class="cls-3" d="M14.46,12.73a3.22,3.22,0,0,1-2,3,3.23,3.23,0,0,1-1.87.18A3.17,3.17,0,0,1,9,15a3.22,3.22,0,0,1-.89-1.66,3.27,3.27,0,0,1,.16-1.88A3.17,3.17,0,0,1,9.36,10a3.49,3.49,0,0,1,1.86-.55,3.26,3.26,0,0,1,2,.68l-1,1.05a1.66,1.66,0,0,0-.92-.28,1.81,1.81,0,0,0-1.12.39,1.84,1.84,0,0,0-.65,1,1.84,1.84,0,0,0,.87,2.07,1.8,1.8,0,0,0,1.16.22A1.84,1.84,0,0,0,12.59,14,1.79,1.79,0,0,0,13,13a1.83,1.83,0,0,0-.2-1.15l1-1A3.13,3.13,0,0,1,14.46,12.73Z"/></g></g></g></svg>