<svg xmlns="http://www.w3.org/2000/svg" viewBox="0 0 24 24"><defs><style>.cls-1{fill:none;}.cls-2,.cls-3{fill:#744cc6;}.cls-3{fill-opacity:0.5;}</style></defs><g id="Слой_2" data-name="Слой 2"><g id="Duotone"><g id="Toggle_On_Duotone" data-name="Toggle/On/Duotone"><rect class="cls-1" width="24" height="24"/><path class="cls-2" d="M14.77,6H9.23a6,6,0,0,0,0,12h5.54a6,6,0,0,0,0-12Zm-4.44,9.49a3.6,3.6,0,0,1-1.17.2A3.7,3.7,0,0,1,5.46,12a3.85,3.85,0,0,1,.47-1.85,3.7,3.7,0,1,1,6.22,4A3.76,3.76,0,0,1,10.33,15.49Z"/><path class="cls-3" d="M11.9,12a2.78,2.78,0,0,1-.53,1.62,2.75,2.75,0,0,1-1.37,1,2.57,2.57,0,0,1-.87.15,2.77,2.77,0,0,1-2.42-4.12A2.87,2.87,0,0,1,8,9.45,2.78,2.78,0,0,1,11.9,12Z"/></g></g></g></svg>