<svg xmlns="http://www.w3.org/2000/svg" viewBox="0 0 24 24"><defs><style>.cls-1{fill:none;}.cls-2,.cls-3{fill:#744cc6;}.cls-3{fill-opacity:0.5;}</style></defs><g id="Слой_2" data-name="Слой 2"><g id="Duotone"><g id="Toggle_Off_Duotone" data-name="Toggle/Off/Duotone"><rect class="cls-1" width="24" height="24"/><path class="cls-2" d="M9.23,18h5.54a6,6,0,0,0,0-12H9.23a6,6,0,0,0,0,12Zm4.44-9.49a3.35,3.35,0,0,1,1.17-.2A3.7,3.7,0,0,1,18.54,12a3.88,3.88,0,0,1-.47,1.85,3.67,3.67,0,0,1-1.78,1.61,3.72,3.72,0,1,1-2.62-7Z"/><path class="cls-3" d="M12.1,12a2.78,2.78,0,0,1,.53-1.62,2.75,2.75,0,0,1,1.37-1,2.61,2.61,0,0,1,.87-.15,2.77,2.77,0,0,1,2.42,4.12A2.8,2.8,0,0,1,16,14.54a2.75,2.75,0,0,1-1.79.14,2.8,2.8,0,0,1-1.49-1A2.72,2.72,0,0,1,12.1,12Z"/></g></g></g></svg>