<svg xmlns="http://www.w3.org/2000/svg" viewBox="0 0 24 24"><defs><style>.cls-1{fill:none;}.cls-2,.cls-3{fill:#744cc6;}.cls-2{fill-opacity:0.5;}</style></defs><g id="Слой_2" data-name="Слой 2"><g id="Duotone"><g id="Users_Duotone" data-name="Users/Duotone"><rect class="cls-1" width="24" height="24"/><path class="cls-2" d="M8.09,9.75A1.74,1.74,0,1,0,6.33,8,1.75,1.75,0,0,0,8.09,9.75Z"/><path class="cls-3" d="M18.59,8a2.63,2.63,0,0,1-.44,1.49,2.66,2.66,0,0,1-1.2,1,2.74,2.74,0,0,1-1.55.16A2.66,2.66,0,0,1,14,9.93a2.6,2.6,0,0,1-.74-1.37A2.74,2.74,0,0,1,13.44,7a2.7,2.7,0,0,1,1-1.21,2.74,2.74,0,0,1,1.49-.45,2.82,2.82,0,0,1,1,.2,2.78,2.78,0,0,1,.86.58A2.68,2.68,0,0,1,18.59,8Z"/><path class="cls-3" d="M21.68,18a.41.41,0,0,1,0,.22.42.42,0,0,1-.1.2.56.56,0,0,1-.21.17.63.63,0,0,1-.27.06H10.74a.6.6,0,0,1-.27-.06.5.5,0,0,1-.21-.17.43.43,0,0,1-.11-.2.55.55,0,0,1,0-.22A5.78,5.78,0,0,1,12,14.77a4.66,4.66,0,0,1,.76-.56,5.77,5.77,0,0,1,3.15-.93A5.88,5.88,0,0,1,21.68,18Z"/><path class="cls-2" d="M9.33,18.64H2.92a.57.57,0,0,1-.26,0,.71.71,0,0,1-.22-.15.49.49,0,0,1-.11-.2.41.41,0,0,1,0-.22,5.88,5.88,0,0,1,8.92-3.8,6.81,6.81,0,0,0-2,3.56A1.42,1.42,0,0,0,9.33,18.64Z"/></g></g></g></svg>