<svg xmlns="http://www.w3.org/2000/svg" viewBox="0 0 24 24"><defs><style>.cls-1{fill:none;}.cls-2,.cls-3{fill:#744cc6;}.cls-3{fill-opacity:0.5;}</style></defs><g id="Слой_2" data-name="Слой 2"><g id="Duotone"><g id="Video_Duotone" data-name="Video/Duotone"><rect class="cls-1" width="24" height="24"/><path class="cls-2" d="M18.46,4.61H5.54a2.32,2.32,0,0,0-1.63.68,2.28,2.28,0,0,0-.68,1.63V17.08a2.28,2.28,0,0,0,.68,1.63,2.31,2.31,0,0,0,1.63.67H18.46a2.31,2.31,0,0,0,1.63-.67,2.28,2.28,0,0,0,.68-1.63V6.92a2.28,2.28,0,0,0-.68-1.63A2.32,2.32,0,0,0,18.46,4.61Zm-2.61,8.62L10.38,16a1.44,1.44,0,0,1-.68.15A1.32,1.32,0,0,1,9,15.94a1.39,1.39,0,0,1-.66-1.18V9.22A1.39,1.39,0,0,1,9,8a1.22,1.22,0,0,1,.67-.2,1.43,1.43,0,0,1,.68.14l5.47,2.77a1.39,1.39,0,0,1,0,2.48Z"/><path class="cls-3" d="M15.68,12a.5.5,0,0,1-.06.24.42.42,0,0,1-.19.16L10,15.18a.46.46,0,0,1-.23.06.43.43,0,0,1-.22-.06A.44.44,0,0,1,9.35,15a.46.46,0,0,1-.06-.23V9.25A.62.62,0,0,1,9.36,9a.44.44,0,0,1,.16-.17.48.48,0,0,1,.24-.06.52.52,0,0,1,.21,0l5.46,2.77a.52.52,0,0,1,.19.17A.48.48,0,0,1,15.68,12Z"/></g></g></g></svg>