<svg xmlns="http://www.w3.org/2000/svg" viewBox="0 0 24 24"><defs><style>.cls-1{fill:none;}.cls-2,.cls-3{fill:#744cc6;}.cls-3{fill-opacity:0.5;}</style></defs><g id="Слой_2" data-name="Слой 2"><g id="Duotone"><g id="VideoCamera_Duotone" data-name="VideoCamera/Duotone"><rect class="cls-1" width="24" height="24"/><path class="cls-2" d="M13.73,6.46h-11A1.38,1.38,0,0,0,1.39,7.85v8.3a1.38,1.38,0,0,0,1.38,1.39h11a1.4,1.4,0,0,0,1-.41,1.42,1.42,0,0,0,.4-1V7.85a1.42,1.42,0,0,0-.4-1A1.4,1.4,0,0,0,13.73,6.46ZM3.23,9.72V8.8a.45.45,0,0,1,.14-.33.42.42,0,0,1,.32-.13h.93a.48.48,0,0,1,.32.13.5.5,0,0,1,.14.33v.92a.47.47,0,0,1-.14.33.46.46,0,0,1-.32.13H3.69a.46.46,0,0,1-.32-.13A.47.47,0,0,1,3.23,9.72Zm5.54,0a.47.47,0,0,1-.14.33.46.46,0,0,1-.32.13H7.39a.46.46,0,0,1-.47-.46V8.8a.45.45,0,0,1,.14-.33.43.43,0,0,1,.33-.13h.92a.46.46,0,0,1,.32.13.45.45,0,0,1,.14.33Z"/><path class="cls-3" d="M22.62,8V16a1.35,1.35,0,0,1-.5,1.06,1.37,1.37,0,0,1-.93.32H21l-3.56-.66a1.39,1.39,0,0,1-.81-.48,1.43,1.43,0,0,1-.32-.89V8.73a1.42,1.42,0,0,1,.32-.88,1.32,1.32,0,0,1,.81-.47L21,6.7a1.36,1.36,0,0,1,.6,0,1.24,1.24,0,0,1,.53.28,1.27,1.27,0,0,1,.38.45A1.33,1.33,0,0,1,22.62,8Z"/></g></g></g></svg>