<svg xmlns="http://www.w3.org/2000/svg" viewBox="0 0 24 24"><defs><style>.cls-1{fill:none;}.cls-2,.cls-3{fill:#744cc6;}.cls-2{fill-opacity:0.5;}</style></defs><g id="Слой_2" data-name="Слой 2"><g id="Duotone"><g id="View_Duotone" data-name="View/Duotone"><rect class="cls-1" width="24" height="24"/><path class="cls-2" d="M22.14,12a1.51,1.51,0,0,1-.59,1.22l-2,1.61A8.4,8.4,0,0,0,20.12,12a7.68,7.68,0,0,0-.51-2.77l2,1.6a1.62,1.62,0,0,1,.42.55A1.48,1.48,0,0,1,22.14,12Z"/><path class="cls-2" d="M4.43,14.82l-2-1.67A1.52,1.52,0,0,1,2,12.6a1.57,1.57,0,0,1,0-1.34,1.62,1.62,0,0,1,.42-.55l2-1.63a8,8,0,0,0-.53,2.85A8.37,8.37,0,0,0,4.43,14.82Z"/><path class="cls-3" d="M17.17,7.23a7.41,7.41,0,0,0-1.43-1.15l-.44-.27a3.88,3.88,0,0,0-.46-.22,2.68,2.68,0,0,0-.47-.18A6.8,6.8,0,0,0,12,5a5.61,5.61,0,0,0-.58,0,6.18,6.18,0,0,0-.62.07q-.37.08-.75.18a3.17,3.17,0,0,0-.41.12A6.65,6.65,0,0,0,7.54,6.57,6.85,6.85,0,0,0,5.65,9a7,7,0,0,0,0,6,7.14,7.14,0,0,0,1.87,2.42,6.41,6.41,0,0,0,.52.39,6.89,6.89,0,0,0,1.66.86,8.11,8.11,0,0,0,1.07.3h.2A6.59,6.59,0,0,0,12,19a4.51,4.51,0,0,0,.52,0A6.22,6.22,0,0,0,14,18.76a6,6,0,0,0,.93-.33,9,9,0,0,0,.92-.48,4.42,4.42,0,0,0,.67-.46l.61-.56a7,7,0,0,0,.1-9.65ZM12,14.62a2.64,2.64,0,0,1-2.63-3.13,2.65,2.65,0,0,1,2.06-2.1,2.76,2.76,0,0,1,1.53.14,2.69,2.69,0,0,1,1.19,1A2.65,2.65,0,0,1,12,14.62Z"/><path class="cls-2" d="M13.58,12a1.59,1.59,0,0,1-2.71,1.14,1.7,1.7,0,0,1-.44-.81,1.61,1.61,0,0,1,.09-.92,1.57,1.57,0,0,1,1.46-1,1.62,1.62,0,0,1,1.12.46A1.64,1.64,0,0,1,13.58,12Z"/></g></g></g></svg>