<svg xmlns="http://www.w3.org/2000/svg" viewBox="0 0 24 24"><defs><style>.cls-1{fill:none;}.cls-2,.cls-3{fill:#744cc6;}.cls-2{fill-opacity:0.5;}</style></defs><g id="Слой_2" data-name="Слой 2"><g id="Duotone"><g id="Wallet_Duotone" data-name="Wallet/Duotone"><rect class="cls-1" width="24" height="24"/><path class="cls-2" d="M14.79,10.18a.45.45,0,0,0-.33.14.42.42,0,0,0-.13.32v2.77a.46.46,0,0,0,.13.33.49.49,0,0,0,.33.13h5.06V10.18Zm2.29,2.28a.52.52,0,0,1-.14.32.45.45,0,0,1-.32.14h-.93a.42.42,0,0,1-.32-.13.47.47,0,0,1-.14-.33v-.92a.47.47,0,0,1,.14-.33.46.46,0,0,1,.32-.13h.93a.48.48,0,0,1,.32.13.47.47,0,0,1,.14.33Z"/><path class="cls-3" d="M13.38,10.62v2.76a1.4,1.4,0,0,0,1.39,1.39h5.08v2.31a1.4,1.4,0,0,1-.41,1,1.38,1.38,0,0,1-1,.4H5.54a1.38,1.38,0,0,1-1-.4,1.4,1.4,0,0,1-.41-1V6.92a1.4,1.4,0,0,1,.41-1,1.38,1.38,0,0,1,1-.4H18.46a1.38,1.38,0,0,1,1,.4,1.4,1.4,0,0,1,.41,1V9.23H14.77a1.4,1.4,0,0,0-1.39,1.39Z"/></g></g></g></svg>