<svg xmlns="http://www.w3.org/2000/svg" viewBox="0 0 24 24"><defs><style>.cls-1{fill:none;}.cls-2,.cls-3{fill:#744cc6;}.cls-3{fill-opacity:0.5;}</style></defs><g id="Слой_2" data-name="Слой 2"><g id="Duotone"><g id="Watch_Duotone" data-name="Watch/Duotone"><rect class="cls-1" width="24" height="24"/><path class="cls-2" d="M14.77,7.38H9.23A1.86,1.86,0,0,0,7.38,9.22v5.54a1.86,1.86,0,0,0,1.85,1.85h5.54a1.86,1.86,0,0,0,1.85-1.85V9.22a1.86,1.86,0,0,0-1.85-1.84Zm0,6.46a.48.48,0,0,1-.46.46.47.47,0,0,1-.33-.14.42.42,0,0,1-.13-.32v-3.7A.42.42,0,0,1,14,9.82a.47.47,0,0,1,.33-.14.48.48,0,0,1,.46.46Z"/><path class="cls-3" d="M14.2,17.55,14,19.62a1.34,1.34,0,0,1-1.38,1.15H11.5a1.33,1.33,0,0,1-.9-.31,1.28,1.28,0,0,1-.47-.84L9.9,17.55Z"/><path class="cls-3" d="M14.2,6.45H9.89l.23-2.07a1.28,1.28,0,0,1,.47-.84,1.33,1.33,0,0,1,.91-.31h1.1A1.34,1.34,0,0,1,14,4.38Z"/></g></g></g></svg>