<svg xmlns="http://www.w3.org/2000/svg" viewBox="0 0 24 24"><defs><style>.cls-1{fill:none;}.cls-2,.cls-3{fill:#744cc6;}.cls-3{fill-opacity:0.5;}</style></defs><g id="Слой_2" data-name="Слой 2"><g id="Duotone"><g id="Wi-Fi_Off_Duotone" data-name="Wi-Fi/Off/Duotone"><rect class="cls-1" width="24" height="24"/><path class="cls-2" d="M20.31,9.37l-.57.59A10.75,10.75,0,0,0,12,6.68a10.68,10.68,0,0,0-4.21.86A10.8,10.8,0,0,0,4.26,10l-.57-.59A11.66,11.66,0,0,1,7.48,6.77a11.56,11.56,0,0,1,9,0,11.66,11.66,0,0,1,3.79,2.62Z"/><path class="cls-2" d="M18.06,11.66l-.59.59A7.63,7.63,0,0,0,9,10.52a7.62,7.62,0,0,0-2.51,1.73l-.58-.59a8.43,8.43,0,0,1,12.17,0Z"/><path class="cls-2" d="M15.85,14l-.57.59a4.67,4.67,0,0,0-1.5-1,4.58,4.58,0,0,0-3.56,0,4.67,4.67,0,0,0-1.5,1L8.15,14a5.51,5.51,0,0,1,1.76-1.22,5.41,5.41,0,0,1,4.18,0A5.4,5.4,0,0,1,15.85,14Z"/><path class="cls-3" d="M13.63,17.37a.44.44,0,0,1,0,.64.44.44,0,0,1-.33.14.33.33,0,0,1-.17,0A.31.31,0,0,1,13,18l-1-1-1,1a.47.47,0,0,1-.33.14.43.43,0,0,1-.32-.14.49.49,0,0,1-.11-.14.56.56,0,0,1,0-.36.49.49,0,0,1,.11-.14l1-1-1-1a.42.42,0,0,1-.11-.15.47.47,0,0,1,0-.17.57.57,0,0,1,0-.18.49.49,0,0,1,.11-.14.42.42,0,0,1,.15-.11.47.47,0,0,1,.17,0,.48.48,0,0,1,.18,0,.42.42,0,0,1,.15.11l1,1,1-1a.42.42,0,0,1,.15-.11.52.52,0,0,1,.18,0,.47.47,0,0,1,.17,0,.42.42,0,0,1,.15.11.44.44,0,0,1,0,.64l-1,1Z"/></g></g></g></svg>