<svg xmlns="http://www.w3.org/2000/svg" viewBox="0 0 24 24"><defs><style>.cls-1{fill:none;}.cls-2,.cls-3{fill:#744cc6;}.cls-3{fill-opacity:0.5;}</style></defs><g id="Слой_2" data-name="Слой 2"><g id="Duotone"><g id="Wi-Fi_On_Duotone" data-name="Wi-Fi/On/Duotone"><rect class="cls-1" width="24" height="24"/><path class="cls-2" d="M20.31,9.45l-.57.6a10.72,10.72,0,0,0-15.47,0l-.58-.6A11.66,11.66,0,0,1,7.48,6.83a11.56,11.56,0,0,1,9,0A11.66,11.66,0,0,1,20.31,9.45Z"/><path class="cls-2" d="M18.08,11.71l-.58.59A7.52,7.52,0,0,0,15,10.57a7.63,7.63,0,0,0-6,0A7.52,7.52,0,0,0,6.5,12.3l-.58-.59A8.46,8.46,0,0,1,8.69,9.79a8.51,8.51,0,0,1,6.62,0A8.46,8.46,0,0,1,18.08,11.71Z"/><path class="cls-2" d="M15.85,14l-.57.59a4.67,4.67,0,0,0-1.5-1,4.58,4.58,0,0,0-3.56,0,4.67,4.67,0,0,0-1.5,1L8.17,14a5.31,5.31,0,0,1,5.94-1.22A5.51,5.51,0,0,1,15.87,14Z"/><path class="cls-3" d="M12,18.09a1.39,1.39,0,1,0-1.38-1.38A1.38,1.38,0,0,0,12,18.09Z"/></g></g></g></svg>