<svg xmlns="http://www.w3.org/2000/svg" viewBox="0 0 24 24"><defs><style>.cls-1{fill:none;}.cls-2,.cls-3{fill:#744cc6;}.cls-3{fill-opacity:0.5;}</style></defs><g id="Слой_2" data-name="Слой 2"><g id="Duotone"><g id="Window_Duotone" data-name="Window/Duotone"><rect class="cls-1" width="24" height="24"/><path class="cls-2" d="M20.64,10.68v6.4A2.28,2.28,0,0,1,20,18.71a2.31,2.31,0,0,1-1.63.67H5.67A2.31,2.31,0,0,1,4,18.71a2.34,2.34,0,0,1-.68-1.63v-6.4Z"/><path class="cls-3" d="M18.33,4.62H5.67A2.31,2.31,0,0,0,4,5.29a2.34,2.34,0,0,0-.68,1.63V9.76H20.64V6.92A2.34,2.34,0,0,0,20,5.29,2.31,2.31,0,0,0,18.33,4.62ZM5.22,7.32A.46.46,0,0,1,5.35,7a.49.49,0,0,1,.33-.13H6.6a.44.44,0,0,1,.46.46v.92a.49.49,0,0,1-.13.33.47.47,0,0,1-.33.14H5.68a.45.45,0,0,1-.33-.14.44.44,0,0,1-.13-.33Zm9.23,0v.92a.48.48,0,0,1-.47.47h-.92a.43.43,0,0,1-.32-.14.45.45,0,0,1-.14-.33V7.32A.47.47,0,0,1,12.74,7a.46.46,0,0,1,.32-.13H14a.49.49,0,0,1,.33.13A.47.47,0,0,1,14.45,7.32Zm-3.7,0v.92a.44.44,0,0,1-.13.33.47.47,0,0,1-.33.14H9.37A.47.47,0,0,1,9,8.57a.49.49,0,0,1-.13-.33V7.32a.44.44,0,0,1,.46-.46h.92a.51.51,0,0,1,.33.13A.46.46,0,0,1,10.75,7.32Z"/></g></g></g></svg>