<svg xmlns="http://www.w3.org/2000/svg" viewBox="0 0 24 24"><defs><style>.cls-1{fill:none;}.cls-2,.cls-3{fill:#744cc6;}.cls-3{fill-opacity:0.5;}</style></defs><g id="Слой_2" data-name="Слой 2"><g id="Duotone"><g id="Сalendar_Duotone" data-name="Сalendar/Duotone"><rect class="cls-1" width="24" height="24"/><path class="cls-2" d="M3.23,10.51V18a2.32,2.32,0,0,0,2.31,2.31H18.46A2.32,2.32,0,0,0,20.77,18V10.51ZM7.85,16.1h.92a.44.44,0,0,1,.46.46v.92a.47.47,0,0,1-.14.33.46.46,0,0,1-.32.13H7.85a.44.44,0,0,1-.33-.13.45.45,0,0,1-.14-.33v-.92a.48.48,0,0,1,.46-.46Zm-.47-2.31v-.92a.47.47,0,0,1,.14-.33.44.44,0,0,1,.33-.13h.92a.46.46,0,0,1,.33.13.51.51,0,0,1,.13.33v.92a.48.48,0,0,1-.46.46H7.85a.49.49,0,0,1-.33-.13A.47.47,0,0,1,7.38,13.79Zm4.16,2.31h.92a.44.44,0,0,1,.46.46v.92a.44.44,0,0,1-.46.46h-.92a.46.46,0,0,1-.33-.13.44.44,0,0,1-.13-.33v-.92a.42.42,0,0,1,.13-.32.43.43,0,0,1,.32-.14Zm-.46-2.31v-.92a.44.44,0,0,1,.46-.46h.92a.46.46,0,0,1,.33.13.51.51,0,0,1,.13.33v.92a.46.46,0,0,1-.13.32.47.47,0,0,1-.33.14h-.92a.51.51,0,0,1-.33-.13A.46.46,0,0,1,11.08,13.79Zm3.69,3.69v-.92a.44.44,0,0,1,.46-.46h.92a.49.49,0,0,1,.33.13.47.47,0,0,1,.14.33v.92a.58.58,0,0,1-.14.33.51.51,0,0,1-.33.13h-.92a.46.46,0,0,1-.33-.13A.49.49,0,0,1,14.77,17.48Zm1.85-3.69a.52.52,0,0,1-.14.32.47.47,0,0,1-.33.14h-.92a.44.44,0,0,1-.46-.46v-.92a.51.51,0,0,1,.13-.33.46.46,0,0,1,.33-.13h.92a.44.44,0,0,1,.33.13.47.47,0,0,1,.14.33Z"/><path class="cls-3" d="M20.77,7.85V9.59H3.23V7.85A2.3,2.3,0,0,1,5.54,5.54h.24V4.15a.46.46,0,0,1,.13-.32.46.46,0,0,1,.66,0,.46.46,0,0,1,.13.32V5.54H17.31V4.15a.46.46,0,0,1,.13-.32.46.46,0,0,1,.66,0,.46.46,0,0,1,.13.32V5.54h.23a2.3,2.3,0,0,1,2.31,2.31Z"/></g></g></g></svg>