<svg xmlns="http://www.w3.org/2000/svg" viewBox="0 0 24 24"><defs><style>.cls-1{fill:none;}.cls-2,.cls-3{fill:#744cc6;}.cls-3{fill-opacity:0.5;}</style></defs><g id="Слой_2" data-name="Слой 2"><g id="Duotone"><g id="Сhange_Duotone" data-name="Сhange/Duotone"><rect class="cls-1" width="24" height="24"/><path class="cls-2" d="M19.6,18.67l-1.22,1.27a.44.44,0,0,1-.32.13.42.42,0,0,1-.32-.13L17,19.17l1.91-1.92.77.76a.51.51,0,0,1,.09.16.55.55,0,0,1,0,.18.41.41,0,0,1-.05.18A.49.49,0,0,1,19.6,18.67Z"/><path class="cls-2" d="M18.19,16.6l-1.92,1.92L7,9.23a.44.44,0,0,1-.1-.15.42.42,0,0,1,0-.36A.31.31,0,0,1,7,8.57L8.3,7.31a.45.45,0,0,1,.32-.14A.48.48,0,0,1,9,7.31Z"/><path class="cls-2" d="M7.8,6.47l-.18.18-1.5,1.5L4.24,4.57Z"/><path class="cls-3" d="M11.76,3.93h-.92a.46.46,0,0,0-.46.46v.92a.46.46,0,0,0,.46.46h.92a.45.45,0,0,0,.46-.46V4.39A.45.45,0,0,0,11.76,3.93Z"/><path class="cls-3" d="M15.46,3.93h-.93a.46.46,0,0,0-.46.46v.92a.46.46,0,0,0,.46.46h.93a.46.46,0,0,0,.46-.46V4.39A.46.46,0,0,0,15.46,3.93Z"/><path class="cls-3" d="M19.15,3.93h-.93a.46.46,0,0,0-.46.46v.92a.46.46,0,0,0,.46.46h.93a.46.46,0,0,0,.46-.46V4.39A.46.46,0,0,0,19.15,3.93Z"/></g></g></g></svg>