<svg xmlns="http://www.w3.org/2000/svg" viewBox="0 0 24 24"><defs><style>.cls-1{fill:none;}.cls-2{fill:#744cc6;fill-opacity:0.5;}</style></defs><g id="Слой_2" data-name="Слой 2"><g id="Duotone"><g id="Сursor_Right_Duotone" data-name="Сursor/Right/Duotone"><rect class="cls-1" width="24" height="24"/><path class="cls-2" d="M20.25,20.27a1.72,1.72,0,0,1-.82.46,1.67,1.67,0,0,1-.94,0l-11-3.6a1.71,1.71,0,0,1-.74-.47,1.75,1.75,0,0,1-.41-.77,1.83,1.83,0,0,1,0-.87,1.74,1.74,0,0,1,.44-.75l2-2.05L3.73,7.09a1.79,1.79,0,0,1-.38-.56,1.69,1.69,0,0,1-.13-.66,1.65,1.65,0,0,1,.13-.66,1.79,1.79,0,0,1,.38-.56l.92-.92a1.71,1.71,0,0,1,1.22-.51,1.73,1.73,0,0,1,1.23.51l5.09,5.09,2.05-2.06A1.74,1.74,0,0,1,15,6.32a1.71,1.71,0,0,1,.87,0,1.75,1.75,0,0,1,.77.41,1.71,1.71,0,0,1,.47.74l3.6,11.07a1.67,1.67,0,0,1,0,.94A1.72,1.72,0,0,1,20.25,20.27Z"/></g></g></g></svg>